%TF.GenerationSoftware,KiCad,Pcbnew,(5.1.0)-1*%
%TF.CreationDate,2020-09-20T18:29:26-04:00*%
%TF.ProjectId,BadgersHollowSchematic,42616467-6572-4734-986f-6c6c6f775363,rev?*%
%TF.SameCoordinates,Original*%
%TF.FileFunction,Soldermask,Bot*%
%TF.FilePolarity,Negative*%
%FSLAX46Y46*%
G04 Gerber Fmt 4.6, Leading zero omitted, Abs format (unit mm)*
G04 Created by KiCad (PCBNEW (5.1.0)-1) date 2020-09-20 18:29:26*
%MOMM*%
%LPD*%
G04 APERTURE LIST*
%ADD10C,1.800000*%
%ADD11C,4.100000*%
%ADD12C,2.300000*%
%ADD13C,3.300000*%
%ADD14C,1.600000*%
%ADD15R,2.100000X2.100000*%
%ADD16C,2.100000*%
%ADD17C,3.150000*%
%ADD18C,0.100000*%
%ADD19C,1.525000*%
%ADD20O,1.450000X1.450000*%
%ADD21R,1.450000X1.450000*%
%ADD22O,1.000000X1.800000*%
%ADD23O,1.000000X2.500000*%
%ADD24C,0.800000*%
%ADD25R,1.600000X1.100000*%
%ADD26R,1.100000X1.100000*%
%ADD27O,2.300000X2.300000*%
%ADD28R,2.300000X2.300000*%
%ADD29C,1.250000*%
G04 APERTURE END LIST*
D10*
%TO.C,SW5*%
X88265000Y-59055000D03*
X78105000Y-59055000D03*
D11*
X83185000Y-59055000D03*
D12*
X79375000Y-56515000D03*
X85725000Y-53975000D03*
%TD*%
D10*
%TO.C,SW23*%
X50165000Y-135255000D03*
X40005000Y-135255000D03*
D11*
X45085000Y-135255000D03*
D12*
X41275000Y-132715000D03*
X47625000Y-130175000D03*
%TD*%
D13*
%TO.C,REF\002A\002A*%
X32430720Y-39847520D03*
%TD*%
%TO.C,REF\002A\002A*%
X102108000Y-72390000D03*
%TD*%
%TO.C,REF\002A\002A*%
X33782000Y-139700000D03*
%TD*%
%TO.C,REF\002A\002A*%
X101854000Y-139192000D03*
%TD*%
%TO.C,REF\002A\002A*%
X131826000Y-139700000D03*
%TD*%
%TO.C,REF\002A\002A*%
X133350000Y-40132000D03*
%TD*%
D14*
%TO.C,Y1*%
X84764880Y-46033080D03*
X84764880Y-41153080D03*
%TD*%
D15*
%TO.C,SW27*%
X109855000Y-41910000D03*
D16*
X109855000Y-39410000D03*
X109855000Y-36910000D03*
D13*
X102355000Y-45010000D03*
X102355000Y-33810000D03*
D16*
X95355000Y-41910000D03*
X95355000Y-36910000D03*
%TD*%
D10*
%TO.C,SW26*%
X126365000Y-135255000D03*
X116205000Y-135255000D03*
D11*
X121285000Y-135255000D03*
D12*
X117475000Y-132715000D03*
X123825000Y-130175000D03*
%TD*%
D10*
%TO.C,SW25*%
X88265000Y-135255000D03*
X78105000Y-135255000D03*
D11*
X83185000Y-135255000D03*
D12*
X79375000Y-132715000D03*
X85725000Y-130175000D03*
%TD*%
D10*
%TO.C,SW24*%
X69215000Y-135255000D03*
X59055000Y-135255000D03*
D11*
X64135000Y-135255000D03*
D12*
X60325000Y-132715000D03*
X66675000Y-130175000D03*
%TD*%
D10*
%TO.C,SW22*%
X126365000Y-116205000D03*
X116205000Y-116205000D03*
D11*
X121285000Y-116205000D03*
D12*
X117475000Y-113665000D03*
X123825000Y-111125000D03*
%TD*%
D17*
%TO.C,SW21*%
X95235000Y-113830000D03*
X95235000Y-137630000D03*
D11*
X110475000Y-137630000D03*
X110475000Y-113830000D03*
D10*
X107315000Y-125730000D03*
X97155000Y-125730000D03*
D11*
X102235000Y-125730000D03*
D12*
X98425000Y-123190000D03*
X104775000Y-120650000D03*
%TD*%
D10*
%TO.C,SW20*%
X88265000Y-116205000D03*
X78105000Y-116205000D03*
D11*
X83185000Y-116205000D03*
D12*
X79375000Y-113665000D03*
X85725000Y-111125000D03*
%TD*%
D10*
%TO.C,SW19*%
X69215000Y-116205000D03*
X59055000Y-116205000D03*
D11*
X64135000Y-116205000D03*
D12*
X60325000Y-113665000D03*
X66675000Y-111125000D03*
%TD*%
D10*
%TO.C,SW18*%
X50165000Y-116205000D03*
X40005000Y-116205000D03*
D11*
X45085000Y-116205000D03*
D12*
X41275000Y-113665000D03*
X47625000Y-111125000D03*
%TD*%
D10*
%TO.C,SW17*%
X126365000Y-97155000D03*
X116205000Y-97155000D03*
D11*
X121285000Y-97155000D03*
D12*
X117475000Y-94615000D03*
X123825000Y-92075000D03*
%TD*%
D10*
%TO.C,SW15*%
X88265000Y-97155000D03*
X78105000Y-97155000D03*
D11*
X83185000Y-97155000D03*
D12*
X79375000Y-94615000D03*
X85725000Y-92075000D03*
%TD*%
D10*
%TO.C,SW14*%
X69215000Y-97155000D03*
X59055000Y-97155000D03*
D11*
X64135000Y-97155000D03*
D12*
X60325000Y-94615000D03*
X66675000Y-92075000D03*
%TD*%
D10*
%TO.C,SW13*%
X50165000Y-97155000D03*
X40005000Y-97155000D03*
D11*
X45085000Y-97155000D03*
D12*
X41275000Y-94615000D03*
X47625000Y-92075000D03*
%TD*%
D10*
%TO.C,SW12*%
X126365000Y-78105000D03*
X116205000Y-78105000D03*
D11*
X121285000Y-78105000D03*
D12*
X117475000Y-75565000D03*
X123825000Y-73025000D03*
%TD*%
D17*
%TO.C,SW11*%
X95235000Y-75730000D03*
X95235000Y-99530000D03*
D11*
X110475000Y-99530000D03*
X110475000Y-75730000D03*
D10*
X107315000Y-87630000D03*
X97155000Y-87630000D03*
D11*
X102235000Y-87630000D03*
D12*
X98425000Y-85090000D03*
X104775000Y-82550000D03*
%TD*%
D10*
%TO.C,SW10*%
X88265000Y-78105000D03*
X78105000Y-78105000D03*
D11*
X83185000Y-78105000D03*
D12*
X79375000Y-75565000D03*
X85725000Y-73025000D03*
%TD*%
D10*
%TO.C,SW9*%
X69215000Y-78105000D03*
X59055000Y-78105000D03*
D11*
X64135000Y-78105000D03*
D12*
X60325000Y-75565000D03*
X66675000Y-73025000D03*
%TD*%
D10*
%TO.C,SW8*%
X50165000Y-78105000D03*
X40005000Y-78105000D03*
D11*
X45085000Y-78105000D03*
D12*
X41275000Y-75565000D03*
X47625000Y-73025000D03*
%TD*%
D10*
%TO.C,SW7*%
X126365000Y-59055000D03*
X116205000Y-59055000D03*
D11*
X121285000Y-59055000D03*
D12*
X117475000Y-56515000D03*
X123825000Y-53975000D03*
%TD*%
D10*
%TO.C,SW6*%
X107315000Y-59055000D03*
X97155000Y-59055000D03*
D11*
X102235000Y-59055000D03*
D12*
X98425000Y-56515000D03*
X104775000Y-53975000D03*
%TD*%
D10*
%TO.C,SW4*%
X69215000Y-59055000D03*
X59055000Y-59055000D03*
D11*
X64135000Y-59055000D03*
D12*
X60325000Y-56515000D03*
X66675000Y-53975000D03*
%TD*%
D10*
%TO.C,SW3*%
X50165000Y-59055000D03*
X40005000Y-59055000D03*
D11*
X45085000Y-59055000D03*
D12*
X41275000Y-56515000D03*
X47625000Y-53975000D03*
%TD*%
D16*
%TO.C,SW2*%
X116248040Y-47599600D03*
X116248040Y-43099600D03*
X122748040Y-47599600D03*
X122748040Y-43099600D03*
%TD*%
%TO.C,SW1*%
X116070240Y-37475160D03*
X116070240Y-32975160D03*
X122570240Y-37475160D03*
X122570240Y-32975160D03*
%TD*%
D18*
%TO.C,R3*%
G36*
X42831560Y-37841768D02*
G01*
X42857531Y-37845621D01*
X42883000Y-37852000D01*
X42907721Y-37860846D01*
X42931455Y-37872071D01*
X42953975Y-37885569D01*
X42975064Y-37901210D01*
X42994518Y-37918842D01*
X43012150Y-37938296D01*
X43027791Y-37959385D01*
X43041289Y-37981905D01*
X43052514Y-38005639D01*
X43061360Y-38030360D01*
X43067739Y-38055829D01*
X43071592Y-38081800D01*
X43072880Y-38108024D01*
X43072880Y-39422936D01*
X43071592Y-39449160D01*
X43067739Y-39475131D01*
X43061360Y-39500600D01*
X43052514Y-39525321D01*
X43041289Y-39549055D01*
X43027791Y-39571575D01*
X43012150Y-39592664D01*
X42994518Y-39612118D01*
X42975064Y-39629750D01*
X42953975Y-39645391D01*
X42931455Y-39658889D01*
X42907721Y-39670114D01*
X42883000Y-39678960D01*
X42857531Y-39685339D01*
X42831560Y-39689192D01*
X42805336Y-39690480D01*
X41815424Y-39690480D01*
X41789200Y-39689192D01*
X41763229Y-39685339D01*
X41737760Y-39678960D01*
X41713039Y-39670114D01*
X41689305Y-39658889D01*
X41666785Y-39645391D01*
X41645696Y-39629750D01*
X41626242Y-39612118D01*
X41608610Y-39592664D01*
X41592969Y-39571575D01*
X41579471Y-39549055D01*
X41568246Y-39525321D01*
X41559400Y-39500600D01*
X41553021Y-39475131D01*
X41549168Y-39449160D01*
X41547880Y-39422936D01*
X41547880Y-38108024D01*
X41549168Y-38081800D01*
X41553021Y-38055829D01*
X41559400Y-38030360D01*
X41568246Y-38005639D01*
X41579471Y-37981905D01*
X41592969Y-37959385D01*
X41608610Y-37938296D01*
X41626242Y-37918842D01*
X41645696Y-37901210D01*
X41666785Y-37885569D01*
X41689305Y-37872071D01*
X41713039Y-37860846D01*
X41737760Y-37852000D01*
X41763229Y-37845621D01*
X41789200Y-37841768D01*
X41815424Y-37840480D01*
X42805336Y-37840480D01*
X42831560Y-37841768D01*
X42831560Y-37841768D01*
G37*
D19*
X42310380Y-38765480D03*
D18*
G36*
X39856560Y-37841768D02*
G01*
X39882531Y-37845621D01*
X39908000Y-37852000D01*
X39932721Y-37860846D01*
X39956455Y-37872071D01*
X39978975Y-37885569D01*
X40000064Y-37901210D01*
X40019518Y-37918842D01*
X40037150Y-37938296D01*
X40052791Y-37959385D01*
X40066289Y-37981905D01*
X40077514Y-38005639D01*
X40086360Y-38030360D01*
X40092739Y-38055829D01*
X40096592Y-38081800D01*
X40097880Y-38108024D01*
X40097880Y-39422936D01*
X40096592Y-39449160D01*
X40092739Y-39475131D01*
X40086360Y-39500600D01*
X40077514Y-39525321D01*
X40066289Y-39549055D01*
X40052791Y-39571575D01*
X40037150Y-39592664D01*
X40019518Y-39612118D01*
X40000064Y-39629750D01*
X39978975Y-39645391D01*
X39956455Y-39658889D01*
X39932721Y-39670114D01*
X39908000Y-39678960D01*
X39882531Y-39685339D01*
X39856560Y-39689192D01*
X39830336Y-39690480D01*
X38840424Y-39690480D01*
X38814200Y-39689192D01*
X38788229Y-39685339D01*
X38762760Y-39678960D01*
X38738039Y-39670114D01*
X38714305Y-39658889D01*
X38691785Y-39645391D01*
X38670696Y-39629750D01*
X38651242Y-39612118D01*
X38633610Y-39592664D01*
X38617969Y-39571575D01*
X38604471Y-39549055D01*
X38593246Y-39525321D01*
X38584400Y-39500600D01*
X38578021Y-39475131D01*
X38574168Y-39449160D01*
X38572880Y-39422936D01*
X38572880Y-38108024D01*
X38574168Y-38081800D01*
X38578021Y-38055829D01*
X38584400Y-38030360D01*
X38593246Y-38005639D01*
X38604471Y-37981905D01*
X38617969Y-37959385D01*
X38633610Y-37938296D01*
X38651242Y-37918842D01*
X38670696Y-37901210D01*
X38691785Y-37885569D01*
X38714305Y-37872071D01*
X38738039Y-37860846D01*
X38762760Y-37852000D01*
X38788229Y-37845621D01*
X38814200Y-37841768D01*
X38840424Y-37840480D01*
X39830336Y-37840480D01*
X39856560Y-37841768D01*
X39856560Y-37841768D01*
G37*
D19*
X39335380Y-38765480D03*
%TD*%
D18*
%TO.C,R2*%
G36*
X42754420Y-40346208D02*
G01*
X42780391Y-40350061D01*
X42805860Y-40356440D01*
X42830581Y-40365286D01*
X42854315Y-40376511D01*
X42876835Y-40390009D01*
X42897924Y-40405650D01*
X42917378Y-40423282D01*
X42935010Y-40442736D01*
X42950651Y-40463825D01*
X42964149Y-40486345D01*
X42975374Y-40510079D01*
X42984220Y-40534800D01*
X42990599Y-40560269D01*
X42994452Y-40586240D01*
X42995740Y-40612464D01*
X42995740Y-41927376D01*
X42994452Y-41953600D01*
X42990599Y-41979571D01*
X42984220Y-42005040D01*
X42975374Y-42029761D01*
X42964149Y-42053495D01*
X42950651Y-42076015D01*
X42935010Y-42097104D01*
X42917378Y-42116558D01*
X42897924Y-42134190D01*
X42876835Y-42149831D01*
X42854315Y-42163329D01*
X42830581Y-42174554D01*
X42805860Y-42183400D01*
X42780391Y-42189779D01*
X42754420Y-42193632D01*
X42728196Y-42194920D01*
X41738284Y-42194920D01*
X41712060Y-42193632D01*
X41686089Y-42189779D01*
X41660620Y-42183400D01*
X41635899Y-42174554D01*
X41612165Y-42163329D01*
X41589645Y-42149831D01*
X41568556Y-42134190D01*
X41549102Y-42116558D01*
X41531470Y-42097104D01*
X41515829Y-42076015D01*
X41502331Y-42053495D01*
X41491106Y-42029761D01*
X41482260Y-42005040D01*
X41475881Y-41979571D01*
X41472028Y-41953600D01*
X41470740Y-41927376D01*
X41470740Y-40612464D01*
X41472028Y-40586240D01*
X41475881Y-40560269D01*
X41482260Y-40534800D01*
X41491106Y-40510079D01*
X41502331Y-40486345D01*
X41515829Y-40463825D01*
X41531470Y-40442736D01*
X41549102Y-40423282D01*
X41568556Y-40405650D01*
X41589645Y-40390009D01*
X41612165Y-40376511D01*
X41635899Y-40365286D01*
X41660620Y-40356440D01*
X41686089Y-40350061D01*
X41712060Y-40346208D01*
X41738284Y-40344920D01*
X42728196Y-40344920D01*
X42754420Y-40346208D01*
X42754420Y-40346208D01*
G37*
D19*
X42233240Y-41269920D03*
D18*
G36*
X39779420Y-40346208D02*
G01*
X39805391Y-40350061D01*
X39830860Y-40356440D01*
X39855581Y-40365286D01*
X39879315Y-40376511D01*
X39901835Y-40390009D01*
X39922924Y-40405650D01*
X39942378Y-40423282D01*
X39960010Y-40442736D01*
X39975651Y-40463825D01*
X39989149Y-40486345D01*
X40000374Y-40510079D01*
X40009220Y-40534800D01*
X40015599Y-40560269D01*
X40019452Y-40586240D01*
X40020740Y-40612464D01*
X40020740Y-41927376D01*
X40019452Y-41953600D01*
X40015599Y-41979571D01*
X40009220Y-42005040D01*
X40000374Y-42029761D01*
X39989149Y-42053495D01*
X39975651Y-42076015D01*
X39960010Y-42097104D01*
X39942378Y-42116558D01*
X39922924Y-42134190D01*
X39901835Y-42149831D01*
X39879315Y-42163329D01*
X39855581Y-42174554D01*
X39830860Y-42183400D01*
X39805391Y-42189779D01*
X39779420Y-42193632D01*
X39753196Y-42194920D01*
X38763284Y-42194920D01*
X38737060Y-42193632D01*
X38711089Y-42189779D01*
X38685620Y-42183400D01*
X38660899Y-42174554D01*
X38637165Y-42163329D01*
X38614645Y-42149831D01*
X38593556Y-42134190D01*
X38574102Y-42116558D01*
X38556470Y-42097104D01*
X38540829Y-42076015D01*
X38527331Y-42053495D01*
X38516106Y-42029761D01*
X38507260Y-42005040D01*
X38500881Y-41979571D01*
X38497028Y-41953600D01*
X38495740Y-41927376D01*
X38495740Y-40612464D01*
X38497028Y-40586240D01*
X38500881Y-40560269D01*
X38507260Y-40534800D01*
X38516106Y-40510079D01*
X38527331Y-40486345D01*
X38540829Y-40463825D01*
X38556470Y-40442736D01*
X38574102Y-40423282D01*
X38593556Y-40405650D01*
X38614645Y-40390009D01*
X38637165Y-40376511D01*
X38660899Y-40365286D01*
X38685620Y-40356440D01*
X38711089Y-40350061D01*
X38737060Y-40346208D01*
X38763284Y-40344920D01*
X39753196Y-40344920D01*
X39779420Y-40346208D01*
X39779420Y-40346208D01*
G37*
D19*
X39258240Y-41269920D03*
%TD*%
D18*
%TO.C,R1*%
G36*
X113464760Y-33096048D02*
G01*
X113490731Y-33099901D01*
X113516200Y-33106280D01*
X113540921Y-33115126D01*
X113564655Y-33126351D01*
X113587175Y-33139849D01*
X113608264Y-33155490D01*
X113627718Y-33173122D01*
X113645350Y-33192576D01*
X113660991Y-33213665D01*
X113674489Y-33236185D01*
X113685714Y-33259919D01*
X113694560Y-33284640D01*
X113700939Y-33310109D01*
X113704792Y-33336080D01*
X113706080Y-33362304D01*
X113706080Y-34352216D01*
X113704792Y-34378440D01*
X113700939Y-34404411D01*
X113694560Y-34429880D01*
X113685714Y-34454601D01*
X113674489Y-34478335D01*
X113660991Y-34500855D01*
X113645350Y-34521944D01*
X113627718Y-34541398D01*
X113608264Y-34559030D01*
X113587175Y-34574671D01*
X113564655Y-34588169D01*
X113540921Y-34599394D01*
X113516200Y-34608240D01*
X113490731Y-34614619D01*
X113464760Y-34618472D01*
X113438536Y-34619760D01*
X112123624Y-34619760D01*
X112097400Y-34618472D01*
X112071429Y-34614619D01*
X112045960Y-34608240D01*
X112021239Y-34599394D01*
X111997505Y-34588169D01*
X111974985Y-34574671D01*
X111953896Y-34559030D01*
X111934442Y-34541398D01*
X111916810Y-34521944D01*
X111901169Y-34500855D01*
X111887671Y-34478335D01*
X111876446Y-34454601D01*
X111867600Y-34429880D01*
X111861221Y-34404411D01*
X111857368Y-34378440D01*
X111856080Y-34352216D01*
X111856080Y-33362304D01*
X111857368Y-33336080D01*
X111861221Y-33310109D01*
X111867600Y-33284640D01*
X111876446Y-33259919D01*
X111887671Y-33236185D01*
X111901169Y-33213665D01*
X111916810Y-33192576D01*
X111934442Y-33173122D01*
X111953896Y-33155490D01*
X111974985Y-33139849D01*
X111997505Y-33126351D01*
X112021239Y-33115126D01*
X112045960Y-33106280D01*
X112071429Y-33099901D01*
X112097400Y-33096048D01*
X112123624Y-33094760D01*
X113438536Y-33094760D01*
X113464760Y-33096048D01*
X113464760Y-33096048D01*
G37*
D19*
X112781080Y-33857260D03*
D18*
G36*
X113464760Y-30121048D02*
G01*
X113490731Y-30124901D01*
X113516200Y-30131280D01*
X113540921Y-30140126D01*
X113564655Y-30151351D01*
X113587175Y-30164849D01*
X113608264Y-30180490D01*
X113627718Y-30198122D01*
X113645350Y-30217576D01*
X113660991Y-30238665D01*
X113674489Y-30261185D01*
X113685714Y-30284919D01*
X113694560Y-30309640D01*
X113700939Y-30335109D01*
X113704792Y-30361080D01*
X113706080Y-30387304D01*
X113706080Y-31377216D01*
X113704792Y-31403440D01*
X113700939Y-31429411D01*
X113694560Y-31454880D01*
X113685714Y-31479601D01*
X113674489Y-31503335D01*
X113660991Y-31525855D01*
X113645350Y-31546944D01*
X113627718Y-31566398D01*
X113608264Y-31584030D01*
X113587175Y-31599671D01*
X113564655Y-31613169D01*
X113540921Y-31624394D01*
X113516200Y-31633240D01*
X113490731Y-31639619D01*
X113464760Y-31643472D01*
X113438536Y-31644760D01*
X112123624Y-31644760D01*
X112097400Y-31643472D01*
X112071429Y-31639619D01*
X112045960Y-31633240D01*
X112021239Y-31624394D01*
X111997505Y-31613169D01*
X111974985Y-31599671D01*
X111953896Y-31584030D01*
X111934442Y-31566398D01*
X111916810Y-31546944D01*
X111901169Y-31525855D01*
X111887671Y-31503335D01*
X111876446Y-31479601D01*
X111867600Y-31454880D01*
X111861221Y-31429411D01*
X111857368Y-31403440D01*
X111856080Y-31377216D01*
X111856080Y-30387304D01*
X111857368Y-30361080D01*
X111861221Y-30335109D01*
X111867600Y-30309640D01*
X111876446Y-30284919D01*
X111887671Y-30261185D01*
X111901169Y-30238665D01*
X111916810Y-30217576D01*
X111934442Y-30198122D01*
X111953896Y-30180490D01*
X111974985Y-30164849D01*
X111997505Y-30151351D01*
X112021239Y-30140126D01*
X112045960Y-30131280D01*
X112071429Y-30124901D01*
X112097400Y-30121048D01*
X112123624Y-30119760D01*
X113438536Y-30119760D01*
X113464760Y-30121048D01*
X113464760Y-30121048D01*
G37*
D19*
X112781080Y-30882260D03*
%TD*%
D20*
%TO.C,J2*%
X60759840Y-44443400D03*
X60759840Y-42443400D03*
X62759840Y-44443400D03*
X62759840Y-42443400D03*
X64759840Y-44443400D03*
D21*
X64759840Y-42443400D03*
%TD*%
D22*
%TO.C,J1*%
X45669160Y-34715360D03*
X54319160Y-34715360D03*
D23*
X45669160Y-38095360D03*
X54319160Y-38095360D03*
D24*
X49569160Y-37725360D03*
X47019160Y-37725360D03*
X47869160Y-37725360D03*
X48719160Y-37725360D03*
X52969160Y-37725360D03*
X51269160Y-37725360D03*
X50419160Y-37725360D03*
X52119160Y-37725360D03*
X47019160Y-39075360D03*
X47869160Y-39075360D03*
X48719160Y-39075360D03*
X49569160Y-39075360D03*
X50419160Y-39075360D03*
X51269160Y-39075360D03*
X52119160Y-39075360D03*
X52969160Y-39075360D03*
%TD*%
D25*
%TO.C,D45*%
X131781720Y-32913520D03*
X131781720Y-36113520D03*
X126881720Y-32913520D03*
X126881720Y-36113520D03*
%TD*%
%TO.C,D44*%
X132035720Y-48153520D03*
X132035720Y-51353520D03*
X127135720Y-48153520D03*
X127135720Y-51353520D03*
%TD*%
%TO.C,D43*%
X132035720Y-67203520D03*
X132035720Y-70403520D03*
X127135720Y-67203520D03*
X127135720Y-70403520D03*
%TD*%
%TO.C,D42*%
X131781720Y-86253520D03*
X131781720Y-89453520D03*
X126881720Y-86253520D03*
X126881720Y-89453520D03*
%TD*%
%TO.C,D41*%
X132035720Y-105303520D03*
X132035720Y-108503520D03*
X127135720Y-105303520D03*
X127135720Y-108503520D03*
%TD*%
%TO.C,D40*%
X132035720Y-124353520D03*
X132035720Y-127553520D03*
X127135720Y-124353520D03*
X127135720Y-127553520D03*
%TD*%
%TO.C,D39*%
X128007280Y-144536360D03*
X128007280Y-147736360D03*
X123107280Y-144536360D03*
X123107280Y-147736360D03*
%TD*%
%TO.C,D38*%
X104639280Y-144536360D03*
X104639280Y-147736360D03*
X99739280Y-144536360D03*
X99739280Y-147736360D03*
%TD*%
%TO.C,D37*%
X83049280Y-144536360D03*
X83049280Y-147736360D03*
X78149280Y-144536360D03*
X78149280Y-147736360D03*
%TD*%
%TO.C,D36*%
X60697280Y-144536360D03*
X60697280Y-147736360D03*
X55797280Y-144536360D03*
X55797280Y-147736360D03*
%TD*%
%TO.C,D35*%
X39869280Y-144536360D03*
X39869280Y-147736360D03*
X34969280Y-144536360D03*
X34969280Y-147736360D03*
%TD*%
%TO.C,D34*%
X34586080Y-124074120D03*
X34586080Y-127274120D03*
X29686080Y-124074120D03*
X29686080Y-127274120D03*
%TD*%
%TO.C,D33*%
X34586080Y-105024120D03*
X34586080Y-108224120D03*
X29686080Y-105024120D03*
X29686080Y-108224120D03*
%TD*%
%TO.C,D32*%
X34586080Y-85974120D03*
X34586080Y-89174120D03*
X29686080Y-85974120D03*
X29686080Y-89174120D03*
%TD*%
%TO.C,D31*%
X34586080Y-66924120D03*
X34586080Y-70124120D03*
X29686080Y-66924120D03*
X29686080Y-70124120D03*
%TD*%
%TO.C,D30*%
X34586080Y-47798120D03*
X34586080Y-50998120D03*
X29686080Y-47798120D03*
X29686080Y-50998120D03*
%TD*%
%TO.C,D29*%
X34586080Y-32380120D03*
X34586080Y-35580120D03*
X29686080Y-32380120D03*
X29686080Y-35580120D03*
%TD*%
D26*
%TO.C,D28*%
X92690000Y-42164000D03*
X90190000Y-42164000D03*
%TD*%
%TO.C,D27*%
X122662000Y-140716000D03*
X120162000Y-140716000D03*
%TD*%
%TO.C,D26*%
X84562000Y-140716000D03*
X82062000Y-140716000D03*
%TD*%
%TO.C,D25*%
X65492000Y-140716000D03*
X62992000Y-140716000D03*
%TD*%
%TO.C,D24*%
X46462000Y-140716000D03*
X43962000Y-140716000D03*
%TD*%
%TO.C,D23*%
X122662000Y-121920000D03*
X120162000Y-121920000D03*
%TD*%
%TO.C,D22*%
X103358000Y-131572000D03*
X100858000Y-131572000D03*
%TD*%
%TO.C,D21*%
X84562000Y-121920000D03*
X82062000Y-121920000D03*
%TD*%
%TO.C,D20*%
X65258000Y-121920000D03*
X62758000Y-121920000D03*
%TD*%
%TO.C,D19*%
X46462000Y-121920000D03*
X43962000Y-121920000D03*
%TD*%
%TO.C,D18*%
X122662000Y-102404000D03*
X120162000Y-102404000D03*
%TD*%
%TO.C,D16*%
X84562000Y-102616000D03*
X82062000Y-102616000D03*
%TD*%
%TO.C,D15*%
X65258000Y-102616000D03*
X62758000Y-102616000D03*
%TD*%
%TO.C,D14*%
X46462000Y-102616000D03*
X43962000Y-102616000D03*
%TD*%
%TO.C,D13*%
X122662000Y-83820000D03*
X120162000Y-83820000D03*
%TD*%
%TO.C,D12*%
X103358000Y-93472000D03*
X100858000Y-93472000D03*
%TD*%
%TO.C,D11*%
X84562000Y-83312000D03*
X82062000Y-83312000D03*
%TD*%
%TO.C,D10*%
X65766000Y-83312000D03*
X63266000Y-83312000D03*
%TD*%
%TO.C,D9*%
X46462000Y-83312000D03*
X43962000Y-83312000D03*
%TD*%
%TO.C,D8*%
X123170000Y-64516000D03*
X120670000Y-64516000D03*
%TD*%
%TO.C,D7*%
X103866000Y-64516000D03*
X101366000Y-64516000D03*
%TD*%
%TO.C,D6*%
X84562000Y-64516000D03*
X82062000Y-64516000D03*
%TD*%
%TO.C,D5*%
X65492000Y-64516000D03*
X62992000Y-64516000D03*
%TD*%
%TO.C,D4*%
X46462000Y-64516000D03*
X43962000Y-64516000D03*
%TD*%
D27*
%TO.C,D2*%
X60741560Y-31424880D03*
D28*
X60741560Y-35234880D03*
%TD*%
D27*
%TO.C,D1*%
X56931560Y-31424880D03*
D28*
X56931560Y-35234880D03*
%TD*%
D18*
%TO.C,C27*%
G36*
X134662617Y-50154828D02*
G01*
X134688995Y-50158741D01*
X134714863Y-50165221D01*
X134739972Y-50174205D01*
X134764078Y-50185606D01*
X134786952Y-50199316D01*
X134808371Y-50215202D01*
X134828130Y-50233110D01*
X134846038Y-50252869D01*
X134861924Y-50274288D01*
X134875634Y-50297162D01*
X134887035Y-50321268D01*
X134896019Y-50346377D01*
X134902499Y-50372245D01*
X134906412Y-50398623D01*
X134907720Y-50425258D01*
X134907720Y-51131782D01*
X134906412Y-51158417D01*
X134902499Y-51184795D01*
X134896019Y-51210663D01*
X134887035Y-51235772D01*
X134875634Y-51259878D01*
X134861924Y-51282752D01*
X134846038Y-51304171D01*
X134828130Y-51323930D01*
X134808371Y-51341838D01*
X134786952Y-51357724D01*
X134764078Y-51371434D01*
X134739972Y-51382835D01*
X134714863Y-51391819D01*
X134688995Y-51398299D01*
X134662617Y-51402212D01*
X134635982Y-51403520D01*
X133679458Y-51403520D01*
X133652823Y-51402212D01*
X133626445Y-51398299D01*
X133600577Y-51391819D01*
X133575468Y-51382835D01*
X133551362Y-51371434D01*
X133528488Y-51357724D01*
X133507069Y-51341838D01*
X133487310Y-51323930D01*
X133469402Y-51304171D01*
X133453516Y-51282752D01*
X133439806Y-51259878D01*
X133428405Y-51235772D01*
X133419421Y-51210663D01*
X133412941Y-51184795D01*
X133409028Y-51158417D01*
X133407720Y-51131782D01*
X133407720Y-50425258D01*
X133409028Y-50398623D01*
X133412941Y-50372245D01*
X133419421Y-50346377D01*
X133428405Y-50321268D01*
X133439806Y-50297162D01*
X133453516Y-50274288D01*
X133469402Y-50252869D01*
X133487310Y-50233110D01*
X133507069Y-50215202D01*
X133528488Y-50199316D01*
X133551362Y-50185606D01*
X133575468Y-50174205D01*
X133600577Y-50165221D01*
X133626445Y-50158741D01*
X133652823Y-50154828D01*
X133679458Y-50153520D01*
X134635982Y-50153520D01*
X134662617Y-50154828D01*
X134662617Y-50154828D01*
G37*
D29*
X134157720Y-50778520D03*
D18*
G36*
X134662617Y-48104828D02*
G01*
X134688995Y-48108741D01*
X134714863Y-48115221D01*
X134739972Y-48124205D01*
X134764078Y-48135606D01*
X134786952Y-48149316D01*
X134808371Y-48165202D01*
X134828130Y-48183110D01*
X134846038Y-48202869D01*
X134861924Y-48224288D01*
X134875634Y-48247162D01*
X134887035Y-48271268D01*
X134896019Y-48296377D01*
X134902499Y-48322245D01*
X134906412Y-48348623D01*
X134907720Y-48375258D01*
X134907720Y-49081782D01*
X134906412Y-49108417D01*
X134902499Y-49134795D01*
X134896019Y-49160663D01*
X134887035Y-49185772D01*
X134875634Y-49209878D01*
X134861924Y-49232752D01*
X134846038Y-49254171D01*
X134828130Y-49273930D01*
X134808371Y-49291838D01*
X134786952Y-49307724D01*
X134764078Y-49321434D01*
X134739972Y-49332835D01*
X134714863Y-49341819D01*
X134688995Y-49348299D01*
X134662617Y-49352212D01*
X134635982Y-49353520D01*
X133679458Y-49353520D01*
X133652823Y-49352212D01*
X133626445Y-49348299D01*
X133600577Y-49341819D01*
X133575468Y-49332835D01*
X133551362Y-49321434D01*
X133528488Y-49307724D01*
X133507069Y-49291838D01*
X133487310Y-49273930D01*
X133469402Y-49254171D01*
X133453516Y-49232752D01*
X133439806Y-49209878D01*
X133428405Y-49185772D01*
X133419421Y-49160663D01*
X133412941Y-49134795D01*
X133409028Y-49108417D01*
X133407720Y-49081782D01*
X133407720Y-48375258D01*
X133409028Y-48348623D01*
X133412941Y-48322245D01*
X133419421Y-48296377D01*
X133428405Y-48271268D01*
X133439806Y-48247162D01*
X133453516Y-48224288D01*
X133469402Y-48202869D01*
X133487310Y-48183110D01*
X133507069Y-48165202D01*
X133528488Y-48149316D01*
X133551362Y-48135606D01*
X133575468Y-48124205D01*
X133600577Y-48115221D01*
X133626445Y-48108741D01*
X133652823Y-48104828D01*
X133679458Y-48103520D01*
X134635982Y-48103520D01*
X134662617Y-48104828D01*
X134662617Y-48104828D01*
G37*
D29*
X134157720Y-48728520D03*
%TD*%
D18*
%TO.C,C26*%
G36*
X63324177Y-146537668D02*
G01*
X63350555Y-146541581D01*
X63376423Y-146548061D01*
X63401532Y-146557045D01*
X63425638Y-146568446D01*
X63448512Y-146582156D01*
X63469931Y-146598042D01*
X63489690Y-146615950D01*
X63507598Y-146635709D01*
X63523484Y-146657128D01*
X63537194Y-146680002D01*
X63548595Y-146704108D01*
X63557579Y-146729217D01*
X63564059Y-146755085D01*
X63567972Y-146781463D01*
X63569280Y-146808098D01*
X63569280Y-147514622D01*
X63567972Y-147541257D01*
X63564059Y-147567635D01*
X63557579Y-147593503D01*
X63548595Y-147618612D01*
X63537194Y-147642718D01*
X63523484Y-147665592D01*
X63507598Y-147687011D01*
X63489690Y-147706770D01*
X63469931Y-147724678D01*
X63448512Y-147740564D01*
X63425638Y-147754274D01*
X63401532Y-147765675D01*
X63376423Y-147774659D01*
X63350555Y-147781139D01*
X63324177Y-147785052D01*
X63297542Y-147786360D01*
X62341018Y-147786360D01*
X62314383Y-147785052D01*
X62288005Y-147781139D01*
X62262137Y-147774659D01*
X62237028Y-147765675D01*
X62212922Y-147754274D01*
X62190048Y-147740564D01*
X62168629Y-147724678D01*
X62148870Y-147706770D01*
X62130962Y-147687011D01*
X62115076Y-147665592D01*
X62101366Y-147642718D01*
X62089965Y-147618612D01*
X62080981Y-147593503D01*
X62074501Y-147567635D01*
X62070588Y-147541257D01*
X62069280Y-147514622D01*
X62069280Y-146808098D01*
X62070588Y-146781463D01*
X62074501Y-146755085D01*
X62080981Y-146729217D01*
X62089965Y-146704108D01*
X62101366Y-146680002D01*
X62115076Y-146657128D01*
X62130962Y-146635709D01*
X62148870Y-146615950D01*
X62168629Y-146598042D01*
X62190048Y-146582156D01*
X62212922Y-146568446D01*
X62237028Y-146557045D01*
X62262137Y-146548061D01*
X62288005Y-146541581D01*
X62314383Y-146537668D01*
X62341018Y-146536360D01*
X63297542Y-146536360D01*
X63324177Y-146537668D01*
X63324177Y-146537668D01*
G37*
D29*
X62819280Y-147161360D03*
D18*
G36*
X63324177Y-144487668D02*
G01*
X63350555Y-144491581D01*
X63376423Y-144498061D01*
X63401532Y-144507045D01*
X63425638Y-144518446D01*
X63448512Y-144532156D01*
X63469931Y-144548042D01*
X63489690Y-144565950D01*
X63507598Y-144585709D01*
X63523484Y-144607128D01*
X63537194Y-144630002D01*
X63548595Y-144654108D01*
X63557579Y-144679217D01*
X63564059Y-144705085D01*
X63567972Y-144731463D01*
X63569280Y-144758098D01*
X63569280Y-145464622D01*
X63567972Y-145491257D01*
X63564059Y-145517635D01*
X63557579Y-145543503D01*
X63548595Y-145568612D01*
X63537194Y-145592718D01*
X63523484Y-145615592D01*
X63507598Y-145637011D01*
X63489690Y-145656770D01*
X63469931Y-145674678D01*
X63448512Y-145690564D01*
X63425638Y-145704274D01*
X63401532Y-145715675D01*
X63376423Y-145724659D01*
X63350555Y-145731139D01*
X63324177Y-145735052D01*
X63297542Y-145736360D01*
X62341018Y-145736360D01*
X62314383Y-145735052D01*
X62288005Y-145731139D01*
X62262137Y-145724659D01*
X62237028Y-145715675D01*
X62212922Y-145704274D01*
X62190048Y-145690564D01*
X62168629Y-145674678D01*
X62148870Y-145656770D01*
X62130962Y-145637011D01*
X62115076Y-145615592D01*
X62101366Y-145592718D01*
X62089965Y-145568612D01*
X62080981Y-145543503D01*
X62074501Y-145517635D01*
X62070588Y-145491257D01*
X62069280Y-145464622D01*
X62069280Y-144758098D01*
X62070588Y-144731463D01*
X62074501Y-144705085D01*
X62080981Y-144679217D01*
X62089965Y-144654108D01*
X62101366Y-144630002D01*
X62115076Y-144607128D01*
X62130962Y-144585709D01*
X62148870Y-144565950D01*
X62168629Y-144548042D01*
X62190048Y-144532156D01*
X62212922Y-144518446D01*
X62237028Y-144507045D01*
X62262137Y-144498061D01*
X62288005Y-144491581D01*
X62314383Y-144487668D01*
X62341018Y-144486360D01*
X63297542Y-144486360D01*
X63324177Y-144487668D01*
X63324177Y-144487668D01*
G37*
D29*
X62819280Y-145111360D03*
%TD*%
D18*
%TO.C,C24*%
G36*
X134662617Y-69204828D02*
G01*
X134688995Y-69208741D01*
X134714863Y-69215221D01*
X134739972Y-69224205D01*
X134764078Y-69235606D01*
X134786952Y-69249316D01*
X134808371Y-69265202D01*
X134828130Y-69283110D01*
X134846038Y-69302869D01*
X134861924Y-69324288D01*
X134875634Y-69347162D01*
X134887035Y-69371268D01*
X134896019Y-69396377D01*
X134902499Y-69422245D01*
X134906412Y-69448623D01*
X134907720Y-69475258D01*
X134907720Y-70181782D01*
X134906412Y-70208417D01*
X134902499Y-70234795D01*
X134896019Y-70260663D01*
X134887035Y-70285772D01*
X134875634Y-70309878D01*
X134861924Y-70332752D01*
X134846038Y-70354171D01*
X134828130Y-70373930D01*
X134808371Y-70391838D01*
X134786952Y-70407724D01*
X134764078Y-70421434D01*
X134739972Y-70432835D01*
X134714863Y-70441819D01*
X134688995Y-70448299D01*
X134662617Y-70452212D01*
X134635982Y-70453520D01*
X133679458Y-70453520D01*
X133652823Y-70452212D01*
X133626445Y-70448299D01*
X133600577Y-70441819D01*
X133575468Y-70432835D01*
X133551362Y-70421434D01*
X133528488Y-70407724D01*
X133507069Y-70391838D01*
X133487310Y-70373930D01*
X133469402Y-70354171D01*
X133453516Y-70332752D01*
X133439806Y-70309878D01*
X133428405Y-70285772D01*
X133419421Y-70260663D01*
X133412941Y-70234795D01*
X133409028Y-70208417D01*
X133407720Y-70181782D01*
X133407720Y-69475258D01*
X133409028Y-69448623D01*
X133412941Y-69422245D01*
X133419421Y-69396377D01*
X133428405Y-69371268D01*
X133439806Y-69347162D01*
X133453516Y-69324288D01*
X133469402Y-69302869D01*
X133487310Y-69283110D01*
X133507069Y-69265202D01*
X133528488Y-69249316D01*
X133551362Y-69235606D01*
X133575468Y-69224205D01*
X133600577Y-69215221D01*
X133626445Y-69208741D01*
X133652823Y-69204828D01*
X133679458Y-69203520D01*
X134635982Y-69203520D01*
X134662617Y-69204828D01*
X134662617Y-69204828D01*
G37*
D29*
X134157720Y-69828520D03*
D18*
G36*
X134662617Y-67154828D02*
G01*
X134688995Y-67158741D01*
X134714863Y-67165221D01*
X134739972Y-67174205D01*
X134764078Y-67185606D01*
X134786952Y-67199316D01*
X134808371Y-67215202D01*
X134828130Y-67233110D01*
X134846038Y-67252869D01*
X134861924Y-67274288D01*
X134875634Y-67297162D01*
X134887035Y-67321268D01*
X134896019Y-67346377D01*
X134902499Y-67372245D01*
X134906412Y-67398623D01*
X134907720Y-67425258D01*
X134907720Y-68131782D01*
X134906412Y-68158417D01*
X134902499Y-68184795D01*
X134896019Y-68210663D01*
X134887035Y-68235772D01*
X134875634Y-68259878D01*
X134861924Y-68282752D01*
X134846038Y-68304171D01*
X134828130Y-68323930D01*
X134808371Y-68341838D01*
X134786952Y-68357724D01*
X134764078Y-68371434D01*
X134739972Y-68382835D01*
X134714863Y-68391819D01*
X134688995Y-68398299D01*
X134662617Y-68402212D01*
X134635982Y-68403520D01*
X133679458Y-68403520D01*
X133652823Y-68402212D01*
X133626445Y-68398299D01*
X133600577Y-68391819D01*
X133575468Y-68382835D01*
X133551362Y-68371434D01*
X133528488Y-68357724D01*
X133507069Y-68341838D01*
X133487310Y-68323930D01*
X133469402Y-68304171D01*
X133453516Y-68282752D01*
X133439806Y-68259878D01*
X133428405Y-68235772D01*
X133419421Y-68210663D01*
X133412941Y-68184795D01*
X133409028Y-68158417D01*
X133407720Y-68131782D01*
X133407720Y-67425258D01*
X133409028Y-67398623D01*
X133412941Y-67372245D01*
X133419421Y-67346377D01*
X133428405Y-67321268D01*
X133439806Y-67297162D01*
X133453516Y-67274288D01*
X133469402Y-67252869D01*
X133487310Y-67233110D01*
X133507069Y-67215202D01*
X133528488Y-67199316D01*
X133551362Y-67185606D01*
X133575468Y-67174205D01*
X133600577Y-67165221D01*
X133626445Y-67158741D01*
X133652823Y-67154828D01*
X133679458Y-67153520D01*
X134635982Y-67153520D01*
X134662617Y-67154828D01*
X134662617Y-67154828D01*
G37*
D29*
X134157720Y-67778520D03*
%TD*%
D18*
%TO.C,C23*%
G36*
X42496177Y-146537668D02*
G01*
X42522555Y-146541581D01*
X42548423Y-146548061D01*
X42573532Y-146557045D01*
X42597638Y-146568446D01*
X42620512Y-146582156D01*
X42641931Y-146598042D01*
X42661690Y-146615950D01*
X42679598Y-146635709D01*
X42695484Y-146657128D01*
X42709194Y-146680002D01*
X42720595Y-146704108D01*
X42729579Y-146729217D01*
X42736059Y-146755085D01*
X42739972Y-146781463D01*
X42741280Y-146808098D01*
X42741280Y-147514622D01*
X42739972Y-147541257D01*
X42736059Y-147567635D01*
X42729579Y-147593503D01*
X42720595Y-147618612D01*
X42709194Y-147642718D01*
X42695484Y-147665592D01*
X42679598Y-147687011D01*
X42661690Y-147706770D01*
X42641931Y-147724678D01*
X42620512Y-147740564D01*
X42597638Y-147754274D01*
X42573532Y-147765675D01*
X42548423Y-147774659D01*
X42522555Y-147781139D01*
X42496177Y-147785052D01*
X42469542Y-147786360D01*
X41513018Y-147786360D01*
X41486383Y-147785052D01*
X41460005Y-147781139D01*
X41434137Y-147774659D01*
X41409028Y-147765675D01*
X41384922Y-147754274D01*
X41362048Y-147740564D01*
X41340629Y-147724678D01*
X41320870Y-147706770D01*
X41302962Y-147687011D01*
X41287076Y-147665592D01*
X41273366Y-147642718D01*
X41261965Y-147618612D01*
X41252981Y-147593503D01*
X41246501Y-147567635D01*
X41242588Y-147541257D01*
X41241280Y-147514622D01*
X41241280Y-146808098D01*
X41242588Y-146781463D01*
X41246501Y-146755085D01*
X41252981Y-146729217D01*
X41261965Y-146704108D01*
X41273366Y-146680002D01*
X41287076Y-146657128D01*
X41302962Y-146635709D01*
X41320870Y-146615950D01*
X41340629Y-146598042D01*
X41362048Y-146582156D01*
X41384922Y-146568446D01*
X41409028Y-146557045D01*
X41434137Y-146548061D01*
X41460005Y-146541581D01*
X41486383Y-146537668D01*
X41513018Y-146536360D01*
X42469542Y-146536360D01*
X42496177Y-146537668D01*
X42496177Y-146537668D01*
G37*
D29*
X41991280Y-147161360D03*
D18*
G36*
X42496177Y-144487668D02*
G01*
X42522555Y-144491581D01*
X42548423Y-144498061D01*
X42573532Y-144507045D01*
X42597638Y-144518446D01*
X42620512Y-144532156D01*
X42641931Y-144548042D01*
X42661690Y-144565950D01*
X42679598Y-144585709D01*
X42695484Y-144607128D01*
X42709194Y-144630002D01*
X42720595Y-144654108D01*
X42729579Y-144679217D01*
X42736059Y-144705085D01*
X42739972Y-144731463D01*
X42741280Y-144758098D01*
X42741280Y-145464622D01*
X42739972Y-145491257D01*
X42736059Y-145517635D01*
X42729579Y-145543503D01*
X42720595Y-145568612D01*
X42709194Y-145592718D01*
X42695484Y-145615592D01*
X42679598Y-145637011D01*
X42661690Y-145656770D01*
X42641931Y-145674678D01*
X42620512Y-145690564D01*
X42597638Y-145704274D01*
X42573532Y-145715675D01*
X42548423Y-145724659D01*
X42522555Y-145731139D01*
X42496177Y-145735052D01*
X42469542Y-145736360D01*
X41513018Y-145736360D01*
X41486383Y-145735052D01*
X41460005Y-145731139D01*
X41434137Y-145724659D01*
X41409028Y-145715675D01*
X41384922Y-145704274D01*
X41362048Y-145690564D01*
X41340629Y-145674678D01*
X41320870Y-145656770D01*
X41302962Y-145637011D01*
X41287076Y-145615592D01*
X41273366Y-145592718D01*
X41261965Y-145568612D01*
X41252981Y-145543503D01*
X41246501Y-145517635D01*
X41242588Y-145491257D01*
X41241280Y-145464622D01*
X41241280Y-144758098D01*
X41242588Y-144731463D01*
X41246501Y-144705085D01*
X41252981Y-144679217D01*
X41261965Y-144654108D01*
X41273366Y-144630002D01*
X41287076Y-144607128D01*
X41302962Y-144585709D01*
X41320870Y-144565950D01*
X41340629Y-144548042D01*
X41362048Y-144532156D01*
X41384922Y-144518446D01*
X41409028Y-144507045D01*
X41434137Y-144498061D01*
X41460005Y-144491581D01*
X41486383Y-144487668D01*
X41513018Y-144486360D01*
X42469542Y-144486360D01*
X42496177Y-144487668D01*
X42496177Y-144487668D01*
G37*
D29*
X41991280Y-145111360D03*
%TD*%
D18*
%TO.C,C21*%
G36*
X134408617Y-88254828D02*
G01*
X134434995Y-88258741D01*
X134460863Y-88265221D01*
X134485972Y-88274205D01*
X134510078Y-88285606D01*
X134532952Y-88299316D01*
X134554371Y-88315202D01*
X134574130Y-88333110D01*
X134592038Y-88352869D01*
X134607924Y-88374288D01*
X134621634Y-88397162D01*
X134633035Y-88421268D01*
X134642019Y-88446377D01*
X134648499Y-88472245D01*
X134652412Y-88498623D01*
X134653720Y-88525258D01*
X134653720Y-89231782D01*
X134652412Y-89258417D01*
X134648499Y-89284795D01*
X134642019Y-89310663D01*
X134633035Y-89335772D01*
X134621634Y-89359878D01*
X134607924Y-89382752D01*
X134592038Y-89404171D01*
X134574130Y-89423930D01*
X134554371Y-89441838D01*
X134532952Y-89457724D01*
X134510078Y-89471434D01*
X134485972Y-89482835D01*
X134460863Y-89491819D01*
X134434995Y-89498299D01*
X134408617Y-89502212D01*
X134381982Y-89503520D01*
X133425458Y-89503520D01*
X133398823Y-89502212D01*
X133372445Y-89498299D01*
X133346577Y-89491819D01*
X133321468Y-89482835D01*
X133297362Y-89471434D01*
X133274488Y-89457724D01*
X133253069Y-89441838D01*
X133233310Y-89423930D01*
X133215402Y-89404171D01*
X133199516Y-89382752D01*
X133185806Y-89359878D01*
X133174405Y-89335772D01*
X133165421Y-89310663D01*
X133158941Y-89284795D01*
X133155028Y-89258417D01*
X133153720Y-89231782D01*
X133153720Y-88525258D01*
X133155028Y-88498623D01*
X133158941Y-88472245D01*
X133165421Y-88446377D01*
X133174405Y-88421268D01*
X133185806Y-88397162D01*
X133199516Y-88374288D01*
X133215402Y-88352869D01*
X133233310Y-88333110D01*
X133253069Y-88315202D01*
X133274488Y-88299316D01*
X133297362Y-88285606D01*
X133321468Y-88274205D01*
X133346577Y-88265221D01*
X133372445Y-88258741D01*
X133398823Y-88254828D01*
X133425458Y-88253520D01*
X134381982Y-88253520D01*
X134408617Y-88254828D01*
X134408617Y-88254828D01*
G37*
D29*
X133903720Y-88878520D03*
D18*
G36*
X134408617Y-86204828D02*
G01*
X134434995Y-86208741D01*
X134460863Y-86215221D01*
X134485972Y-86224205D01*
X134510078Y-86235606D01*
X134532952Y-86249316D01*
X134554371Y-86265202D01*
X134574130Y-86283110D01*
X134592038Y-86302869D01*
X134607924Y-86324288D01*
X134621634Y-86347162D01*
X134633035Y-86371268D01*
X134642019Y-86396377D01*
X134648499Y-86422245D01*
X134652412Y-86448623D01*
X134653720Y-86475258D01*
X134653720Y-87181782D01*
X134652412Y-87208417D01*
X134648499Y-87234795D01*
X134642019Y-87260663D01*
X134633035Y-87285772D01*
X134621634Y-87309878D01*
X134607924Y-87332752D01*
X134592038Y-87354171D01*
X134574130Y-87373930D01*
X134554371Y-87391838D01*
X134532952Y-87407724D01*
X134510078Y-87421434D01*
X134485972Y-87432835D01*
X134460863Y-87441819D01*
X134434995Y-87448299D01*
X134408617Y-87452212D01*
X134381982Y-87453520D01*
X133425458Y-87453520D01*
X133398823Y-87452212D01*
X133372445Y-87448299D01*
X133346577Y-87441819D01*
X133321468Y-87432835D01*
X133297362Y-87421434D01*
X133274488Y-87407724D01*
X133253069Y-87391838D01*
X133233310Y-87373930D01*
X133215402Y-87354171D01*
X133199516Y-87332752D01*
X133185806Y-87309878D01*
X133174405Y-87285772D01*
X133165421Y-87260663D01*
X133158941Y-87234795D01*
X133155028Y-87208417D01*
X133153720Y-87181782D01*
X133153720Y-86475258D01*
X133155028Y-86448623D01*
X133158941Y-86422245D01*
X133165421Y-86396377D01*
X133174405Y-86371268D01*
X133185806Y-86347162D01*
X133199516Y-86324288D01*
X133215402Y-86302869D01*
X133233310Y-86283110D01*
X133253069Y-86265202D01*
X133274488Y-86249316D01*
X133297362Y-86235606D01*
X133321468Y-86224205D01*
X133346577Y-86215221D01*
X133372445Y-86208741D01*
X133398823Y-86204828D01*
X133425458Y-86203520D01*
X134381982Y-86203520D01*
X134408617Y-86204828D01*
X134408617Y-86204828D01*
G37*
D29*
X133903720Y-86828520D03*
%TD*%
D18*
%TO.C,C20*%
G36*
X37212977Y-126075428D02*
G01*
X37239355Y-126079341D01*
X37265223Y-126085821D01*
X37290332Y-126094805D01*
X37314438Y-126106206D01*
X37337312Y-126119916D01*
X37358731Y-126135802D01*
X37378490Y-126153710D01*
X37396398Y-126173469D01*
X37412284Y-126194888D01*
X37425994Y-126217762D01*
X37437395Y-126241868D01*
X37446379Y-126266977D01*
X37452859Y-126292845D01*
X37456772Y-126319223D01*
X37458080Y-126345858D01*
X37458080Y-127052382D01*
X37456772Y-127079017D01*
X37452859Y-127105395D01*
X37446379Y-127131263D01*
X37437395Y-127156372D01*
X37425994Y-127180478D01*
X37412284Y-127203352D01*
X37396398Y-127224771D01*
X37378490Y-127244530D01*
X37358731Y-127262438D01*
X37337312Y-127278324D01*
X37314438Y-127292034D01*
X37290332Y-127303435D01*
X37265223Y-127312419D01*
X37239355Y-127318899D01*
X37212977Y-127322812D01*
X37186342Y-127324120D01*
X36229818Y-127324120D01*
X36203183Y-127322812D01*
X36176805Y-127318899D01*
X36150937Y-127312419D01*
X36125828Y-127303435D01*
X36101722Y-127292034D01*
X36078848Y-127278324D01*
X36057429Y-127262438D01*
X36037670Y-127244530D01*
X36019762Y-127224771D01*
X36003876Y-127203352D01*
X35990166Y-127180478D01*
X35978765Y-127156372D01*
X35969781Y-127131263D01*
X35963301Y-127105395D01*
X35959388Y-127079017D01*
X35958080Y-127052382D01*
X35958080Y-126345858D01*
X35959388Y-126319223D01*
X35963301Y-126292845D01*
X35969781Y-126266977D01*
X35978765Y-126241868D01*
X35990166Y-126217762D01*
X36003876Y-126194888D01*
X36019762Y-126173469D01*
X36037670Y-126153710D01*
X36057429Y-126135802D01*
X36078848Y-126119916D01*
X36101722Y-126106206D01*
X36125828Y-126094805D01*
X36150937Y-126085821D01*
X36176805Y-126079341D01*
X36203183Y-126075428D01*
X36229818Y-126074120D01*
X37186342Y-126074120D01*
X37212977Y-126075428D01*
X37212977Y-126075428D01*
G37*
D29*
X36708080Y-126699120D03*
D18*
G36*
X37212977Y-124025428D02*
G01*
X37239355Y-124029341D01*
X37265223Y-124035821D01*
X37290332Y-124044805D01*
X37314438Y-124056206D01*
X37337312Y-124069916D01*
X37358731Y-124085802D01*
X37378490Y-124103710D01*
X37396398Y-124123469D01*
X37412284Y-124144888D01*
X37425994Y-124167762D01*
X37437395Y-124191868D01*
X37446379Y-124216977D01*
X37452859Y-124242845D01*
X37456772Y-124269223D01*
X37458080Y-124295858D01*
X37458080Y-125002382D01*
X37456772Y-125029017D01*
X37452859Y-125055395D01*
X37446379Y-125081263D01*
X37437395Y-125106372D01*
X37425994Y-125130478D01*
X37412284Y-125153352D01*
X37396398Y-125174771D01*
X37378490Y-125194530D01*
X37358731Y-125212438D01*
X37337312Y-125228324D01*
X37314438Y-125242034D01*
X37290332Y-125253435D01*
X37265223Y-125262419D01*
X37239355Y-125268899D01*
X37212977Y-125272812D01*
X37186342Y-125274120D01*
X36229818Y-125274120D01*
X36203183Y-125272812D01*
X36176805Y-125268899D01*
X36150937Y-125262419D01*
X36125828Y-125253435D01*
X36101722Y-125242034D01*
X36078848Y-125228324D01*
X36057429Y-125212438D01*
X36037670Y-125194530D01*
X36019762Y-125174771D01*
X36003876Y-125153352D01*
X35990166Y-125130478D01*
X35978765Y-125106372D01*
X35969781Y-125081263D01*
X35963301Y-125055395D01*
X35959388Y-125029017D01*
X35958080Y-125002382D01*
X35958080Y-124295858D01*
X35959388Y-124269223D01*
X35963301Y-124242845D01*
X35969781Y-124216977D01*
X35978765Y-124191868D01*
X35990166Y-124167762D01*
X36003876Y-124144888D01*
X36019762Y-124123469D01*
X36037670Y-124103710D01*
X36057429Y-124085802D01*
X36078848Y-124069916D01*
X36101722Y-124056206D01*
X36125828Y-124044805D01*
X36150937Y-124035821D01*
X36176805Y-124029341D01*
X36203183Y-124025428D01*
X36229818Y-124024120D01*
X37186342Y-124024120D01*
X37212977Y-124025428D01*
X37212977Y-124025428D01*
G37*
D29*
X36708080Y-124649120D03*
%TD*%
D18*
%TO.C,C18*%
G36*
X134662617Y-107304828D02*
G01*
X134688995Y-107308741D01*
X134714863Y-107315221D01*
X134739972Y-107324205D01*
X134764078Y-107335606D01*
X134786952Y-107349316D01*
X134808371Y-107365202D01*
X134828130Y-107383110D01*
X134846038Y-107402869D01*
X134861924Y-107424288D01*
X134875634Y-107447162D01*
X134887035Y-107471268D01*
X134896019Y-107496377D01*
X134902499Y-107522245D01*
X134906412Y-107548623D01*
X134907720Y-107575258D01*
X134907720Y-108281782D01*
X134906412Y-108308417D01*
X134902499Y-108334795D01*
X134896019Y-108360663D01*
X134887035Y-108385772D01*
X134875634Y-108409878D01*
X134861924Y-108432752D01*
X134846038Y-108454171D01*
X134828130Y-108473930D01*
X134808371Y-108491838D01*
X134786952Y-108507724D01*
X134764078Y-108521434D01*
X134739972Y-108532835D01*
X134714863Y-108541819D01*
X134688995Y-108548299D01*
X134662617Y-108552212D01*
X134635982Y-108553520D01*
X133679458Y-108553520D01*
X133652823Y-108552212D01*
X133626445Y-108548299D01*
X133600577Y-108541819D01*
X133575468Y-108532835D01*
X133551362Y-108521434D01*
X133528488Y-108507724D01*
X133507069Y-108491838D01*
X133487310Y-108473930D01*
X133469402Y-108454171D01*
X133453516Y-108432752D01*
X133439806Y-108409878D01*
X133428405Y-108385772D01*
X133419421Y-108360663D01*
X133412941Y-108334795D01*
X133409028Y-108308417D01*
X133407720Y-108281782D01*
X133407720Y-107575258D01*
X133409028Y-107548623D01*
X133412941Y-107522245D01*
X133419421Y-107496377D01*
X133428405Y-107471268D01*
X133439806Y-107447162D01*
X133453516Y-107424288D01*
X133469402Y-107402869D01*
X133487310Y-107383110D01*
X133507069Y-107365202D01*
X133528488Y-107349316D01*
X133551362Y-107335606D01*
X133575468Y-107324205D01*
X133600577Y-107315221D01*
X133626445Y-107308741D01*
X133652823Y-107304828D01*
X133679458Y-107303520D01*
X134635982Y-107303520D01*
X134662617Y-107304828D01*
X134662617Y-107304828D01*
G37*
D29*
X134157720Y-107928520D03*
D18*
G36*
X134662617Y-105254828D02*
G01*
X134688995Y-105258741D01*
X134714863Y-105265221D01*
X134739972Y-105274205D01*
X134764078Y-105285606D01*
X134786952Y-105299316D01*
X134808371Y-105315202D01*
X134828130Y-105333110D01*
X134846038Y-105352869D01*
X134861924Y-105374288D01*
X134875634Y-105397162D01*
X134887035Y-105421268D01*
X134896019Y-105446377D01*
X134902499Y-105472245D01*
X134906412Y-105498623D01*
X134907720Y-105525258D01*
X134907720Y-106231782D01*
X134906412Y-106258417D01*
X134902499Y-106284795D01*
X134896019Y-106310663D01*
X134887035Y-106335772D01*
X134875634Y-106359878D01*
X134861924Y-106382752D01*
X134846038Y-106404171D01*
X134828130Y-106423930D01*
X134808371Y-106441838D01*
X134786952Y-106457724D01*
X134764078Y-106471434D01*
X134739972Y-106482835D01*
X134714863Y-106491819D01*
X134688995Y-106498299D01*
X134662617Y-106502212D01*
X134635982Y-106503520D01*
X133679458Y-106503520D01*
X133652823Y-106502212D01*
X133626445Y-106498299D01*
X133600577Y-106491819D01*
X133575468Y-106482835D01*
X133551362Y-106471434D01*
X133528488Y-106457724D01*
X133507069Y-106441838D01*
X133487310Y-106423930D01*
X133469402Y-106404171D01*
X133453516Y-106382752D01*
X133439806Y-106359878D01*
X133428405Y-106335772D01*
X133419421Y-106310663D01*
X133412941Y-106284795D01*
X133409028Y-106258417D01*
X133407720Y-106231782D01*
X133407720Y-105525258D01*
X133409028Y-105498623D01*
X133412941Y-105472245D01*
X133419421Y-105446377D01*
X133428405Y-105421268D01*
X133439806Y-105397162D01*
X133453516Y-105374288D01*
X133469402Y-105352869D01*
X133487310Y-105333110D01*
X133507069Y-105315202D01*
X133528488Y-105299316D01*
X133551362Y-105285606D01*
X133575468Y-105274205D01*
X133600577Y-105265221D01*
X133626445Y-105258741D01*
X133652823Y-105254828D01*
X133679458Y-105253520D01*
X134635982Y-105253520D01*
X134662617Y-105254828D01*
X134662617Y-105254828D01*
G37*
D29*
X134157720Y-105878520D03*
%TD*%
D18*
%TO.C,C17*%
G36*
X37212977Y-107025428D02*
G01*
X37239355Y-107029341D01*
X37265223Y-107035821D01*
X37290332Y-107044805D01*
X37314438Y-107056206D01*
X37337312Y-107069916D01*
X37358731Y-107085802D01*
X37378490Y-107103710D01*
X37396398Y-107123469D01*
X37412284Y-107144888D01*
X37425994Y-107167762D01*
X37437395Y-107191868D01*
X37446379Y-107216977D01*
X37452859Y-107242845D01*
X37456772Y-107269223D01*
X37458080Y-107295858D01*
X37458080Y-108002382D01*
X37456772Y-108029017D01*
X37452859Y-108055395D01*
X37446379Y-108081263D01*
X37437395Y-108106372D01*
X37425994Y-108130478D01*
X37412284Y-108153352D01*
X37396398Y-108174771D01*
X37378490Y-108194530D01*
X37358731Y-108212438D01*
X37337312Y-108228324D01*
X37314438Y-108242034D01*
X37290332Y-108253435D01*
X37265223Y-108262419D01*
X37239355Y-108268899D01*
X37212977Y-108272812D01*
X37186342Y-108274120D01*
X36229818Y-108274120D01*
X36203183Y-108272812D01*
X36176805Y-108268899D01*
X36150937Y-108262419D01*
X36125828Y-108253435D01*
X36101722Y-108242034D01*
X36078848Y-108228324D01*
X36057429Y-108212438D01*
X36037670Y-108194530D01*
X36019762Y-108174771D01*
X36003876Y-108153352D01*
X35990166Y-108130478D01*
X35978765Y-108106372D01*
X35969781Y-108081263D01*
X35963301Y-108055395D01*
X35959388Y-108029017D01*
X35958080Y-108002382D01*
X35958080Y-107295858D01*
X35959388Y-107269223D01*
X35963301Y-107242845D01*
X35969781Y-107216977D01*
X35978765Y-107191868D01*
X35990166Y-107167762D01*
X36003876Y-107144888D01*
X36019762Y-107123469D01*
X36037670Y-107103710D01*
X36057429Y-107085802D01*
X36078848Y-107069916D01*
X36101722Y-107056206D01*
X36125828Y-107044805D01*
X36150937Y-107035821D01*
X36176805Y-107029341D01*
X36203183Y-107025428D01*
X36229818Y-107024120D01*
X37186342Y-107024120D01*
X37212977Y-107025428D01*
X37212977Y-107025428D01*
G37*
D29*
X36708080Y-107649120D03*
D18*
G36*
X37212977Y-104975428D02*
G01*
X37239355Y-104979341D01*
X37265223Y-104985821D01*
X37290332Y-104994805D01*
X37314438Y-105006206D01*
X37337312Y-105019916D01*
X37358731Y-105035802D01*
X37378490Y-105053710D01*
X37396398Y-105073469D01*
X37412284Y-105094888D01*
X37425994Y-105117762D01*
X37437395Y-105141868D01*
X37446379Y-105166977D01*
X37452859Y-105192845D01*
X37456772Y-105219223D01*
X37458080Y-105245858D01*
X37458080Y-105952382D01*
X37456772Y-105979017D01*
X37452859Y-106005395D01*
X37446379Y-106031263D01*
X37437395Y-106056372D01*
X37425994Y-106080478D01*
X37412284Y-106103352D01*
X37396398Y-106124771D01*
X37378490Y-106144530D01*
X37358731Y-106162438D01*
X37337312Y-106178324D01*
X37314438Y-106192034D01*
X37290332Y-106203435D01*
X37265223Y-106212419D01*
X37239355Y-106218899D01*
X37212977Y-106222812D01*
X37186342Y-106224120D01*
X36229818Y-106224120D01*
X36203183Y-106222812D01*
X36176805Y-106218899D01*
X36150937Y-106212419D01*
X36125828Y-106203435D01*
X36101722Y-106192034D01*
X36078848Y-106178324D01*
X36057429Y-106162438D01*
X36037670Y-106144530D01*
X36019762Y-106124771D01*
X36003876Y-106103352D01*
X35990166Y-106080478D01*
X35978765Y-106056372D01*
X35969781Y-106031263D01*
X35963301Y-106005395D01*
X35959388Y-105979017D01*
X35958080Y-105952382D01*
X35958080Y-105245858D01*
X35959388Y-105219223D01*
X35963301Y-105192845D01*
X35969781Y-105166977D01*
X35978765Y-105141868D01*
X35990166Y-105117762D01*
X36003876Y-105094888D01*
X36019762Y-105073469D01*
X36037670Y-105053710D01*
X36057429Y-105035802D01*
X36078848Y-105019916D01*
X36101722Y-105006206D01*
X36125828Y-104994805D01*
X36150937Y-104985821D01*
X36176805Y-104979341D01*
X36203183Y-104975428D01*
X36229818Y-104974120D01*
X37186342Y-104974120D01*
X37212977Y-104975428D01*
X37212977Y-104975428D01*
G37*
D29*
X36708080Y-105599120D03*
%TD*%
D18*
%TO.C,C15*%
G36*
X134662617Y-126354828D02*
G01*
X134688995Y-126358741D01*
X134714863Y-126365221D01*
X134739972Y-126374205D01*
X134764078Y-126385606D01*
X134786952Y-126399316D01*
X134808371Y-126415202D01*
X134828130Y-126433110D01*
X134846038Y-126452869D01*
X134861924Y-126474288D01*
X134875634Y-126497162D01*
X134887035Y-126521268D01*
X134896019Y-126546377D01*
X134902499Y-126572245D01*
X134906412Y-126598623D01*
X134907720Y-126625258D01*
X134907720Y-127331782D01*
X134906412Y-127358417D01*
X134902499Y-127384795D01*
X134896019Y-127410663D01*
X134887035Y-127435772D01*
X134875634Y-127459878D01*
X134861924Y-127482752D01*
X134846038Y-127504171D01*
X134828130Y-127523930D01*
X134808371Y-127541838D01*
X134786952Y-127557724D01*
X134764078Y-127571434D01*
X134739972Y-127582835D01*
X134714863Y-127591819D01*
X134688995Y-127598299D01*
X134662617Y-127602212D01*
X134635982Y-127603520D01*
X133679458Y-127603520D01*
X133652823Y-127602212D01*
X133626445Y-127598299D01*
X133600577Y-127591819D01*
X133575468Y-127582835D01*
X133551362Y-127571434D01*
X133528488Y-127557724D01*
X133507069Y-127541838D01*
X133487310Y-127523930D01*
X133469402Y-127504171D01*
X133453516Y-127482752D01*
X133439806Y-127459878D01*
X133428405Y-127435772D01*
X133419421Y-127410663D01*
X133412941Y-127384795D01*
X133409028Y-127358417D01*
X133407720Y-127331782D01*
X133407720Y-126625258D01*
X133409028Y-126598623D01*
X133412941Y-126572245D01*
X133419421Y-126546377D01*
X133428405Y-126521268D01*
X133439806Y-126497162D01*
X133453516Y-126474288D01*
X133469402Y-126452869D01*
X133487310Y-126433110D01*
X133507069Y-126415202D01*
X133528488Y-126399316D01*
X133551362Y-126385606D01*
X133575468Y-126374205D01*
X133600577Y-126365221D01*
X133626445Y-126358741D01*
X133652823Y-126354828D01*
X133679458Y-126353520D01*
X134635982Y-126353520D01*
X134662617Y-126354828D01*
X134662617Y-126354828D01*
G37*
D29*
X134157720Y-126978520D03*
D18*
G36*
X134662617Y-124304828D02*
G01*
X134688995Y-124308741D01*
X134714863Y-124315221D01*
X134739972Y-124324205D01*
X134764078Y-124335606D01*
X134786952Y-124349316D01*
X134808371Y-124365202D01*
X134828130Y-124383110D01*
X134846038Y-124402869D01*
X134861924Y-124424288D01*
X134875634Y-124447162D01*
X134887035Y-124471268D01*
X134896019Y-124496377D01*
X134902499Y-124522245D01*
X134906412Y-124548623D01*
X134907720Y-124575258D01*
X134907720Y-125281782D01*
X134906412Y-125308417D01*
X134902499Y-125334795D01*
X134896019Y-125360663D01*
X134887035Y-125385772D01*
X134875634Y-125409878D01*
X134861924Y-125432752D01*
X134846038Y-125454171D01*
X134828130Y-125473930D01*
X134808371Y-125491838D01*
X134786952Y-125507724D01*
X134764078Y-125521434D01*
X134739972Y-125532835D01*
X134714863Y-125541819D01*
X134688995Y-125548299D01*
X134662617Y-125552212D01*
X134635982Y-125553520D01*
X133679458Y-125553520D01*
X133652823Y-125552212D01*
X133626445Y-125548299D01*
X133600577Y-125541819D01*
X133575468Y-125532835D01*
X133551362Y-125521434D01*
X133528488Y-125507724D01*
X133507069Y-125491838D01*
X133487310Y-125473930D01*
X133469402Y-125454171D01*
X133453516Y-125432752D01*
X133439806Y-125409878D01*
X133428405Y-125385772D01*
X133419421Y-125360663D01*
X133412941Y-125334795D01*
X133409028Y-125308417D01*
X133407720Y-125281782D01*
X133407720Y-124575258D01*
X133409028Y-124548623D01*
X133412941Y-124522245D01*
X133419421Y-124496377D01*
X133428405Y-124471268D01*
X133439806Y-124447162D01*
X133453516Y-124424288D01*
X133469402Y-124402869D01*
X133487310Y-124383110D01*
X133507069Y-124365202D01*
X133528488Y-124349316D01*
X133551362Y-124335606D01*
X133575468Y-124324205D01*
X133600577Y-124315221D01*
X133626445Y-124308741D01*
X133652823Y-124304828D01*
X133679458Y-124303520D01*
X134635982Y-124303520D01*
X134662617Y-124304828D01*
X134662617Y-124304828D01*
G37*
D29*
X134157720Y-124928520D03*
%TD*%
D18*
%TO.C,C14*%
G36*
X37212977Y-87975428D02*
G01*
X37239355Y-87979341D01*
X37265223Y-87985821D01*
X37290332Y-87994805D01*
X37314438Y-88006206D01*
X37337312Y-88019916D01*
X37358731Y-88035802D01*
X37378490Y-88053710D01*
X37396398Y-88073469D01*
X37412284Y-88094888D01*
X37425994Y-88117762D01*
X37437395Y-88141868D01*
X37446379Y-88166977D01*
X37452859Y-88192845D01*
X37456772Y-88219223D01*
X37458080Y-88245858D01*
X37458080Y-88952382D01*
X37456772Y-88979017D01*
X37452859Y-89005395D01*
X37446379Y-89031263D01*
X37437395Y-89056372D01*
X37425994Y-89080478D01*
X37412284Y-89103352D01*
X37396398Y-89124771D01*
X37378490Y-89144530D01*
X37358731Y-89162438D01*
X37337312Y-89178324D01*
X37314438Y-89192034D01*
X37290332Y-89203435D01*
X37265223Y-89212419D01*
X37239355Y-89218899D01*
X37212977Y-89222812D01*
X37186342Y-89224120D01*
X36229818Y-89224120D01*
X36203183Y-89222812D01*
X36176805Y-89218899D01*
X36150937Y-89212419D01*
X36125828Y-89203435D01*
X36101722Y-89192034D01*
X36078848Y-89178324D01*
X36057429Y-89162438D01*
X36037670Y-89144530D01*
X36019762Y-89124771D01*
X36003876Y-89103352D01*
X35990166Y-89080478D01*
X35978765Y-89056372D01*
X35969781Y-89031263D01*
X35963301Y-89005395D01*
X35959388Y-88979017D01*
X35958080Y-88952382D01*
X35958080Y-88245858D01*
X35959388Y-88219223D01*
X35963301Y-88192845D01*
X35969781Y-88166977D01*
X35978765Y-88141868D01*
X35990166Y-88117762D01*
X36003876Y-88094888D01*
X36019762Y-88073469D01*
X36037670Y-88053710D01*
X36057429Y-88035802D01*
X36078848Y-88019916D01*
X36101722Y-88006206D01*
X36125828Y-87994805D01*
X36150937Y-87985821D01*
X36176805Y-87979341D01*
X36203183Y-87975428D01*
X36229818Y-87974120D01*
X37186342Y-87974120D01*
X37212977Y-87975428D01*
X37212977Y-87975428D01*
G37*
D29*
X36708080Y-88599120D03*
D18*
G36*
X37212977Y-85925428D02*
G01*
X37239355Y-85929341D01*
X37265223Y-85935821D01*
X37290332Y-85944805D01*
X37314438Y-85956206D01*
X37337312Y-85969916D01*
X37358731Y-85985802D01*
X37378490Y-86003710D01*
X37396398Y-86023469D01*
X37412284Y-86044888D01*
X37425994Y-86067762D01*
X37437395Y-86091868D01*
X37446379Y-86116977D01*
X37452859Y-86142845D01*
X37456772Y-86169223D01*
X37458080Y-86195858D01*
X37458080Y-86902382D01*
X37456772Y-86929017D01*
X37452859Y-86955395D01*
X37446379Y-86981263D01*
X37437395Y-87006372D01*
X37425994Y-87030478D01*
X37412284Y-87053352D01*
X37396398Y-87074771D01*
X37378490Y-87094530D01*
X37358731Y-87112438D01*
X37337312Y-87128324D01*
X37314438Y-87142034D01*
X37290332Y-87153435D01*
X37265223Y-87162419D01*
X37239355Y-87168899D01*
X37212977Y-87172812D01*
X37186342Y-87174120D01*
X36229818Y-87174120D01*
X36203183Y-87172812D01*
X36176805Y-87168899D01*
X36150937Y-87162419D01*
X36125828Y-87153435D01*
X36101722Y-87142034D01*
X36078848Y-87128324D01*
X36057429Y-87112438D01*
X36037670Y-87094530D01*
X36019762Y-87074771D01*
X36003876Y-87053352D01*
X35990166Y-87030478D01*
X35978765Y-87006372D01*
X35969781Y-86981263D01*
X35963301Y-86955395D01*
X35959388Y-86929017D01*
X35958080Y-86902382D01*
X35958080Y-86195858D01*
X35959388Y-86169223D01*
X35963301Y-86142845D01*
X35969781Y-86116977D01*
X35978765Y-86091868D01*
X35990166Y-86067762D01*
X36003876Y-86044888D01*
X36019762Y-86023469D01*
X36037670Y-86003710D01*
X36057429Y-85985802D01*
X36078848Y-85969916D01*
X36101722Y-85956206D01*
X36125828Y-85944805D01*
X36150937Y-85935821D01*
X36176805Y-85929341D01*
X36203183Y-85925428D01*
X36229818Y-85924120D01*
X37186342Y-85924120D01*
X37212977Y-85925428D01*
X37212977Y-85925428D01*
G37*
D29*
X36708080Y-86549120D03*
%TD*%
D18*
%TO.C,C12*%
G36*
X130903417Y-146624028D02*
G01*
X130929795Y-146627941D01*
X130955663Y-146634421D01*
X130980772Y-146643405D01*
X131004878Y-146654806D01*
X131027752Y-146668516D01*
X131049171Y-146684402D01*
X131068930Y-146702310D01*
X131086838Y-146722069D01*
X131102724Y-146743488D01*
X131116434Y-146766362D01*
X131127835Y-146790468D01*
X131136819Y-146815577D01*
X131143299Y-146841445D01*
X131147212Y-146867823D01*
X131148520Y-146894458D01*
X131148520Y-147600982D01*
X131147212Y-147627617D01*
X131143299Y-147653995D01*
X131136819Y-147679863D01*
X131127835Y-147704972D01*
X131116434Y-147729078D01*
X131102724Y-147751952D01*
X131086838Y-147773371D01*
X131068930Y-147793130D01*
X131049171Y-147811038D01*
X131027752Y-147826924D01*
X131004878Y-147840634D01*
X130980772Y-147852035D01*
X130955663Y-147861019D01*
X130929795Y-147867499D01*
X130903417Y-147871412D01*
X130876782Y-147872720D01*
X129920258Y-147872720D01*
X129893623Y-147871412D01*
X129867245Y-147867499D01*
X129841377Y-147861019D01*
X129816268Y-147852035D01*
X129792162Y-147840634D01*
X129769288Y-147826924D01*
X129747869Y-147811038D01*
X129728110Y-147793130D01*
X129710202Y-147773371D01*
X129694316Y-147751952D01*
X129680606Y-147729078D01*
X129669205Y-147704972D01*
X129660221Y-147679863D01*
X129653741Y-147653995D01*
X129649828Y-147627617D01*
X129648520Y-147600982D01*
X129648520Y-146894458D01*
X129649828Y-146867823D01*
X129653741Y-146841445D01*
X129660221Y-146815577D01*
X129669205Y-146790468D01*
X129680606Y-146766362D01*
X129694316Y-146743488D01*
X129710202Y-146722069D01*
X129728110Y-146702310D01*
X129747869Y-146684402D01*
X129769288Y-146668516D01*
X129792162Y-146654806D01*
X129816268Y-146643405D01*
X129841377Y-146634421D01*
X129867245Y-146627941D01*
X129893623Y-146624028D01*
X129920258Y-146622720D01*
X130876782Y-146622720D01*
X130903417Y-146624028D01*
X130903417Y-146624028D01*
G37*
D29*
X130398520Y-147247720D03*
D18*
G36*
X130903417Y-144574028D02*
G01*
X130929795Y-144577941D01*
X130955663Y-144584421D01*
X130980772Y-144593405D01*
X131004878Y-144604806D01*
X131027752Y-144618516D01*
X131049171Y-144634402D01*
X131068930Y-144652310D01*
X131086838Y-144672069D01*
X131102724Y-144693488D01*
X131116434Y-144716362D01*
X131127835Y-144740468D01*
X131136819Y-144765577D01*
X131143299Y-144791445D01*
X131147212Y-144817823D01*
X131148520Y-144844458D01*
X131148520Y-145550982D01*
X131147212Y-145577617D01*
X131143299Y-145603995D01*
X131136819Y-145629863D01*
X131127835Y-145654972D01*
X131116434Y-145679078D01*
X131102724Y-145701952D01*
X131086838Y-145723371D01*
X131068930Y-145743130D01*
X131049171Y-145761038D01*
X131027752Y-145776924D01*
X131004878Y-145790634D01*
X130980772Y-145802035D01*
X130955663Y-145811019D01*
X130929795Y-145817499D01*
X130903417Y-145821412D01*
X130876782Y-145822720D01*
X129920258Y-145822720D01*
X129893623Y-145821412D01*
X129867245Y-145817499D01*
X129841377Y-145811019D01*
X129816268Y-145802035D01*
X129792162Y-145790634D01*
X129769288Y-145776924D01*
X129747869Y-145761038D01*
X129728110Y-145743130D01*
X129710202Y-145723371D01*
X129694316Y-145701952D01*
X129680606Y-145679078D01*
X129669205Y-145654972D01*
X129660221Y-145629863D01*
X129653741Y-145603995D01*
X129649828Y-145577617D01*
X129648520Y-145550982D01*
X129648520Y-144844458D01*
X129649828Y-144817823D01*
X129653741Y-144791445D01*
X129660221Y-144765577D01*
X129669205Y-144740468D01*
X129680606Y-144716362D01*
X129694316Y-144693488D01*
X129710202Y-144672069D01*
X129728110Y-144652310D01*
X129747869Y-144634402D01*
X129769288Y-144618516D01*
X129792162Y-144604806D01*
X129816268Y-144593405D01*
X129841377Y-144584421D01*
X129867245Y-144577941D01*
X129893623Y-144574028D01*
X129920258Y-144572720D01*
X130876782Y-144572720D01*
X130903417Y-144574028D01*
X130903417Y-144574028D01*
G37*
D29*
X130398520Y-145197720D03*
%TD*%
D18*
%TO.C,C11*%
G36*
X37212977Y-68671428D02*
G01*
X37239355Y-68675341D01*
X37265223Y-68681821D01*
X37290332Y-68690805D01*
X37314438Y-68702206D01*
X37337312Y-68715916D01*
X37358731Y-68731802D01*
X37378490Y-68749710D01*
X37396398Y-68769469D01*
X37412284Y-68790888D01*
X37425994Y-68813762D01*
X37437395Y-68837868D01*
X37446379Y-68862977D01*
X37452859Y-68888845D01*
X37456772Y-68915223D01*
X37458080Y-68941858D01*
X37458080Y-69648382D01*
X37456772Y-69675017D01*
X37452859Y-69701395D01*
X37446379Y-69727263D01*
X37437395Y-69752372D01*
X37425994Y-69776478D01*
X37412284Y-69799352D01*
X37396398Y-69820771D01*
X37378490Y-69840530D01*
X37358731Y-69858438D01*
X37337312Y-69874324D01*
X37314438Y-69888034D01*
X37290332Y-69899435D01*
X37265223Y-69908419D01*
X37239355Y-69914899D01*
X37212977Y-69918812D01*
X37186342Y-69920120D01*
X36229818Y-69920120D01*
X36203183Y-69918812D01*
X36176805Y-69914899D01*
X36150937Y-69908419D01*
X36125828Y-69899435D01*
X36101722Y-69888034D01*
X36078848Y-69874324D01*
X36057429Y-69858438D01*
X36037670Y-69840530D01*
X36019762Y-69820771D01*
X36003876Y-69799352D01*
X35990166Y-69776478D01*
X35978765Y-69752372D01*
X35969781Y-69727263D01*
X35963301Y-69701395D01*
X35959388Y-69675017D01*
X35958080Y-69648382D01*
X35958080Y-68941858D01*
X35959388Y-68915223D01*
X35963301Y-68888845D01*
X35969781Y-68862977D01*
X35978765Y-68837868D01*
X35990166Y-68813762D01*
X36003876Y-68790888D01*
X36019762Y-68769469D01*
X36037670Y-68749710D01*
X36057429Y-68731802D01*
X36078848Y-68715916D01*
X36101722Y-68702206D01*
X36125828Y-68690805D01*
X36150937Y-68681821D01*
X36176805Y-68675341D01*
X36203183Y-68671428D01*
X36229818Y-68670120D01*
X37186342Y-68670120D01*
X37212977Y-68671428D01*
X37212977Y-68671428D01*
G37*
D29*
X36708080Y-69295120D03*
D18*
G36*
X37212977Y-66621428D02*
G01*
X37239355Y-66625341D01*
X37265223Y-66631821D01*
X37290332Y-66640805D01*
X37314438Y-66652206D01*
X37337312Y-66665916D01*
X37358731Y-66681802D01*
X37378490Y-66699710D01*
X37396398Y-66719469D01*
X37412284Y-66740888D01*
X37425994Y-66763762D01*
X37437395Y-66787868D01*
X37446379Y-66812977D01*
X37452859Y-66838845D01*
X37456772Y-66865223D01*
X37458080Y-66891858D01*
X37458080Y-67598382D01*
X37456772Y-67625017D01*
X37452859Y-67651395D01*
X37446379Y-67677263D01*
X37437395Y-67702372D01*
X37425994Y-67726478D01*
X37412284Y-67749352D01*
X37396398Y-67770771D01*
X37378490Y-67790530D01*
X37358731Y-67808438D01*
X37337312Y-67824324D01*
X37314438Y-67838034D01*
X37290332Y-67849435D01*
X37265223Y-67858419D01*
X37239355Y-67864899D01*
X37212977Y-67868812D01*
X37186342Y-67870120D01*
X36229818Y-67870120D01*
X36203183Y-67868812D01*
X36176805Y-67864899D01*
X36150937Y-67858419D01*
X36125828Y-67849435D01*
X36101722Y-67838034D01*
X36078848Y-67824324D01*
X36057429Y-67808438D01*
X36037670Y-67790530D01*
X36019762Y-67770771D01*
X36003876Y-67749352D01*
X35990166Y-67726478D01*
X35978765Y-67702372D01*
X35969781Y-67677263D01*
X35963301Y-67651395D01*
X35959388Y-67625017D01*
X35958080Y-67598382D01*
X35958080Y-66891858D01*
X35959388Y-66865223D01*
X35963301Y-66838845D01*
X35969781Y-66812977D01*
X35978765Y-66787868D01*
X35990166Y-66763762D01*
X36003876Y-66740888D01*
X36019762Y-66719469D01*
X36037670Y-66699710D01*
X36057429Y-66681802D01*
X36078848Y-66665916D01*
X36101722Y-66652206D01*
X36125828Y-66640805D01*
X36150937Y-66631821D01*
X36176805Y-66625341D01*
X36203183Y-66621428D01*
X36229818Y-66620120D01*
X37186342Y-66620120D01*
X37212977Y-66621428D01*
X37212977Y-66621428D01*
G37*
D29*
X36708080Y-67245120D03*
%TD*%
D18*
%TO.C,C9*%
G36*
X107266177Y-146537668D02*
G01*
X107292555Y-146541581D01*
X107318423Y-146548061D01*
X107343532Y-146557045D01*
X107367638Y-146568446D01*
X107390512Y-146582156D01*
X107411931Y-146598042D01*
X107431690Y-146615950D01*
X107449598Y-146635709D01*
X107465484Y-146657128D01*
X107479194Y-146680002D01*
X107490595Y-146704108D01*
X107499579Y-146729217D01*
X107506059Y-146755085D01*
X107509972Y-146781463D01*
X107511280Y-146808098D01*
X107511280Y-147514622D01*
X107509972Y-147541257D01*
X107506059Y-147567635D01*
X107499579Y-147593503D01*
X107490595Y-147618612D01*
X107479194Y-147642718D01*
X107465484Y-147665592D01*
X107449598Y-147687011D01*
X107431690Y-147706770D01*
X107411931Y-147724678D01*
X107390512Y-147740564D01*
X107367638Y-147754274D01*
X107343532Y-147765675D01*
X107318423Y-147774659D01*
X107292555Y-147781139D01*
X107266177Y-147785052D01*
X107239542Y-147786360D01*
X106283018Y-147786360D01*
X106256383Y-147785052D01*
X106230005Y-147781139D01*
X106204137Y-147774659D01*
X106179028Y-147765675D01*
X106154922Y-147754274D01*
X106132048Y-147740564D01*
X106110629Y-147724678D01*
X106090870Y-147706770D01*
X106072962Y-147687011D01*
X106057076Y-147665592D01*
X106043366Y-147642718D01*
X106031965Y-147618612D01*
X106022981Y-147593503D01*
X106016501Y-147567635D01*
X106012588Y-147541257D01*
X106011280Y-147514622D01*
X106011280Y-146808098D01*
X106012588Y-146781463D01*
X106016501Y-146755085D01*
X106022981Y-146729217D01*
X106031965Y-146704108D01*
X106043366Y-146680002D01*
X106057076Y-146657128D01*
X106072962Y-146635709D01*
X106090870Y-146615950D01*
X106110629Y-146598042D01*
X106132048Y-146582156D01*
X106154922Y-146568446D01*
X106179028Y-146557045D01*
X106204137Y-146548061D01*
X106230005Y-146541581D01*
X106256383Y-146537668D01*
X106283018Y-146536360D01*
X107239542Y-146536360D01*
X107266177Y-146537668D01*
X107266177Y-146537668D01*
G37*
D29*
X106761280Y-147161360D03*
D18*
G36*
X107266177Y-144487668D02*
G01*
X107292555Y-144491581D01*
X107318423Y-144498061D01*
X107343532Y-144507045D01*
X107367638Y-144518446D01*
X107390512Y-144532156D01*
X107411931Y-144548042D01*
X107431690Y-144565950D01*
X107449598Y-144585709D01*
X107465484Y-144607128D01*
X107479194Y-144630002D01*
X107490595Y-144654108D01*
X107499579Y-144679217D01*
X107506059Y-144705085D01*
X107509972Y-144731463D01*
X107511280Y-144758098D01*
X107511280Y-145464622D01*
X107509972Y-145491257D01*
X107506059Y-145517635D01*
X107499579Y-145543503D01*
X107490595Y-145568612D01*
X107479194Y-145592718D01*
X107465484Y-145615592D01*
X107449598Y-145637011D01*
X107431690Y-145656770D01*
X107411931Y-145674678D01*
X107390512Y-145690564D01*
X107367638Y-145704274D01*
X107343532Y-145715675D01*
X107318423Y-145724659D01*
X107292555Y-145731139D01*
X107266177Y-145735052D01*
X107239542Y-145736360D01*
X106283018Y-145736360D01*
X106256383Y-145735052D01*
X106230005Y-145731139D01*
X106204137Y-145724659D01*
X106179028Y-145715675D01*
X106154922Y-145704274D01*
X106132048Y-145690564D01*
X106110629Y-145674678D01*
X106090870Y-145656770D01*
X106072962Y-145637011D01*
X106057076Y-145615592D01*
X106043366Y-145592718D01*
X106031965Y-145568612D01*
X106022981Y-145543503D01*
X106016501Y-145517635D01*
X106012588Y-145491257D01*
X106011280Y-145464622D01*
X106011280Y-144758098D01*
X106012588Y-144731463D01*
X106016501Y-144705085D01*
X106022981Y-144679217D01*
X106031965Y-144654108D01*
X106043366Y-144630002D01*
X106057076Y-144607128D01*
X106072962Y-144585709D01*
X106090870Y-144565950D01*
X106110629Y-144548042D01*
X106132048Y-144532156D01*
X106154922Y-144518446D01*
X106179028Y-144507045D01*
X106204137Y-144498061D01*
X106230005Y-144491581D01*
X106256383Y-144487668D01*
X106283018Y-144486360D01*
X107239542Y-144486360D01*
X107266177Y-144487668D01*
X107266177Y-144487668D01*
G37*
D29*
X106761280Y-145111360D03*
%TD*%
D18*
%TO.C,C8*%
G36*
X37218057Y-49587028D02*
G01*
X37244435Y-49590941D01*
X37270303Y-49597421D01*
X37295412Y-49606405D01*
X37319518Y-49617806D01*
X37342392Y-49631516D01*
X37363811Y-49647402D01*
X37383570Y-49665310D01*
X37401478Y-49685069D01*
X37417364Y-49706488D01*
X37431074Y-49729362D01*
X37442475Y-49753468D01*
X37451459Y-49778577D01*
X37457939Y-49804445D01*
X37461852Y-49830823D01*
X37463160Y-49857458D01*
X37463160Y-50563982D01*
X37461852Y-50590617D01*
X37457939Y-50616995D01*
X37451459Y-50642863D01*
X37442475Y-50667972D01*
X37431074Y-50692078D01*
X37417364Y-50714952D01*
X37401478Y-50736371D01*
X37383570Y-50756130D01*
X37363811Y-50774038D01*
X37342392Y-50789924D01*
X37319518Y-50803634D01*
X37295412Y-50815035D01*
X37270303Y-50824019D01*
X37244435Y-50830499D01*
X37218057Y-50834412D01*
X37191422Y-50835720D01*
X36234898Y-50835720D01*
X36208263Y-50834412D01*
X36181885Y-50830499D01*
X36156017Y-50824019D01*
X36130908Y-50815035D01*
X36106802Y-50803634D01*
X36083928Y-50789924D01*
X36062509Y-50774038D01*
X36042750Y-50756130D01*
X36024842Y-50736371D01*
X36008956Y-50714952D01*
X35995246Y-50692078D01*
X35983845Y-50667972D01*
X35974861Y-50642863D01*
X35968381Y-50616995D01*
X35964468Y-50590617D01*
X35963160Y-50563982D01*
X35963160Y-49857458D01*
X35964468Y-49830823D01*
X35968381Y-49804445D01*
X35974861Y-49778577D01*
X35983845Y-49753468D01*
X35995246Y-49729362D01*
X36008956Y-49706488D01*
X36024842Y-49685069D01*
X36042750Y-49665310D01*
X36062509Y-49647402D01*
X36083928Y-49631516D01*
X36106802Y-49617806D01*
X36130908Y-49606405D01*
X36156017Y-49597421D01*
X36181885Y-49590941D01*
X36208263Y-49587028D01*
X36234898Y-49585720D01*
X37191422Y-49585720D01*
X37218057Y-49587028D01*
X37218057Y-49587028D01*
G37*
D29*
X36713160Y-50210720D03*
D18*
G36*
X37218057Y-47537028D02*
G01*
X37244435Y-47540941D01*
X37270303Y-47547421D01*
X37295412Y-47556405D01*
X37319518Y-47567806D01*
X37342392Y-47581516D01*
X37363811Y-47597402D01*
X37383570Y-47615310D01*
X37401478Y-47635069D01*
X37417364Y-47656488D01*
X37431074Y-47679362D01*
X37442475Y-47703468D01*
X37451459Y-47728577D01*
X37457939Y-47754445D01*
X37461852Y-47780823D01*
X37463160Y-47807458D01*
X37463160Y-48513982D01*
X37461852Y-48540617D01*
X37457939Y-48566995D01*
X37451459Y-48592863D01*
X37442475Y-48617972D01*
X37431074Y-48642078D01*
X37417364Y-48664952D01*
X37401478Y-48686371D01*
X37383570Y-48706130D01*
X37363811Y-48724038D01*
X37342392Y-48739924D01*
X37319518Y-48753634D01*
X37295412Y-48765035D01*
X37270303Y-48774019D01*
X37244435Y-48780499D01*
X37218057Y-48784412D01*
X37191422Y-48785720D01*
X36234898Y-48785720D01*
X36208263Y-48784412D01*
X36181885Y-48780499D01*
X36156017Y-48774019D01*
X36130908Y-48765035D01*
X36106802Y-48753634D01*
X36083928Y-48739924D01*
X36062509Y-48724038D01*
X36042750Y-48706130D01*
X36024842Y-48686371D01*
X36008956Y-48664952D01*
X35995246Y-48642078D01*
X35983845Y-48617972D01*
X35974861Y-48592863D01*
X35968381Y-48566995D01*
X35964468Y-48540617D01*
X35963160Y-48513982D01*
X35963160Y-47807458D01*
X35964468Y-47780823D01*
X35968381Y-47754445D01*
X35974861Y-47728577D01*
X35983845Y-47703468D01*
X35995246Y-47679362D01*
X36008956Y-47656488D01*
X36024842Y-47635069D01*
X36042750Y-47615310D01*
X36062509Y-47597402D01*
X36083928Y-47581516D01*
X36106802Y-47567806D01*
X36130908Y-47556405D01*
X36156017Y-47547421D01*
X36181885Y-47540941D01*
X36208263Y-47537028D01*
X36234898Y-47535720D01*
X37191422Y-47535720D01*
X37218057Y-47537028D01*
X37218057Y-47537028D01*
G37*
D29*
X36713160Y-48160720D03*
%TD*%
D18*
%TO.C,C7*%
G36*
X134408617Y-34914828D02*
G01*
X134434995Y-34918741D01*
X134460863Y-34925221D01*
X134485972Y-34934205D01*
X134510078Y-34945606D01*
X134532952Y-34959316D01*
X134554371Y-34975202D01*
X134574130Y-34993110D01*
X134592038Y-35012869D01*
X134607924Y-35034288D01*
X134621634Y-35057162D01*
X134633035Y-35081268D01*
X134642019Y-35106377D01*
X134648499Y-35132245D01*
X134652412Y-35158623D01*
X134653720Y-35185258D01*
X134653720Y-35891782D01*
X134652412Y-35918417D01*
X134648499Y-35944795D01*
X134642019Y-35970663D01*
X134633035Y-35995772D01*
X134621634Y-36019878D01*
X134607924Y-36042752D01*
X134592038Y-36064171D01*
X134574130Y-36083930D01*
X134554371Y-36101838D01*
X134532952Y-36117724D01*
X134510078Y-36131434D01*
X134485972Y-36142835D01*
X134460863Y-36151819D01*
X134434995Y-36158299D01*
X134408617Y-36162212D01*
X134381982Y-36163520D01*
X133425458Y-36163520D01*
X133398823Y-36162212D01*
X133372445Y-36158299D01*
X133346577Y-36151819D01*
X133321468Y-36142835D01*
X133297362Y-36131434D01*
X133274488Y-36117724D01*
X133253069Y-36101838D01*
X133233310Y-36083930D01*
X133215402Y-36064171D01*
X133199516Y-36042752D01*
X133185806Y-36019878D01*
X133174405Y-35995772D01*
X133165421Y-35970663D01*
X133158941Y-35944795D01*
X133155028Y-35918417D01*
X133153720Y-35891782D01*
X133153720Y-35185258D01*
X133155028Y-35158623D01*
X133158941Y-35132245D01*
X133165421Y-35106377D01*
X133174405Y-35081268D01*
X133185806Y-35057162D01*
X133199516Y-35034288D01*
X133215402Y-35012869D01*
X133233310Y-34993110D01*
X133253069Y-34975202D01*
X133274488Y-34959316D01*
X133297362Y-34945606D01*
X133321468Y-34934205D01*
X133346577Y-34925221D01*
X133372445Y-34918741D01*
X133398823Y-34914828D01*
X133425458Y-34913520D01*
X134381982Y-34913520D01*
X134408617Y-34914828D01*
X134408617Y-34914828D01*
G37*
D29*
X133903720Y-35538520D03*
D18*
G36*
X134408617Y-32864828D02*
G01*
X134434995Y-32868741D01*
X134460863Y-32875221D01*
X134485972Y-32884205D01*
X134510078Y-32895606D01*
X134532952Y-32909316D01*
X134554371Y-32925202D01*
X134574130Y-32943110D01*
X134592038Y-32962869D01*
X134607924Y-32984288D01*
X134621634Y-33007162D01*
X134633035Y-33031268D01*
X134642019Y-33056377D01*
X134648499Y-33082245D01*
X134652412Y-33108623D01*
X134653720Y-33135258D01*
X134653720Y-33841782D01*
X134652412Y-33868417D01*
X134648499Y-33894795D01*
X134642019Y-33920663D01*
X134633035Y-33945772D01*
X134621634Y-33969878D01*
X134607924Y-33992752D01*
X134592038Y-34014171D01*
X134574130Y-34033930D01*
X134554371Y-34051838D01*
X134532952Y-34067724D01*
X134510078Y-34081434D01*
X134485972Y-34092835D01*
X134460863Y-34101819D01*
X134434995Y-34108299D01*
X134408617Y-34112212D01*
X134381982Y-34113520D01*
X133425458Y-34113520D01*
X133398823Y-34112212D01*
X133372445Y-34108299D01*
X133346577Y-34101819D01*
X133321468Y-34092835D01*
X133297362Y-34081434D01*
X133274488Y-34067724D01*
X133253069Y-34051838D01*
X133233310Y-34033930D01*
X133215402Y-34014171D01*
X133199516Y-33992752D01*
X133185806Y-33969878D01*
X133174405Y-33945772D01*
X133165421Y-33920663D01*
X133158941Y-33894795D01*
X133155028Y-33868417D01*
X133153720Y-33841782D01*
X133153720Y-33135258D01*
X133155028Y-33108623D01*
X133158941Y-33082245D01*
X133165421Y-33056377D01*
X133174405Y-33031268D01*
X133185806Y-33007162D01*
X133199516Y-32984288D01*
X133215402Y-32962869D01*
X133233310Y-32943110D01*
X133253069Y-32925202D01*
X133274488Y-32909316D01*
X133297362Y-32895606D01*
X133321468Y-32884205D01*
X133346577Y-32875221D01*
X133372445Y-32868741D01*
X133398823Y-32864828D01*
X133425458Y-32863520D01*
X134381982Y-32863520D01*
X134408617Y-32864828D01*
X134408617Y-32864828D01*
G37*
D29*
X133903720Y-33488520D03*
%TD*%
D18*
%TO.C,C6*%
G36*
X85676177Y-146537668D02*
G01*
X85702555Y-146541581D01*
X85728423Y-146548061D01*
X85753532Y-146557045D01*
X85777638Y-146568446D01*
X85800512Y-146582156D01*
X85821931Y-146598042D01*
X85841690Y-146615950D01*
X85859598Y-146635709D01*
X85875484Y-146657128D01*
X85889194Y-146680002D01*
X85900595Y-146704108D01*
X85909579Y-146729217D01*
X85916059Y-146755085D01*
X85919972Y-146781463D01*
X85921280Y-146808098D01*
X85921280Y-147514622D01*
X85919972Y-147541257D01*
X85916059Y-147567635D01*
X85909579Y-147593503D01*
X85900595Y-147618612D01*
X85889194Y-147642718D01*
X85875484Y-147665592D01*
X85859598Y-147687011D01*
X85841690Y-147706770D01*
X85821931Y-147724678D01*
X85800512Y-147740564D01*
X85777638Y-147754274D01*
X85753532Y-147765675D01*
X85728423Y-147774659D01*
X85702555Y-147781139D01*
X85676177Y-147785052D01*
X85649542Y-147786360D01*
X84693018Y-147786360D01*
X84666383Y-147785052D01*
X84640005Y-147781139D01*
X84614137Y-147774659D01*
X84589028Y-147765675D01*
X84564922Y-147754274D01*
X84542048Y-147740564D01*
X84520629Y-147724678D01*
X84500870Y-147706770D01*
X84482962Y-147687011D01*
X84467076Y-147665592D01*
X84453366Y-147642718D01*
X84441965Y-147618612D01*
X84432981Y-147593503D01*
X84426501Y-147567635D01*
X84422588Y-147541257D01*
X84421280Y-147514622D01*
X84421280Y-146808098D01*
X84422588Y-146781463D01*
X84426501Y-146755085D01*
X84432981Y-146729217D01*
X84441965Y-146704108D01*
X84453366Y-146680002D01*
X84467076Y-146657128D01*
X84482962Y-146635709D01*
X84500870Y-146615950D01*
X84520629Y-146598042D01*
X84542048Y-146582156D01*
X84564922Y-146568446D01*
X84589028Y-146557045D01*
X84614137Y-146548061D01*
X84640005Y-146541581D01*
X84666383Y-146537668D01*
X84693018Y-146536360D01*
X85649542Y-146536360D01*
X85676177Y-146537668D01*
X85676177Y-146537668D01*
G37*
D29*
X85171280Y-147161360D03*
D18*
G36*
X85676177Y-144487668D02*
G01*
X85702555Y-144491581D01*
X85728423Y-144498061D01*
X85753532Y-144507045D01*
X85777638Y-144518446D01*
X85800512Y-144532156D01*
X85821931Y-144548042D01*
X85841690Y-144565950D01*
X85859598Y-144585709D01*
X85875484Y-144607128D01*
X85889194Y-144630002D01*
X85900595Y-144654108D01*
X85909579Y-144679217D01*
X85916059Y-144705085D01*
X85919972Y-144731463D01*
X85921280Y-144758098D01*
X85921280Y-145464622D01*
X85919972Y-145491257D01*
X85916059Y-145517635D01*
X85909579Y-145543503D01*
X85900595Y-145568612D01*
X85889194Y-145592718D01*
X85875484Y-145615592D01*
X85859598Y-145637011D01*
X85841690Y-145656770D01*
X85821931Y-145674678D01*
X85800512Y-145690564D01*
X85777638Y-145704274D01*
X85753532Y-145715675D01*
X85728423Y-145724659D01*
X85702555Y-145731139D01*
X85676177Y-145735052D01*
X85649542Y-145736360D01*
X84693018Y-145736360D01*
X84666383Y-145735052D01*
X84640005Y-145731139D01*
X84614137Y-145724659D01*
X84589028Y-145715675D01*
X84564922Y-145704274D01*
X84542048Y-145690564D01*
X84520629Y-145674678D01*
X84500870Y-145656770D01*
X84482962Y-145637011D01*
X84467076Y-145615592D01*
X84453366Y-145592718D01*
X84441965Y-145568612D01*
X84432981Y-145543503D01*
X84426501Y-145517635D01*
X84422588Y-145491257D01*
X84421280Y-145464622D01*
X84421280Y-144758098D01*
X84422588Y-144731463D01*
X84426501Y-144705085D01*
X84432981Y-144679217D01*
X84441965Y-144654108D01*
X84453366Y-144630002D01*
X84467076Y-144607128D01*
X84482962Y-144585709D01*
X84500870Y-144565950D01*
X84520629Y-144548042D01*
X84542048Y-144532156D01*
X84564922Y-144518446D01*
X84589028Y-144507045D01*
X84614137Y-144498061D01*
X84640005Y-144491581D01*
X84666383Y-144487668D01*
X84693018Y-144486360D01*
X85649542Y-144486360D01*
X85676177Y-144487668D01*
X85676177Y-144487668D01*
G37*
D29*
X85171280Y-145111360D03*
%TD*%
D18*
%TO.C,C5*%
G36*
X37157097Y-34387668D02*
G01*
X37183475Y-34391581D01*
X37209343Y-34398061D01*
X37234452Y-34407045D01*
X37258558Y-34418446D01*
X37281432Y-34432156D01*
X37302851Y-34448042D01*
X37322610Y-34465950D01*
X37340518Y-34485709D01*
X37356404Y-34507128D01*
X37370114Y-34530002D01*
X37381515Y-34554108D01*
X37390499Y-34579217D01*
X37396979Y-34605085D01*
X37400892Y-34631463D01*
X37402200Y-34658098D01*
X37402200Y-35364622D01*
X37400892Y-35391257D01*
X37396979Y-35417635D01*
X37390499Y-35443503D01*
X37381515Y-35468612D01*
X37370114Y-35492718D01*
X37356404Y-35515592D01*
X37340518Y-35537011D01*
X37322610Y-35556770D01*
X37302851Y-35574678D01*
X37281432Y-35590564D01*
X37258558Y-35604274D01*
X37234452Y-35615675D01*
X37209343Y-35624659D01*
X37183475Y-35631139D01*
X37157097Y-35635052D01*
X37130462Y-35636360D01*
X36173938Y-35636360D01*
X36147303Y-35635052D01*
X36120925Y-35631139D01*
X36095057Y-35624659D01*
X36069948Y-35615675D01*
X36045842Y-35604274D01*
X36022968Y-35590564D01*
X36001549Y-35574678D01*
X35981790Y-35556770D01*
X35963882Y-35537011D01*
X35947996Y-35515592D01*
X35934286Y-35492718D01*
X35922885Y-35468612D01*
X35913901Y-35443503D01*
X35907421Y-35417635D01*
X35903508Y-35391257D01*
X35902200Y-35364622D01*
X35902200Y-34658098D01*
X35903508Y-34631463D01*
X35907421Y-34605085D01*
X35913901Y-34579217D01*
X35922885Y-34554108D01*
X35934286Y-34530002D01*
X35947996Y-34507128D01*
X35963882Y-34485709D01*
X35981790Y-34465950D01*
X36001549Y-34448042D01*
X36022968Y-34432156D01*
X36045842Y-34418446D01*
X36069948Y-34407045D01*
X36095057Y-34398061D01*
X36120925Y-34391581D01*
X36147303Y-34387668D01*
X36173938Y-34386360D01*
X37130462Y-34386360D01*
X37157097Y-34387668D01*
X37157097Y-34387668D01*
G37*
D29*
X36652200Y-35011360D03*
D18*
G36*
X37157097Y-32337668D02*
G01*
X37183475Y-32341581D01*
X37209343Y-32348061D01*
X37234452Y-32357045D01*
X37258558Y-32368446D01*
X37281432Y-32382156D01*
X37302851Y-32398042D01*
X37322610Y-32415950D01*
X37340518Y-32435709D01*
X37356404Y-32457128D01*
X37370114Y-32480002D01*
X37381515Y-32504108D01*
X37390499Y-32529217D01*
X37396979Y-32555085D01*
X37400892Y-32581463D01*
X37402200Y-32608098D01*
X37402200Y-33314622D01*
X37400892Y-33341257D01*
X37396979Y-33367635D01*
X37390499Y-33393503D01*
X37381515Y-33418612D01*
X37370114Y-33442718D01*
X37356404Y-33465592D01*
X37340518Y-33487011D01*
X37322610Y-33506770D01*
X37302851Y-33524678D01*
X37281432Y-33540564D01*
X37258558Y-33554274D01*
X37234452Y-33565675D01*
X37209343Y-33574659D01*
X37183475Y-33581139D01*
X37157097Y-33585052D01*
X37130462Y-33586360D01*
X36173938Y-33586360D01*
X36147303Y-33585052D01*
X36120925Y-33581139D01*
X36095057Y-33574659D01*
X36069948Y-33565675D01*
X36045842Y-33554274D01*
X36022968Y-33540564D01*
X36001549Y-33524678D01*
X35981790Y-33506770D01*
X35963882Y-33487011D01*
X35947996Y-33465592D01*
X35934286Y-33442718D01*
X35922885Y-33418612D01*
X35913901Y-33393503D01*
X35907421Y-33367635D01*
X35903508Y-33341257D01*
X35902200Y-33314622D01*
X35902200Y-32608098D01*
X35903508Y-32581463D01*
X35907421Y-32555085D01*
X35913901Y-32529217D01*
X35922885Y-32504108D01*
X35934286Y-32480002D01*
X35947996Y-32457128D01*
X35963882Y-32435709D01*
X35981790Y-32415950D01*
X36001549Y-32398042D01*
X36022968Y-32382156D01*
X36045842Y-32368446D01*
X36069948Y-32357045D01*
X36095057Y-32348061D01*
X36120925Y-32341581D01*
X36147303Y-32337668D01*
X36173938Y-32336360D01*
X37130462Y-32336360D01*
X37157097Y-32337668D01*
X37157097Y-32337668D01*
G37*
D29*
X36652200Y-32961360D03*
%TD*%
D18*
%TO.C,C2*%
G36*
X84422400Y-32041288D02*
G01*
X84448371Y-32045141D01*
X84473840Y-32051520D01*
X84498561Y-32060366D01*
X84522295Y-32071591D01*
X84544815Y-32085089D01*
X84565904Y-32100730D01*
X84585358Y-32118362D01*
X84602990Y-32137816D01*
X84618631Y-32158905D01*
X84632129Y-32181425D01*
X84643354Y-32205159D01*
X84652200Y-32229880D01*
X84658579Y-32255349D01*
X84662432Y-32281320D01*
X84663720Y-32307544D01*
X84663720Y-33297456D01*
X84662432Y-33323680D01*
X84658579Y-33349651D01*
X84652200Y-33375120D01*
X84643354Y-33399841D01*
X84632129Y-33423575D01*
X84618631Y-33446095D01*
X84602990Y-33467184D01*
X84585358Y-33486638D01*
X84565904Y-33504270D01*
X84544815Y-33519911D01*
X84522295Y-33533409D01*
X84498561Y-33544634D01*
X84473840Y-33553480D01*
X84448371Y-33559859D01*
X84422400Y-33563712D01*
X84396176Y-33565000D01*
X83081264Y-33565000D01*
X83055040Y-33563712D01*
X83029069Y-33559859D01*
X83003600Y-33553480D01*
X82978879Y-33544634D01*
X82955145Y-33533409D01*
X82932625Y-33519911D01*
X82911536Y-33504270D01*
X82892082Y-33486638D01*
X82874450Y-33467184D01*
X82858809Y-33446095D01*
X82845311Y-33423575D01*
X82834086Y-33399841D01*
X82825240Y-33375120D01*
X82818861Y-33349651D01*
X82815008Y-33323680D01*
X82813720Y-33297456D01*
X82813720Y-32307544D01*
X82815008Y-32281320D01*
X82818861Y-32255349D01*
X82825240Y-32229880D01*
X82834086Y-32205159D01*
X82845311Y-32181425D01*
X82858809Y-32158905D01*
X82874450Y-32137816D01*
X82892082Y-32118362D01*
X82911536Y-32100730D01*
X82932625Y-32085089D01*
X82955145Y-32071591D01*
X82978879Y-32060366D01*
X83003600Y-32051520D01*
X83029069Y-32045141D01*
X83055040Y-32041288D01*
X83081264Y-32040000D01*
X84396176Y-32040000D01*
X84422400Y-32041288D01*
X84422400Y-32041288D01*
G37*
D19*
X83738720Y-32802500D03*
D18*
G36*
X84422400Y-35016288D02*
G01*
X84448371Y-35020141D01*
X84473840Y-35026520D01*
X84498561Y-35035366D01*
X84522295Y-35046591D01*
X84544815Y-35060089D01*
X84565904Y-35075730D01*
X84585358Y-35093362D01*
X84602990Y-35112816D01*
X84618631Y-35133905D01*
X84632129Y-35156425D01*
X84643354Y-35180159D01*
X84652200Y-35204880D01*
X84658579Y-35230349D01*
X84662432Y-35256320D01*
X84663720Y-35282544D01*
X84663720Y-36272456D01*
X84662432Y-36298680D01*
X84658579Y-36324651D01*
X84652200Y-36350120D01*
X84643354Y-36374841D01*
X84632129Y-36398575D01*
X84618631Y-36421095D01*
X84602990Y-36442184D01*
X84585358Y-36461638D01*
X84565904Y-36479270D01*
X84544815Y-36494911D01*
X84522295Y-36508409D01*
X84498561Y-36519634D01*
X84473840Y-36528480D01*
X84448371Y-36534859D01*
X84422400Y-36538712D01*
X84396176Y-36540000D01*
X83081264Y-36540000D01*
X83055040Y-36538712D01*
X83029069Y-36534859D01*
X83003600Y-36528480D01*
X82978879Y-36519634D01*
X82955145Y-36508409D01*
X82932625Y-36494911D01*
X82911536Y-36479270D01*
X82892082Y-36461638D01*
X82874450Y-36442184D01*
X82858809Y-36421095D01*
X82845311Y-36398575D01*
X82834086Y-36374841D01*
X82825240Y-36350120D01*
X82818861Y-36324651D01*
X82815008Y-36298680D01*
X82813720Y-36272456D01*
X82813720Y-35282544D01*
X82815008Y-35256320D01*
X82818861Y-35230349D01*
X82825240Y-35204880D01*
X82834086Y-35180159D01*
X82845311Y-35156425D01*
X82858809Y-35133905D01*
X82874450Y-35112816D01*
X82892082Y-35093362D01*
X82911536Y-35075730D01*
X82932625Y-35060089D01*
X82955145Y-35046591D01*
X82978879Y-35035366D01*
X83003600Y-35026520D01*
X83029069Y-35020141D01*
X83055040Y-35016288D01*
X83081264Y-35015000D01*
X84396176Y-35015000D01*
X84422400Y-35016288D01*
X84422400Y-35016288D01*
G37*
D19*
X83738720Y-35777500D03*
%TD*%
D18*
%TO.C,C1*%
G36*
X86962400Y-32041288D02*
G01*
X86988371Y-32045141D01*
X87013840Y-32051520D01*
X87038561Y-32060366D01*
X87062295Y-32071591D01*
X87084815Y-32085089D01*
X87105904Y-32100730D01*
X87125358Y-32118362D01*
X87142990Y-32137816D01*
X87158631Y-32158905D01*
X87172129Y-32181425D01*
X87183354Y-32205159D01*
X87192200Y-32229880D01*
X87198579Y-32255349D01*
X87202432Y-32281320D01*
X87203720Y-32307544D01*
X87203720Y-33297456D01*
X87202432Y-33323680D01*
X87198579Y-33349651D01*
X87192200Y-33375120D01*
X87183354Y-33399841D01*
X87172129Y-33423575D01*
X87158631Y-33446095D01*
X87142990Y-33467184D01*
X87125358Y-33486638D01*
X87105904Y-33504270D01*
X87084815Y-33519911D01*
X87062295Y-33533409D01*
X87038561Y-33544634D01*
X87013840Y-33553480D01*
X86988371Y-33559859D01*
X86962400Y-33563712D01*
X86936176Y-33565000D01*
X85621264Y-33565000D01*
X85595040Y-33563712D01*
X85569069Y-33559859D01*
X85543600Y-33553480D01*
X85518879Y-33544634D01*
X85495145Y-33533409D01*
X85472625Y-33519911D01*
X85451536Y-33504270D01*
X85432082Y-33486638D01*
X85414450Y-33467184D01*
X85398809Y-33446095D01*
X85385311Y-33423575D01*
X85374086Y-33399841D01*
X85365240Y-33375120D01*
X85358861Y-33349651D01*
X85355008Y-33323680D01*
X85353720Y-33297456D01*
X85353720Y-32307544D01*
X85355008Y-32281320D01*
X85358861Y-32255349D01*
X85365240Y-32229880D01*
X85374086Y-32205159D01*
X85385311Y-32181425D01*
X85398809Y-32158905D01*
X85414450Y-32137816D01*
X85432082Y-32118362D01*
X85451536Y-32100730D01*
X85472625Y-32085089D01*
X85495145Y-32071591D01*
X85518879Y-32060366D01*
X85543600Y-32051520D01*
X85569069Y-32045141D01*
X85595040Y-32041288D01*
X85621264Y-32040000D01*
X86936176Y-32040000D01*
X86962400Y-32041288D01*
X86962400Y-32041288D01*
G37*
D19*
X86278720Y-32802500D03*
D18*
G36*
X86962400Y-35016288D02*
G01*
X86988371Y-35020141D01*
X87013840Y-35026520D01*
X87038561Y-35035366D01*
X87062295Y-35046591D01*
X87084815Y-35060089D01*
X87105904Y-35075730D01*
X87125358Y-35093362D01*
X87142990Y-35112816D01*
X87158631Y-35133905D01*
X87172129Y-35156425D01*
X87183354Y-35180159D01*
X87192200Y-35204880D01*
X87198579Y-35230349D01*
X87202432Y-35256320D01*
X87203720Y-35282544D01*
X87203720Y-36272456D01*
X87202432Y-36298680D01*
X87198579Y-36324651D01*
X87192200Y-36350120D01*
X87183354Y-36374841D01*
X87172129Y-36398575D01*
X87158631Y-36421095D01*
X87142990Y-36442184D01*
X87125358Y-36461638D01*
X87105904Y-36479270D01*
X87084815Y-36494911D01*
X87062295Y-36508409D01*
X87038561Y-36519634D01*
X87013840Y-36528480D01*
X86988371Y-36534859D01*
X86962400Y-36538712D01*
X86936176Y-36540000D01*
X85621264Y-36540000D01*
X85595040Y-36538712D01*
X85569069Y-36534859D01*
X85543600Y-36528480D01*
X85518879Y-36519634D01*
X85495145Y-36508409D01*
X85472625Y-36494911D01*
X85451536Y-36479270D01*
X85432082Y-36461638D01*
X85414450Y-36442184D01*
X85398809Y-36421095D01*
X85385311Y-36398575D01*
X85374086Y-36374841D01*
X85365240Y-36350120D01*
X85358861Y-36324651D01*
X85355008Y-36298680D01*
X85353720Y-36272456D01*
X85353720Y-35282544D01*
X85355008Y-35256320D01*
X85358861Y-35230349D01*
X85365240Y-35204880D01*
X85374086Y-35180159D01*
X85385311Y-35156425D01*
X85398809Y-35133905D01*
X85414450Y-35112816D01*
X85432082Y-35093362D01*
X85451536Y-35075730D01*
X85472625Y-35060089D01*
X85495145Y-35046591D01*
X85518879Y-35035366D01*
X85543600Y-35026520D01*
X85569069Y-35020141D01*
X85595040Y-35016288D01*
X85621264Y-35015000D01*
X86936176Y-35015000D01*
X86962400Y-35016288D01*
X86962400Y-35016288D01*
G37*
D19*
X86278720Y-35777500D03*
%TD*%
M02*
