%TF.GenerationSoftware,KiCad,Pcbnew,(5.1.0)-1*%
%TF.CreationDate,2020-09-20T18:29:26-04:00*%
%TF.ProjectId,BadgersHollowSchematic,42616467-6572-4734-986f-6c6c6f775363,rev?*%
%TF.SameCoordinates,Original*%
%TF.FileFunction,Legend,Bot*%
%TF.FilePolarity,Positive*%
%FSLAX46Y46*%
G04 Gerber Fmt 4.6, Leading zero omitted, Abs format (unit mm)*
G04 Created by KiCad (PCBNEW (5.1.0)-1) date 2020-09-20 18:29:26*
%MOMM*%
%LPD*%
G04 APERTURE LIST*
%ADD10C,0.150000*%
%ADD11C,0.120000*%
G04 APERTURE END LIST*
D10*
X107820908Y-105466571D02*
X107678051Y-105514190D01*
X107630432Y-105561809D01*
X107582813Y-105657047D01*
X107582813Y-105799904D01*
X107630432Y-105895142D01*
X107678051Y-105942761D01*
X107773289Y-105990380D01*
X108154241Y-105990380D01*
X108154241Y-104990380D01*
X107820908Y-104990380D01*
X107725670Y-105038000D01*
X107678051Y-105085619D01*
X107630432Y-105180857D01*
X107630432Y-105276095D01*
X107678051Y-105371333D01*
X107725670Y-105418952D01*
X107820908Y-105466571D01*
X108154241Y-105466571D01*
X106725670Y-105990380D02*
X106725670Y-105466571D01*
X106773289Y-105371333D01*
X106868527Y-105323714D01*
X107059003Y-105323714D01*
X107154241Y-105371333D01*
X106725670Y-105942761D02*
X106820908Y-105990380D01*
X107059003Y-105990380D01*
X107154241Y-105942761D01*
X107201860Y-105847523D01*
X107201860Y-105752285D01*
X107154241Y-105657047D01*
X107059003Y-105609428D01*
X106820908Y-105609428D01*
X106725670Y-105561809D01*
X105820908Y-105990380D02*
X105820908Y-104990380D01*
X105820908Y-105942761D02*
X105916146Y-105990380D01*
X106106622Y-105990380D01*
X106201860Y-105942761D01*
X106249480Y-105895142D01*
X106297099Y-105799904D01*
X106297099Y-105514190D01*
X106249480Y-105418952D01*
X106201860Y-105371333D01*
X106106622Y-105323714D01*
X105916146Y-105323714D01*
X105820908Y-105371333D01*
X104916146Y-105323714D02*
X104916146Y-106133238D01*
X104963765Y-106228476D01*
X105011384Y-106276095D01*
X105106622Y-106323714D01*
X105249480Y-106323714D01*
X105344718Y-106276095D01*
X104916146Y-105942761D02*
X105011384Y-105990380D01*
X105201860Y-105990380D01*
X105297099Y-105942761D01*
X105344718Y-105895142D01*
X105392337Y-105799904D01*
X105392337Y-105514190D01*
X105344718Y-105418952D01*
X105297099Y-105371333D01*
X105201860Y-105323714D01*
X105011384Y-105323714D01*
X104916146Y-105371333D01*
X104059003Y-105942761D02*
X104154241Y-105990380D01*
X104344718Y-105990380D01*
X104439956Y-105942761D01*
X104487575Y-105847523D01*
X104487575Y-105466571D01*
X104439956Y-105371333D01*
X104344718Y-105323714D01*
X104154241Y-105323714D01*
X104059003Y-105371333D01*
X104011384Y-105466571D01*
X104011384Y-105561809D01*
X104487575Y-105657047D01*
X103582813Y-105990380D02*
X103582813Y-105323714D01*
X103582813Y-105514190D02*
X103535194Y-105418952D01*
X103487575Y-105371333D01*
X103392337Y-105323714D01*
X103297099Y-105323714D01*
X103011384Y-105942761D02*
X102916146Y-105990380D01*
X102725670Y-105990380D01*
X102630432Y-105942761D01*
X102582813Y-105847523D01*
X102582813Y-105799904D01*
X102630432Y-105704666D01*
X102725670Y-105657047D01*
X102868527Y-105657047D01*
X102963765Y-105609428D01*
X103011384Y-105514190D01*
X103011384Y-105466571D01*
X102963765Y-105371333D01*
X102868527Y-105323714D01*
X102725670Y-105323714D01*
X102630432Y-105371333D01*
X101392337Y-105990380D02*
X101392337Y-104990380D01*
X101392337Y-105466571D02*
X100820908Y-105466571D01*
X100820908Y-105990380D02*
X100820908Y-104990380D01*
X100201860Y-105990380D02*
X100297099Y-105942761D01*
X100344718Y-105895142D01*
X100392337Y-105799904D01*
X100392337Y-105514190D01*
X100344718Y-105418952D01*
X100297099Y-105371333D01*
X100201860Y-105323714D01*
X100059003Y-105323714D01*
X99963765Y-105371333D01*
X99916146Y-105418952D01*
X99868527Y-105514190D01*
X99868527Y-105799904D01*
X99916146Y-105895142D01*
X99963765Y-105942761D01*
X100059003Y-105990380D01*
X100201860Y-105990380D01*
X99297099Y-105990380D02*
X99392337Y-105942761D01*
X99439956Y-105847523D01*
X99439956Y-104990380D01*
X98773289Y-105990380D02*
X98868527Y-105942761D01*
X98916146Y-105847523D01*
X98916146Y-104990380D01*
X98249480Y-105990380D02*
X98344718Y-105942761D01*
X98392337Y-105895142D01*
X98439956Y-105799904D01*
X98439956Y-105514190D01*
X98392337Y-105418952D01*
X98344718Y-105371333D01*
X98249480Y-105323714D01*
X98106622Y-105323714D01*
X98011384Y-105371333D01*
X97963765Y-105418952D01*
X97916146Y-105514190D01*
X97916146Y-105799904D01*
X97963765Y-105895142D01*
X98011384Y-105942761D01*
X98106622Y-105990380D01*
X98249480Y-105990380D01*
X97582813Y-105323714D02*
X97392337Y-105990380D01*
X97201860Y-105514190D01*
X97011384Y-105990380D01*
X96820908Y-105323714D01*
X95820908Y-104990380D02*
X95487575Y-105990380D01*
X95154241Y-104990380D01*
X94297099Y-105990380D02*
X94868527Y-105990380D01*
X94582813Y-105990380D02*
X94582813Y-104990380D01*
X94678051Y-105133238D01*
X94773289Y-105228476D01*
X94868527Y-105276095D01*
X105868527Y-107640380D02*
X105868527Y-106640380D01*
X105630432Y-106640380D01*
X105487575Y-106688000D01*
X105392337Y-106783238D01*
X105344718Y-106878476D01*
X105297099Y-107068952D01*
X105297099Y-107211809D01*
X105344718Y-107402285D01*
X105392337Y-107497523D01*
X105487575Y-107592761D01*
X105630432Y-107640380D01*
X105868527Y-107640380D01*
X104487575Y-107592761D02*
X104582813Y-107640380D01*
X104773289Y-107640380D01*
X104868527Y-107592761D01*
X104916146Y-107497523D01*
X104916146Y-107116571D01*
X104868527Y-107021333D01*
X104773289Y-106973714D01*
X104582813Y-106973714D01*
X104487575Y-107021333D01*
X104439956Y-107116571D01*
X104439956Y-107211809D01*
X104916146Y-107307047D01*
X104059003Y-107592761D02*
X103963765Y-107640380D01*
X103773289Y-107640380D01*
X103678051Y-107592761D01*
X103630432Y-107497523D01*
X103630432Y-107449904D01*
X103678051Y-107354666D01*
X103773289Y-107307047D01*
X103916146Y-107307047D01*
X104011384Y-107259428D01*
X104059003Y-107164190D01*
X104059003Y-107116571D01*
X104011384Y-107021333D01*
X103916146Y-106973714D01*
X103773289Y-106973714D01*
X103678051Y-107021333D01*
X103201860Y-107640380D02*
X103201860Y-106973714D01*
X103201860Y-106640380D02*
X103249480Y-106688000D01*
X103201860Y-106735619D01*
X103154241Y-106688000D01*
X103201860Y-106640380D01*
X103201860Y-106735619D01*
X102297099Y-106973714D02*
X102297099Y-107783238D01*
X102344718Y-107878476D01*
X102392337Y-107926095D01*
X102487575Y-107973714D01*
X102630432Y-107973714D01*
X102725670Y-107926095D01*
X102297099Y-107592761D02*
X102392337Y-107640380D01*
X102582813Y-107640380D01*
X102678051Y-107592761D01*
X102725670Y-107545142D01*
X102773289Y-107449904D01*
X102773289Y-107164190D01*
X102725670Y-107068952D01*
X102678051Y-107021333D01*
X102582813Y-106973714D01*
X102392337Y-106973714D01*
X102297099Y-107021333D01*
X101820908Y-106973714D02*
X101820908Y-107640380D01*
X101820908Y-107068952D02*
X101773289Y-107021333D01*
X101678051Y-106973714D01*
X101535194Y-106973714D01*
X101439956Y-107021333D01*
X101392337Y-107116571D01*
X101392337Y-107640380D01*
X100535194Y-107592761D02*
X100630432Y-107640380D01*
X100820908Y-107640380D01*
X100916146Y-107592761D01*
X100963765Y-107497523D01*
X100963765Y-107116571D01*
X100916146Y-107021333D01*
X100820908Y-106973714D01*
X100630432Y-106973714D01*
X100535194Y-107021333D01*
X100487575Y-107116571D01*
X100487575Y-107211809D01*
X100963765Y-107307047D01*
X99630432Y-107640380D02*
X99630432Y-106640380D01*
X99630432Y-107592761D02*
X99725670Y-107640380D01*
X99916146Y-107640380D01*
X100011384Y-107592761D01*
X100059003Y-107545142D01*
X100106622Y-107449904D01*
X100106622Y-107164190D01*
X100059003Y-107068952D01*
X100011384Y-107021333D01*
X99916146Y-106973714D01*
X99725670Y-106973714D01*
X99630432Y-107021333D01*
X98059003Y-107116571D02*
X97916146Y-107164190D01*
X97868527Y-107211809D01*
X97820908Y-107307047D01*
X97820908Y-107449904D01*
X97868527Y-107545142D01*
X97916146Y-107592761D01*
X98011384Y-107640380D01*
X98392337Y-107640380D01*
X98392337Y-106640380D01*
X98059003Y-106640380D01*
X97963765Y-106688000D01*
X97916146Y-106735619D01*
X97868527Y-106830857D01*
X97868527Y-106926095D01*
X97916146Y-107021333D01*
X97963765Y-107068952D01*
X98059003Y-107116571D01*
X98392337Y-107116571D01*
X97487575Y-106973714D02*
X97249480Y-107640380D01*
X97011384Y-106973714D02*
X97249480Y-107640380D01*
X97344718Y-107878476D01*
X97392337Y-107926095D01*
X97487575Y-107973714D01*
X96630432Y-107545142D02*
X96582813Y-107592761D01*
X96630432Y-107640380D01*
X96678051Y-107592761D01*
X96630432Y-107545142D01*
X96630432Y-107640380D01*
X96630432Y-107021333D02*
X96582813Y-107068952D01*
X96630432Y-107116571D01*
X96678051Y-107068952D01*
X96630432Y-107021333D01*
X96630432Y-107116571D01*
X108059003Y-109242761D02*
X107916146Y-109290380D01*
X107678051Y-109290380D01*
X107582813Y-109242761D01*
X107535194Y-109195142D01*
X107487575Y-109099904D01*
X107487575Y-109004666D01*
X107535194Y-108909428D01*
X107582813Y-108861809D01*
X107678051Y-108814190D01*
X107868527Y-108766571D01*
X107963765Y-108718952D01*
X108011384Y-108671333D01*
X108059003Y-108576095D01*
X108059003Y-108480857D01*
X108011384Y-108385619D01*
X107963765Y-108338000D01*
X107868527Y-108290380D01*
X107630432Y-108290380D01*
X107487575Y-108338000D01*
X107059003Y-108623714D02*
X107059003Y-109623714D01*
X107059003Y-108671333D02*
X106963765Y-108623714D01*
X106773289Y-108623714D01*
X106678051Y-108671333D01*
X106630432Y-108718952D01*
X106582813Y-108814190D01*
X106582813Y-109099904D01*
X106630432Y-109195142D01*
X106678051Y-109242761D01*
X106773289Y-109290380D01*
X106963765Y-109290380D01*
X107059003Y-109242761D01*
X105773289Y-109242761D02*
X105868527Y-109290380D01*
X106059003Y-109290380D01*
X106154241Y-109242761D01*
X106201860Y-109147523D01*
X106201860Y-108766571D01*
X106154241Y-108671333D01*
X106059003Y-108623714D01*
X105868527Y-108623714D01*
X105773289Y-108671333D01*
X105725670Y-108766571D01*
X105725670Y-108861809D01*
X106201860Y-108957047D01*
X105297099Y-108623714D02*
X105297099Y-109290380D01*
X105297099Y-108718952D02*
X105249480Y-108671333D01*
X105154241Y-108623714D01*
X105011384Y-108623714D01*
X104916146Y-108671333D01*
X104868527Y-108766571D01*
X104868527Y-109290380D01*
X103963765Y-109242761D02*
X104059003Y-109290380D01*
X104249480Y-109290380D01*
X104344718Y-109242761D01*
X104392337Y-109195142D01*
X104439956Y-109099904D01*
X104439956Y-108814190D01*
X104392337Y-108718952D01*
X104344718Y-108671333D01*
X104249480Y-108623714D01*
X104059003Y-108623714D01*
X103963765Y-108671333D01*
X103154241Y-109242761D02*
X103249480Y-109290380D01*
X103439956Y-109290380D01*
X103535194Y-109242761D01*
X103582813Y-109147523D01*
X103582813Y-108766571D01*
X103535194Y-108671333D01*
X103439956Y-108623714D01*
X103249480Y-108623714D01*
X103154241Y-108671333D01*
X103106622Y-108766571D01*
X103106622Y-108861809D01*
X103582813Y-108957047D01*
X102678051Y-109290380D02*
X102678051Y-108623714D01*
X102678051Y-108814190D02*
X102630432Y-108718952D01*
X102582813Y-108671333D01*
X102487575Y-108623714D01*
X102392337Y-108623714D01*
X100820908Y-109290380D02*
X101297099Y-109290380D01*
X101297099Y-108290380D01*
X100344718Y-109290380D02*
X100439956Y-109242761D01*
X100487575Y-109195142D01*
X100535194Y-109099904D01*
X100535194Y-108814190D01*
X100487575Y-108718952D01*
X100439956Y-108671333D01*
X100344718Y-108623714D01*
X100201860Y-108623714D01*
X100106622Y-108671333D01*
X100059003Y-108718952D01*
X100011384Y-108814190D01*
X100011384Y-109099904D01*
X100059003Y-109195142D01*
X100106622Y-109242761D01*
X100201860Y-109290380D01*
X100344718Y-109290380D01*
X99582813Y-109290380D02*
X99582813Y-108623714D01*
X99582813Y-108718952D02*
X99535194Y-108671333D01*
X99439956Y-108623714D01*
X99297099Y-108623714D01*
X99201860Y-108671333D01*
X99154241Y-108766571D01*
X99154241Y-109290380D01*
X99154241Y-108766571D02*
X99106622Y-108671333D01*
X99011384Y-108623714D01*
X98868527Y-108623714D01*
X98773289Y-108671333D01*
X98725670Y-108766571D01*
X98725670Y-109290380D01*
X98249480Y-109290380D02*
X98249480Y-108290380D01*
X98249480Y-108671333D02*
X98154241Y-108623714D01*
X97963765Y-108623714D01*
X97868527Y-108671333D01*
X97820908Y-108718952D01*
X97773289Y-108814190D01*
X97773289Y-109099904D01*
X97820908Y-109195142D01*
X97868527Y-109242761D01*
X97963765Y-109290380D01*
X98154241Y-109290380D01*
X98249480Y-109242761D01*
X96916146Y-109290380D02*
X96916146Y-108766571D01*
X96963765Y-108671333D01*
X97059003Y-108623714D01*
X97249480Y-108623714D01*
X97344718Y-108671333D01*
X96916146Y-109242761D02*
X97011384Y-109290380D01*
X97249480Y-109290380D01*
X97344718Y-109242761D01*
X97392337Y-109147523D01*
X97392337Y-109052285D01*
X97344718Y-108957047D01*
X97249480Y-108909428D01*
X97011384Y-108909428D01*
X96916146Y-108861809D01*
X96439956Y-109290380D02*
X96439956Y-108623714D01*
X96439956Y-108814190D02*
X96392337Y-108718952D01*
X96344718Y-108671333D01*
X96249480Y-108623714D01*
X96154241Y-108623714D01*
X95392337Y-109290380D02*
X95392337Y-108290380D01*
X95392337Y-109242761D02*
X95487575Y-109290380D01*
X95678051Y-109290380D01*
X95773289Y-109242761D01*
X95820908Y-109195142D01*
X95868527Y-109099904D01*
X95868527Y-108814190D01*
X95820908Y-108718952D01*
X95773289Y-108671333D01*
X95678051Y-108623714D01*
X95487575Y-108623714D01*
X95392337Y-108671333D01*
X94773289Y-109290380D02*
X94868527Y-109242761D01*
X94916146Y-109195142D01*
X94963765Y-109099904D01*
X94963765Y-108814190D01*
X94916146Y-108718952D01*
X94868527Y-108671333D01*
X94773289Y-108623714D01*
X94630432Y-108623714D01*
X94535194Y-108671333D01*
X94487575Y-108718952D01*
X94439956Y-108814190D01*
X94439956Y-109099904D01*
X94487575Y-109195142D01*
X94535194Y-109242761D01*
X94630432Y-109290380D01*
X94773289Y-109290380D01*
D11*
%TO.C,R3*%
X40220816Y-39675480D02*
X41424944Y-39675480D01*
X40220816Y-37855480D02*
X41424944Y-37855480D01*
%TO.C,R2*%
X40143676Y-42179920D02*
X41347804Y-42179920D01*
X40143676Y-40359920D02*
X41347804Y-40359920D01*
%TO.C,R1*%
X111871080Y-31767696D02*
X111871080Y-32971824D01*
X113691080Y-31767696D02*
X113691080Y-32971824D01*
%TO.C,D45*%
X132981720Y-31763520D02*
X125681720Y-31763520D01*
X132981720Y-37263520D02*
X125681720Y-37263520D01*
X125681720Y-37263520D02*
X125681720Y-36113520D01*
%TO.C,D44*%
X133235720Y-47003520D02*
X125935720Y-47003520D01*
X133235720Y-52503520D02*
X125935720Y-52503520D01*
X125935720Y-52503520D02*
X125935720Y-51353520D01*
%TO.C,D43*%
X133235720Y-66053520D02*
X125935720Y-66053520D01*
X133235720Y-71553520D02*
X125935720Y-71553520D01*
X125935720Y-71553520D02*
X125935720Y-70403520D01*
%TO.C,D42*%
X132981720Y-85103520D02*
X125681720Y-85103520D01*
X132981720Y-90603520D02*
X125681720Y-90603520D01*
X125681720Y-90603520D02*
X125681720Y-89453520D01*
%TO.C,D41*%
X133235720Y-104153520D02*
X125935720Y-104153520D01*
X133235720Y-109653520D02*
X125935720Y-109653520D01*
X125935720Y-109653520D02*
X125935720Y-108503520D01*
%TO.C,D40*%
X133235720Y-123203520D02*
X125935720Y-123203520D01*
X133235720Y-128703520D02*
X125935720Y-128703520D01*
X125935720Y-128703520D02*
X125935720Y-127553520D01*
%TO.C,D39*%
X129207280Y-143386360D02*
X121907280Y-143386360D01*
X129207280Y-148886360D02*
X121907280Y-148886360D01*
X121907280Y-148886360D02*
X121907280Y-147736360D01*
%TO.C,D38*%
X105839280Y-143386360D02*
X98539280Y-143386360D01*
X105839280Y-148886360D02*
X98539280Y-148886360D01*
X98539280Y-148886360D02*
X98539280Y-147736360D01*
%TO.C,D37*%
X84249280Y-143386360D02*
X76949280Y-143386360D01*
X84249280Y-148886360D02*
X76949280Y-148886360D01*
X76949280Y-148886360D02*
X76949280Y-147736360D01*
%TO.C,D36*%
X61897280Y-143386360D02*
X54597280Y-143386360D01*
X61897280Y-148886360D02*
X54597280Y-148886360D01*
X54597280Y-148886360D02*
X54597280Y-147736360D01*
%TO.C,D35*%
X41069280Y-143386360D02*
X33769280Y-143386360D01*
X41069280Y-148886360D02*
X33769280Y-148886360D01*
X33769280Y-148886360D02*
X33769280Y-147736360D01*
%TO.C,D34*%
X35786080Y-122924120D02*
X28486080Y-122924120D01*
X35786080Y-128424120D02*
X28486080Y-128424120D01*
X28486080Y-128424120D02*
X28486080Y-127274120D01*
%TO.C,D33*%
X35786080Y-103874120D02*
X28486080Y-103874120D01*
X35786080Y-109374120D02*
X28486080Y-109374120D01*
X28486080Y-109374120D02*
X28486080Y-108224120D01*
%TO.C,D32*%
X35786080Y-84824120D02*
X28486080Y-84824120D01*
X35786080Y-90324120D02*
X28486080Y-90324120D01*
X28486080Y-90324120D02*
X28486080Y-89174120D01*
%TO.C,D31*%
X35786080Y-65774120D02*
X28486080Y-65774120D01*
X35786080Y-71274120D02*
X28486080Y-71274120D01*
X28486080Y-71274120D02*
X28486080Y-70124120D01*
%TO.C,D30*%
X35786080Y-46648120D02*
X28486080Y-46648120D01*
X35786080Y-52148120D02*
X28486080Y-52148120D01*
X28486080Y-52148120D02*
X28486080Y-50998120D01*
%TO.C,D29*%
X35786080Y-31230120D02*
X28486080Y-31230120D01*
X35786080Y-36730120D02*
X28486080Y-36730120D01*
X28486080Y-36730120D02*
X28486080Y-35580120D01*
%TO.C,D28*%
X89540000Y-43014000D02*
X89540000Y-41314000D01*
X89540000Y-41314000D02*
X92690000Y-41314000D01*
X89540000Y-43014000D02*
X92690000Y-43014000D01*
%TO.C,D27*%
X119512000Y-141566000D02*
X119512000Y-139866000D01*
X119512000Y-139866000D02*
X122662000Y-139866000D01*
X119512000Y-141566000D02*
X122662000Y-141566000D01*
%TO.C,D26*%
X81412000Y-141566000D02*
X81412000Y-139866000D01*
X81412000Y-139866000D02*
X84562000Y-139866000D01*
X81412000Y-141566000D02*
X84562000Y-141566000D01*
%TO.C,D25*%
X62342000Y-141566000D02*
X62342000Y-139866000D01*
X62342000Y-139866000D02*
X65492000Y-139866000D01*
X62342000Y-141566000D02*
X65492000Y-141566000D01*
%TO.C,D24*%
X43312000Y-141566000D02*
X43312000Y-139866000D01*
X43312000Y-139866000D02*
X46462000Y-139866000D01*
X43312000Y-141566000D02*
X46462000Y-141566000D01*
%TO.C,D23*%
X119512000Y-122770000D02*
X119512000Y-121070000D01*
X119512000Y-121070000D02*
X122662000Y-121070000D01*
X119512000Y-122770000D02*
X122662000Y-122770000D01*
%TO.C,D22*%
X100208000Y-132422000D02*
X100208000Y-130722000D01*
X100208000Y-130722000D02*
X103358000Y-130722000D01*
X100208000Y-132422000D02*
X103358000Y-132422000D01*
%TO.C,D21*%
X81412000Y-122770000D02*
X81412000Y-121070000D01*
X81412000Y-121070000D02*
X84562000Y-121070000D01*
X81412000Y-122770000D02*
X84562000Y-122770000D01*
%TO.C,D20*%
X62108000Y-122770000D02*
X62108000Y-121070000D01*
X62108000Y-121070000D02*
X65258000Y-121070000D01*
X62108000Y-122770000D02*
X65258000Y-122770000D01*
%TO.C,D19*%
X43312000Y-122770000D02*
X43312000Y-121070000D01*
X43312000Y-121070000D02*
X46462000Y-121070000D01*
X43312000Y-122770000D02*
X46462000Y-122770000D01*
%TO.C,D18*%
X119512000Y-103254000D02*
X119512000Y-101554000D01*
X119512000Y-101554000D02*
X122662000Y-101554000D01*
X119512000Y-103254000D02*
X122662000Y-103254000D01*
%TO.C,D16*%
X81412000Y-103466000D02*
X81412000Y-101766000D01*
X81412000Y-101766000D02*
X84562000Y-101766000D01*
X81412000Y-103466000D02*
X84562000Y-103466000D01*
%TO.C,D15*%
X62108000Y-103466000D02*
X62108000Y-101766000D01*
X62108000Y-101766000D02*
X65258000Y-101766000D01*
X62108000Y-103466000D02*
X65258000Y-103466000D01*
%TO.C,D14*%
X43312000Y-103466000D02*
X43312000Y-101766000D01*
X43312000Y-101766000D02*
X46462000Y-101766000D01*
X43312000Y-103466000D02*
X46462000Y-103466000D01*
%TO.C,D13*%
X119512000Y-84670000D02*
X119512000Y-82970000D01*
X119512000Y-82970000D02*
X122662000Y-82970000D01*
X119512000Y-84670000D02*
X122662000Y-84670000D01*
%TO.C,D12*%
X100208000Y-94322000D02*
X100208000Y-92622000D01*
X100208000Y-92622000D02*
X103358000Y-92622000D01*
X100208000Y-94322000D02*
X103358000Y-94322000D01*
%TO.C,D11*%
X81412000Y-84162000D02*
X81412000Y-82462000D01*
X81412000Y-82462000D02*
X84562000Y-82462000D01*
X81412000Y-84162000D02*
X84562000Y-84162000D01*
%TO.C,D10*%
X62616000Y-84162000D02*
X62616000Y-82462000D01*
X62616000Y-82462000D02*
X65766000Y-82462000D01*
X62616000Y-84162000D02*
X65766000Y-84162000D01*
%TO.C,D9*%
X43312000Y-84162000D02*
X43312000Y-82462000D01*
X43312000Y-82462000D02*
X46462000Y-82462000D01*
X43312000Y-84162000D02*
X46462000Y-84162000D01*
%TO.C,D8*%
X120020000Y-65366000D02*
X120020000Y-63666000D01*
X120020000Y-63666000D02*
X123170000Y-63666000D01*
X120020000Y-65366000D02*
X123170000Y-65366000D01*
%TO.C,D7*%
X100716000Y-65366000D02*
X100716000Y-63666000D01*
X100716000Y-63666000D02*
X103866000Y-63666000D01*
X100716000Y-65366000D02*
X103866000Y-65366000D01*
%TO.C,D6*%
X81412000Y-65366000D02*
X81412000Y-63666000D01*
X81412000Y-63666000D02*
X84562000Y-63666000D01*
X81412000Y-65366000D02*
X84562000Y-65366000D01*
%TO.C,D5*%
X62342000Y-65366000D02*
X62342000Y-63666000D01*
X62342000Y-63666000D02*
X65492000Y-63666000D01*
X62342000Y-65366000D02*
X65492000Y-65366000D01*
%TO.C,D4*%
X43312000Y-65366000D02*
X43312000Y-63666000D01*
X43312000Y-63666000D02*
X46462000Y-63666000D01*
X43312000Y-65366000D02*
X46462000Y-65366000D01*
%TO.C,C27*%
X133447720Y-49492268D02*
X133447720Y-50014772D01*
X134867720Y-49492268D02*
X134867720Y-50014772D01*
%TO.C,C26*%
X62109280Y-145875108D02*
X62109280Y-146397612D01*
X63529280Y-145875108D02*
X63529280Y-146397612D01*
%TO.C,C24*%
X133447720Y-68542268D02*
X133447720Y-69064772D01*
X134867720Y-68542268D02*
X134867720Y-69064772D01*
%TO.C,C23*%
X41281280Y-145875108D02*
X41281280Y-146397612D01*
X42701280Y-145875108D02*
X42701280Y-146397612D01*
%TO.C,C21*%
X133193720Y-87592268D02*
X133193720Y-88114772D01*
X134613720Y-87592268D02*
X134613720Y-88114772D01*
%TO.C,C20*%
X35998080Y-125412868D02*
X35998080Y-125935372D01*
X37418080Y-125412868D02*
X37418080Y-125935372D01*
%TO.C,C18*%
X133447720Y-106642268D02*
X133447720Y-107164772D01*
X134867720Y-106642268D02*
X134867720Y-107164772D01*
%TO.C,C17*%
X35998080Y-106362868D02*
X35998080Y-106885372D01*
X37418080Y-106362868D02*
X37418080Y-106885372D01*
%TO.C,C15*%
X133447720Y-125692268D02*
X133447720Y-126214772D01*
X134867720Y-125692268D02*
X134867720Y-126214772D01*
%TO.C,C14*%
X35998080Y-87312868D02*
X35998080Y-87835372D01*
X37418080Y-87312868D02*
X37418080Y-87835372D01*
%TO.C,C12*%
X129688520Y-145961468D02*
X129688520Y-146483972D01*
X131108520Y-145961468D02*
X131108520Y-146483972D01*
%TO.C,C11*%
X35998080Y-68008868D02*
X35998080Y-68531372D01*
X37418080Y-68008868D02*
X37418080Y-68531372D01*
%TO.C,C9*%
X106051280Y-145875108D02*
X106051280Y-146397612D01*
X107471280Y-145875108D02*
X107471280Y-146397612D01*
%TO.C,C8*%
X36003160Y-48924468D02*
X36003160Y-49446972D01*
X37423160Y-48924468D02*
X37423160Y-49446972D01*
%TO.C,C7*%
X133193720Y-34252268D02*
X133193720Y-34774772D01*
X134613720Y-34252268D02*
X134613720Y-34774772D01*
%TO.C,C6*%
X84461280Y-145875108D02*
X84461280Y-146397612D01*
X85881280Y-145875108D02*
X85881280Y-146397612D01*
%TO.C,C5*%
X35942200Y-33725108D02*
X35942200Y-34247612D01*
X37362200Y-33725108D02*
X37362200Y-34247612D01*
%TO.C,C2*%
X84648720Y-34892064D02*
X84648720Y-33687936D01*
X82828720Y-34892064D02*
X82828720Y-33687936D01*
%TO.C,C1*%
X87188720Y-34892064D02*
X87188720Y-33687936D01*
X85368720Y-34892064D02*
X85368720Y-33687936D01*
%TO.C,R3*%
D10*
X40989546Y-41037860D02*
X41322880Y-40561670D01*
X41560975Y-41037860D02*
X41560975Y-40037860D01*
X41180022Y-40037860D01*
X41084784Y-40085480D01*
X41037165Y-40133099D01*
X40989546Y-40228337D01*
X40989546Y-40371194D01*
X41037165Y-40466432D01*
X41084784Y-40514051D01*
X41180022Y-40561670D01*
X41560975Y-40561670D01*
X40656213Y-40037860D02*
X40037165Y-40037860D01*
X40370499Y-40418813D01*
X40227641Y-40418813D01*
X40132403Y-40466432D01*
X40084784Y-40514051D01*
X40037165Y-40609289D01*
X40037165Y-40847384D01*
X40084784Y-40942622D01*
X40132403Y-40990241D01*
X40227641Y-41037860D01*
X40513356Y-41037860D01*
X40608594Y-40990241D01*
X40656213Y-40942622D01*
%TO.C,R2*%
X40912406Y-43542300D02*
X41245740Y-43066110D01*
X41483835Y-43542300D02*
X41483835Y-42542300D01*
X41102882Y-42542300D01*
X41007644Y-42589920D01*
X40960025Y-42637539D01*
X40912406Y-42732777D01*
X40912406Y-42875634D01*
X40960025Y-42970872D01*
X41007644Y-43018491D01*
X41102882Y-43066110D01*
X41483835Y-43066110D01*
X40531454Y-42637539D02*
X40483835Y-42589920D01*
X40388597Y-42542300D01*
X40150501Y-42542300D01*
X40055263Y-42589920D01*
X40007644Y-42637539D01*
X39960025Y-42732777D01*
X39960025Y-42828015D01*
X40007644Y-42970872D01*
X40579073Y-43542300D01*
X39960025Y-43542300D01*
%TO.C,R1*%
X111413460Y-32203093D02*
X110937270Y-31869760D01*
X111413460Y-31631664D02*
X110413460Y-31631664D01*
X110413460Y-32012617D01*
X110461080Y-32107855D01*
X110508699Y-32155474D01*
X110603937Y-32203093D01*
X110746794Y-32203093D01*
X110842032Y-32155474D01*
X110889651Y-32107855D01*
X110937270Y-32012617D01*
X110937270Y-31631664D01*
X111413460Y-33155474D02*
X111413460Y-32584045D01*
X111413460Y-32869760D02*
X110413460Y-32869760D01*
X110556318Y-32774521D01*
X110651556Y-32679283D01*
X110699175Y-32584045D01*
%TO.C,D45*%
X130546005Y-31465900D02*
X130546005Y-30465900D01*
X130307910Y-30465900D01*
X130165053Y-30513520D01*
X130069815Y-30608758D01*
X130022196Y-30703996D01*
X129974577Y-30894472D01*
X129974577Y-31037329D01*
X130022196Y-31227805D01*
X130069815Y-31323043D01*
X130165053Y-31418281D01*
X130307910Y-31465900D01*
X130546005Y-31465900D01*
X129117434Y-30799234D02*
X129117434Y-31465900D01*
X129355529Y-30418281D02*
X129593624Y-31132567D01*
X128974577Y-31132567D01*
X128117434Y-30465900D02*
X128593624Y-30465900D01*
X128641243Y-30942091D01*
X128593624Y-30894472D01*
X128498386Y-30846853D01*
X128260291Y-30846853D01*
X128165053Y-30894472D01*
X128117434Y-30942091D01*
X128069815Y-31037329D01*
X128069815Y-31275424D01*
X128117434Y-31370662D01*
X128165053Y-31418281D01*
X128260291Y-31465900D01*
X128498386Y-31465900D01*
X128593624Y-31418281D01*
X128641243Y-31370662D01*
%TO.C,D44*%
X130800005Y-46705900D02*
X130800005Y-45705900D01*
X130561910Y-45705900D01*
X130419053Y-45753520D01*
X130323815Y-45848758D01*
X130276196Y-45943996D01*
X130228577Y-46134472D01*
X130228577Y-46277329D01*
X130276196Y-46467805D01*
X130323815Y-46563043D01*
X130419053Y-46658281D01*
X130561910Y-46705900D01*
X130800005Y-46705900D01*
X129371434Y-46039234D02*
X129371434Y-46705900D01*
X129609529Y-45658281D02*
X129847624Y-46372567D01*
X129228577Y-46372567D01*
X128419053Y-46039234D02*
X128419053Y-46705900D01*
X128657148Y-45658281D02*
X128895243Y-46372567D01*
X128276196Y-46372567D01*
%TO.C,D43*%
X130800005Y-65755900D02*
X130800005Y-64755900D01*
X130561910Y-64755900D01*
X130419053Y-64803520D01*
X130323815Y-64898758D01*
X130276196Y-64993996D01*
X130228577Y-65184472D01*
X130228577Y-65327329D01*
X130276196Y-65517805D01*
X130323815Y-65613043D01*
X130419053Y-65708281D01*
X130561910Y-65755900D01*
X130800005Y-65755900D01*
X129371434Y-65089234D02*
X129371434Y-65755900D01*
X129609529Y-64708281D02*
X129847624Y-65422567D01*
X129228577Y-65422567D01*
X128942862Y-64755900D02*
X128323815Y-64755900D01*
X128657148Y-65136853D01*
X128514291Y-65136853D01*
X128419053Y-65184472D01*
X128371434Y-65232091D01*
X128323815Y-65327329D01*
X128323815Y-65565424D01*
X128371434Y-65660662D01*
X128419053Y-65708281D01*
X128514291Y-65755900D01*
X128800005Y-65755900D01*
X128895243Y-65708281D01*
X128942862Y-65660662D01*
%TO.C,D42*%
X130546005Y-84805900D02*
X130546005Y-83805900D01*
X130307910Y-83805900D01*
X130165053Y-83853520D01*
X130069815Y-83948758D01*
X130022196Y-84043996D01*
X129974577Y-84234472D01*
X129974577Y-84377329D01*
X130022196Y-84567805D01*
X130069815Y-84663043D01*
X130165053Y-84758281D01*
X130307910Y-84805900D01*
X130546005Y-84805900D01*
X129117434Y-84139234D02*
X129117434Y-84805900D01*
X129355529Y-83758281D02*
X129593624Y-84472567D01*
X128974577Y-84472567D01*
X128641243Y-83901139D02*
X128593624Y-83853520D01*
X128498386Y-83805900D01*
X128260291Y-83805900D01*
X128165053Y-83853520D01*
X128117434Y-83901139D01*
X128069815Y-83996377D01*
X128069815Y-84091615D01*
X128117434Y-84234472D01*
X128688862Y-84805900D01*
X128069815Y-84805900D01*
%TO.C,D41*%
X130800005Y-103855900D02*
X130800005Y-102855900D01*
X130561910Y-102855900D01*
X130419053Y-102903520D01*
X130323815Y-102998758D01*
X130276196Y-103093996D01*
X130228577Y-103284472D01*
X130228577Y-103427329D01*
X130276196Y-103617805D01*
X130323815Y-103713043D01*
X130419053Y-103808281D01*
X130561910Y-103855900D01*
X130800005Y-103855900D01*
X129371434Y-103189234D02*
X129371434Y-103855900D01*
X129609529Y-102808281D02*
X129847624Y-103522567D01*
X129228577Y-103522567D01*
X128323815Y-103855900D02*
X128895243Y-103855900D01*
X128609529Y-103855900D02*
X128609529Y-102855900D01*
X128704767Y-102998758D01*
X128800005Y-103093996D01*
X128895243Y-103141615D01*
%TO.C,D40*%
X130800005Y-122905900D02*
X130800005Y-121905900D01*
X130561910Y-121905900D01*
X130419053Y-121953520D01*
X130323815Y-122048758D01*
X130276196Y-122143996D01*
X130228577Y-122334472D01*
X130228577Y-122477329D01*
X130276196Y-122667805D01*
X130323815Y-122763043D01*
X130419053Y-122858281D01*
X130561910Y-122905900D01*
X130800005Y-122905900D01*
X129371434Y-122239234D02*
X129371434Y-122905900D01*
X129609529Y-121858281D02*
X129847624Y-122572567D01*
X129228577Y-122572567D01*
X128657148Y-121905900D02*
X128561910Y-121905900D01*
X128466672Y-121953520D01*
X128419053Y-122001139D01*
X128371434Y-122096377D01*
X128323815Y-122286853D01*
X128323815Y-122524948D01*
X128371434Y-122715424D01*
X128419053Y-122810662D01*
X128466672Y-122858281D01*
X128561910Y-122905900D01*
X128657148Y-122905900D01*
X128752386Y-122858281D01*
X128800005Y-122810662D01*
X128847624Y-122715424D01*
X128895243Y-122524948D01*
X128895243Y-122286853D01*
X128847624Y-122096377D01*
X128800005Y-122001139D01*
X128752386Y-121953520D01*
X128657148Y-121905900D01*
%TO.C,D39*%
X126771565Y-143088740D02*
X126771565Y-142088740D01*
X126533470Y-142088740D01*
X126390613Y-142136360D01*
X126295375Y-142231598D01*
X126247756Y-142326836D01*
X126200137Y-142517312D01*
X126200137Y-142660169D01*
X126247756Y-142850645D01*
X126295375Y-142945883D01*
X126390613Y-143041121D01*
X126533470Y-143088740D01*
X126771565Y-143088740D01*
X125866803Y-142088740D02*
X125247756Y-142088740D01*
X125581089Y-142469693D01*
X125438232Y-142469693D01*
X125342994Y-142517312D01*
X125295375Y-142564931D01*
X125247756Y-142660169D01*
X125247756Y-142898264D01*
X125295375Y-142993502D01*
X125342994Y-143041121D01*
X125438232Y-143088740D01*
X125723946Y-143088740D01*
X125819184Y-143041121D01*
X125866803Y-142993502D01*
X124771565Y-143088740D02*
X124581089Y-143088740D01*
X124485851Y-143041121D01*
X124438232Y-142993502D01*
X124342994Y-142850645D01*
X124295375Y-142660169D01*
X124295375Y-142279217D01*
X124342994Y-142183979D01*
X124390613Y-142136360D01*
X124485851Y-142088740D01*
X124676327Y-142088740D01*
X124771565Y-142136360D01*
X124819184Y-142183979D01*
X124866803Y-142279217D01*
X124866803Y-142517312D01*
X124819184Y-142612550D01*
X124771565Y-142660169D01*
X124676327Y-142707788D01*
X124485851Y-142707788D01*
X124390613Y-142660169D01*
X124342994Y-142612550D01*
X124295375Y-142517312D01*
%TO.C,D38*%
X103403565Y-143088740D02*
X103403565Y-142088740D01*
X103165470Y-142088740D01*
X103022613Y-142136360D01*
X102927375Y-142231598D01*
X102879756Y-142326836D01*
X102832137Y-142517312D01*
X102832137Y-142660169D01*
X102879756Y-142850645D01*
X102927375Y-142945883D01*
X103022613Y-143041121D01*
X103165470Y-143088740D01*
X103403565Y-143088740D01*
X102498803Y-142088740D02*
X101879756Y-142088740D01*
X102213089Y-142469693D01*
X102070232Y-142469693D01*
X101974994Y-142517312D01*
X101927375Y-142564931D01*
X101879756Y-142660169D01*
X101879756Y-142898264D01*
X101927375Y-142993502D01*
X101974994Y-143041121D01*
X102070232Y-143088740D01*
X102355946Y-143088740D01*
X102451184Y-143041121D01*
X102498803Y-142993502D01*
X101308327Y-142517312D02*
X101403565Y-142469693D01*
X101451184Y-142422074D01*
X101498803Y-142326836D01*
X101498803Y-142279217D01*
X101451184Y-142183979D01*
X101403565Y-142136360D01*
X101308327Y-142088740D01*
X101117851Y-142088740D01*
X101022613Y-142136360D01*
X100974994Y-142183979D01*
X100927375Y-142279217D01*
X100927375Y-142326836D01*
X100974994Y-142422074D01*
X101022613Y-142469693D01*
X101117851Y-142517312D01*
X101308327Y-142517312D01*
X101403565Y-142564931D01*
X101451184Y-142612550D01*
X101498803Y-142707788D01*
X101498803Y-142898264D01*
X101451184Y-142993502D01*
X101403565Y-143041121D01*
X101308327Y-143088740D01*
X101117851Y-143088740D01*
X101022613Y-143041121D01*
X100974994Y-142993502D01*
X100927375Y-142898264D01*
X100927375Y-142707788D01*
X100974994Y-142612550D01*
X101022613Y-142564931D01*
X101117851Y-142517312D01*
%TO.C,D37*%
X81813565Y-143088740D02*
X81813565Y-142088740D01*
X81575470Y-142088740D01*
X81432613Y-142136360D01*
X81337375Y-142231598D01*
X81289756Y-142326836D01*
X81242137Y-142517312D01*
X81242137Y-142660169D01*
X81289756Y-142850645D01*
X81337375Y-142945883D01*
X81432613Y-143041121D01*
X81575470Y-143088740D01*
X81813565Y-143088740D01*
X80908803Y-142088740D02*
X80289756Y-142088740D01*
X80623089Y-142469693D01*
X80480232Y-142469693D01*
X80384994Y-142517312D01*
X80337375Y-142564931D01*
X80289756Y-142660169D01*
X80289756Y-142898264D01*
X80337375Y-142993502D01*
X80384994Y-143041121D01*
X80480232Y-143088740D01*
X80765946Y-143088740D01*
X80861184Y-143041121D01*
X80908803Y-142993502D01*
X79956422Y-142088740D02*
X79289756Y-142088740D01*
X79718327Y-143088740D01*
%TO.C,D36*%
X59461565Y-143088740D02*
X59461565Y-142088740D01*
X59223470Y-142088740D01*
X59080613Y-142136360D01*
X58985375Y-142231598D01*
X58937756Y-142326836D01*
X58890137Y-142517312D01*
X58890137Y-142660169D01*
X58937756Y-142850645D01*
X58985375Y-142945883D01*
X59080613Y-143041121D01*
X59223470Y-143088740D01*
X59461565Y-143088740D01*
X58556803Y-142088740D02*
X57937756Y-142088740D01*
X58271089Y-142469693D01*
X58128232Y-142469693D01*
X58032994Y-142517312D01*
X57985375Y-142564931D01*
X57937756Y-142660169D01*
X57937756Y-142898264D01*
X57985375Y-142993502D01*
X58032994Y-143041121D01*
X58128232Y-143088740D01*
X58413946Y-143088740D01*
X58509184Y-143041121D01*
X58556803Y-142993502D01*
X57080613Y-142088740D02*
X57271089Y-142088740D01*
X57366327Y-142136360D01*
X57413946Y-142183979D01*
X57509184Y-142326836D01*
X57556803Y-142517312D01*
X57556803Y-142898264D01*
X57509184Y-142993502D01*
X57461565Y-143041121D01*
X57366327Y-143088740D01*
X57175851Y-143088740D01*
X57080613Y-143041121D01*
X57032994Y-142993502D01*
X56985375Y-142898264D01*
X56985375Y-142660169D01*
X57032994Y-142564931D01*
X57080613Y-142517312D01*
X57175851Y-142469693D01*
X57366327Y-142469693D01*
X57461565Y-142517312D01*
X57509184Y-142564931D01*
X57556803Y-142660169D01*
%TO.C,D35*%
X38633565Y-143088740D02*
X38633565Y-142088740D01*
X38395470Y-142088740D01*
X38252613Y-142136360D01*
X38157375Y-142231598D01*
X38109756Y-142326836D01*
X38062137Y-142517312D01*
X38062137Y-142660169D01*
X38109756Y-142850645D01*
X38157375Y-142945883D01*
X38252613Y-143041121D01*
X38395470Y-143088740D01*
X38633565Y-143088740D01*
X37728803Y-142088740D02*
X37109756Y-142088740D01*
X37443089Y-142469693D01*
X37300232Y-142469693D01*
X37204994Y-142517312D01*
X37157375Y-142564931D01*
X37109756Y-142660169D01*
X37109756Y-142898264D01*
X37157375Y-142993502D01*
X37204994Y-143041121D01*
X37300232Y-143088740D01*
X37585946Y-143088740D01*
X37681184Y-143041121D01*
X37728803Y-142993502D01*
X36204994Y-142088740D02*
X36681184Y-142088740D01*
X36728803Y-142564931D01*
X36681184Y-142517312D01*
X36585946Y-142469693D01*
X36347851Y-142469693D01*
X36252613Y-142517312D01*
X36204994Y-142564931D01*
X36157375Y-142660169D01*
X36157375Y-142898264D01*
X36204994Y-142993502D01*
X36252613Y-143041121D01*
X36347851Y-143088740D01*
X36585946Y-143088740D01*
X36681184Y-143041121D01*
X36728803Y-142993502D01*
%TO.C,D34*%
X33350365Y-122626500D02*
X33350365Y-121626500D01*
X33112270Y-121626500D01*
X32969413Y-121674120D01*
X32874175Y-121769358D01*
X32826556Y-121864596D01*
X32778937Y-122055072D01*
X32778937Y-122197929D01*
X32826556Y-122388405D01*
X32874175Y-122483643D01*
X32969413Y-122578881D01*
X33112270Y-122626500D01*
X33350365Y-122626500D01*
X32445603Y-121626500D02*
X31826556Y-121626500D01*
X32159889Y-122007453D01*
X32017032Y-122007453D01*
X31921794Y-122055072D01*
X31874175Y-122102691D01*
X31826556Y-122197929D01*
X31826556Y-122436024D01*
X31874175Y-122531262D01*
X31921794Y-122578881D01*
X32017032Y-122626500D01*
X32302746Y-122626500D01*
X32397984Y-122578881D01*
X32445603Y-122531262D01*
X30969413Y-121959834D02*
X30969413Y-122626500D01*
X31207508Y-121578881D02*
X31445603Y-122293167D01*
X30826556Y-122293167D01*
%TO.C,D33*%
X33350365Y-103576500D02*
X33350365Y-102576500D01*
X33112270Y-102576500D01*
X32969413Y-102624120D01*
X32874175Y-102719358D01*
X32826556Y-102814596D01*
X32778937Y-103005072D01*
X32778937Y-103147929D01*
X32826556Y-103338405D01*
X32874175Y-103433643D01*
X32969413Y-103528881D01*
X33112270Y-103576500D01*
X33350365Y-103576500D01*
X32445603Y-102576500D02*
X31826556Y-102576500D01*
X32159889Y-102957453D01*
X32017032Y-102957453D01*
X31921794Y-103005072D01*
X31874175Y-103052691D01*
X31826556Y-103147929D01*
X31826556Y-103386024D01*
X31874175Y-103481262D01*
X31921794Y-103528881D01*
X32017032Y-103576500D01*
X32302746Y-103576500D01*
X32397984Y-103528881D01*
X32445603Y-103481262D01*
X31493222Y-102576500D02*
X30874175Y-102576500D01*
X31207508Y-102957453D01*
X31064651Y-102957453D01*
X30969413Y-103005072D01*
X30921794Y-103052691D01*
X30874175Y-103147929D01*
X30874175Y-103386024D01*
X30921794Y-103481262D01*
X30969413Y-103528881D01*
X31064651Y-103576500D01*
X31350365Y-103576500D01*
X31445603Y-103528881D01*
X31493222Y-103481262D01*
%TO.C,D32*%
X33350365Y-84526500D02*
X33350365Y-83526500D01*
X33112270Y-83526500D01*
X32969413Y-83574120D01*
X32874175Y-83669358D01*
X32826556Y-83764596D01*
X32778937Y-83955072D01*
X32778937Y-84097929D01*
X32826556Y-84288405D01*
X32874175Y-84383643D01*
X32969413Y-84478881D01*
X33112270Y-84526500D01*
X33350365Y-84526500D01*
X32445603Y-83526500D02*
X31826556Y-83526500D01*
X32159889Y-83907453D01*
X32017032Y-83907453D01*
X31921794Y-83955072D01*
X31874175Y-84002691D01*
X31826556Y-84097929D01*
X31826556Y-84336024D01*
X31874175Y-84431262D01*
X31921794Y-84478881D01*
X32017032Y-84526500D01*
X32302746Y-84526500D01*
X32397984Y-84478881D01*
X32445603Y-84431262D01*
X31445603Y-83621739D02*
X31397984Y-83574120D01*
X31302746Y-83526500D01*
X31064651Y-83526500D01*
X30969413Y-83574120D01*
X30921794Y-83621739D01*
X30874175Y-83716977D01*
X30874175Y-83812215D01*
X30921794Y-83955072D01*
X31493222Y-84526500D01*
X30874175Y-84526500D01*
%TO.C,D31*%
X33350365Y-65476500D02*
X33350365Y-64476500D01*
X33112270Y-64476500D01*
X32969413Y-64524120D01*
X32874175Y-64619358D01*
X32826556Y-64714596D01*
X32778937Y-64905072D01*
X32778937Y-65047929D01*
X32826556Y-65238405D01*
X32874175Y-65333643D01*
X32969413Y-65428881D01*
X33112270Y-65476500D01*
X33350365Y-65476500D01*
X32445603Y-64476500D02*
X31826556Y-64476500D01*
X32159889Y-64857453D01*
X32017032Y-64857453D01*
X31921794Y-64905072D01*
X31874175Y-64952691D01*
X31826556Y-65047929D01*
X31826556Y-65286024D01*
X31874175Y-65381262D01*
X31921794Y-65428881D01*
X32017032Y-65476500D01*
X32302746Y-65476500D01*
X32397984Y-65428881D01*
X32445603Y-65381262D01*
X30874175Y-65476500D02*
X31445603Y-65476500D01*
X31159889Y-65476500D02*
X31159889Y-64476500D01*
X31255127Y-64619358D01*
X31350365Y-64714596D01*
X31445603Y-64762215D01*
%TO.C,D30*%
X33350365Y-46350500D02*
X33350365Y-45350500D01*
X33112270Y-45350500D01*
X32969413Y-45398120D01*
X32874175Y-45493358D01*
X32826556Y-45588596D01*
X32778937Y-45779072D01*
X32778937Y-45921929D01*
X32826556Y-46112405D01*
X32874175Y-46207643D01*
X32969413Y-46302881D01*
X33112270Y-46350500D01*
X33350365Y-46350500D01*
X32445603Y-45350500D02*
X31826556Y-45350500D01*
X32159889Y-45731453D01*
X32017032Y-45731453D01*
X31921794Y-45779072D01*
X31874175Y-45826691D01*
X31826556Y-45921929D01*
X31826556Y-46160024D01*
X31874175Y-46255262D01*
X31921794Y-46302881D01*
X32017032Y-46350500D01*
X32302746Y-46350500D01*
X32397984Y-46302881D01*
X32445603Y-46255262D01*
X31207508Y-45350500D02*
X31112270Y-45350500D01*
X31017032Y-45398120D01*
X30969413Y-45445739D01*
X30921794Y-45540977D01*
X30874175Y-45731453D01*
X30874175Y-45969548D01*
X30921794Y-46160024D01*
X30969413Y-46255262D01*
X31017032Y-46302881D01*
X31112270Y-46350500D01*
X31207508Y-46350500D01*
X31302746Y-46302881D01*
X31350365Y-46255262D01*
X31397984Y-46160024D01*
X31445603Y-45969548D01*
X31445603Y-45731453D01*
X31397984Y-45540977D01*
X31350365Y-45445739D01*
X31302746Y-45398120D01*
X31207508Y-45350500D01*
%TO.C,D29*%
X33350365Y-30932500D02*
X33350365Y-29932500D01*
X33112270Y-29932500D01*
X32969413Y-29980120D01*
X32874175Y-30075358D01*
X32826556Y-30170596D01*
X32778937Y-30361072D01*
X32778937Y-30503929D01*
X32826556Y-30694405D01*
X32874175Y-30789643D01*
X32969413Y-30884881D01*
X33112270Y-30932500D01*
X33350365Y-30932500D01*
X32397984Y-30027739D02*
X32350365Y-29980120D01*
X32255127Y-29932500D01*
X32017032Y-29932500D01*
X31921794Y-29980120D01*
X31874175Y-30027739D01*
X31826556Y-30122977D01*
X31826556Y-30218215D01*
X31874175Y-30361072D01*
X32445603Y-30932500D01*
X31826556Y-30932500D01*
X31350365Y-30932500D02*
X31159889Y-30932500D01*
X31064651Y-30884881D01*
X31017032Y-30837262D01*
X30921794Y-30694405D01*
X30874175Y-30503929D01*
X30874175Y-30122977D01*
X30921794Y-30027739D01*
X30969413Y-29980120D01*
X31064651Y-29932500D01*
X31255127Y-29932500D01*
X31350365Y-29980120D01*
X31397984Y-30027739D01*
X31445603Y-30122977D01*
X31445603Y-30361072D01*
X31397984Y-30456310D01*
X31350365Y-30503929D01*
X31255127Y-30551548D01*
X31064651Y-30551548D01*
X30969413Y-30503929D01*
X30921794Y-30456310D01*
X30874175Y-30361072D01*
%TO.C,D28*%
X92654285Y-44466380D02*
X92654285Y-43466380D01*
X92416190Y-43466380D01*
X92273333Y-43514000D01*
X92178095Y-43609238D01*
X92130476Y-43704476D01*
X92082857Y-43894952D01*
X92082857Y-44037809D01*
X92130476Y-44228285D01*
X92178095Y-44323523D01*
X92273333Y-44418761D01*
X92416190Y-44466380D01*
X92654285Y-44466380D01*
X91701904Y-43561619D02*
X91654285Y-43514000D01*
X91559047Y-43466380D01*
X91320952Y-43466380D01*
X91225714Y-43514000D01*
X91178095Y-43561619D01*
X91130476Y-43656857D01*
X91130476Y-43752095D01*
X91178095Y-43894952D01*
X91749523Y-44466380D01*
X91130476Y-44466380D01*
X90559047Y-43894952D02*
X90654285Y-43847333D01*
X90701904Y-43799714D01*
X90749523Y-43704476D01*
X90749523Y-43656857D01*
X90701904Y-43561619D01*
X90654285Y-43514000D01*
X90559047Y-43466380D01*
X90368571Y-43466380D01*
X90273333Y-43514000D01*
X90225714Y-43561619D01*
X90178095Y-43656857D01*
X90178095Y-43704476D01*
X90225714Y-43799714D01*
X90273333Y-43847333D01*
X90368571Y-43894952D01*
X90559047Y-43894952D01*
X90654285Y-43942571D01*
X90701904Y-43990190D01*
X90749523Y-44085428D01*
X90749523Y-44275904D01*
X90701904Y-44371142D01*
X90654285Y-44418761D01*
X90559047Y-44466380D01*
X90368571Y-44466380D01*
X90273333Y-44418761D01*
X90225714Y-44371142D01*
X90178095Y-44275904D01*
X90178095Y-44085428D01*
X90225714Y-43990190D01*
X90273333Y-43942571D01*
X90368571Y-43894952D01*
%TO.C,D27*%
X122626285Y-143018380D02*
X122626285Y-142018380D01*
X122388190Y-142018380D01*
X122245333Y-142066000D01*
X122150095Y-142161238D01*
X122102476Y-142256476D01*
X122054857Y-142446952D01*
X122054857Y-142589809D01*
X122102476Y-142780285D01*
X122150095Y-142875523D01*
X122245333Y-142970761D01*
X122388190Y-143018380D01*
X122626285Y-143018380D01*
X121673904Y-142113619D02*
X121626285Y-142066000D01*
X121531047Y-142018380D01*
X121292952Y-142018380D01*
X121197714Y-142066000D01*
X121150095Y-142113619D01*
X121102476Y-142208857D01*
X121102476Y-142304095D01*
X121150095Y-142446952D01*
X121721523Y-143018380D01*
X121102476Y-143018380D01*
X120769142Y-142018380D02*
X120102476Y-142018380D01*
X120531047Y-143018380D01*
%TO.C,D26*%
X84526285Y-143018380D02*
X84526285Y-142018380D01*
X84288190Y-142018380D01*
X84145333Y-142066000D01*
X84050095Y-142161238D01*
X84002476Y-142256476D01*
X83954857Y-142446952D01*
X83954857Y-142589809D01*
X84002476Y-142780285D01*
X84050095Y-142875523D01*
X84145333Y-142970761D01*
X84288190Y-143018380D01*
X84526285Y-143018380D01*
X83573904Y-142113619D02*
X83526285Y-142066000D01*
X83431047Y-142018380D01*
X83192952Y-142018380D01*
X83097714Y-142066000D01*
X83050095Y-142113619D01*
X83002476Y-142208857D01*
X83002476Y-142304095D01*
X83050095Y-142446952D01*
X83621523Y-143018380D01*
X83002476Y-143018380D01*
X82145333Y-142018380D02*
X82335809Y-142018380D01*
X82431047Y-142066000D01*
X82478666Y-142113619D01*
X82573904Y-142256476D01*
X82621523Y-142446952D01*
X82621523Y-142827904D01*
X82573904Y-142923142D01*
X82526285Y-142970761D01*
X82431047Y-143018380D01*
X82240571Y-143018380D01*
X82145333Y-142970761D01*
X82097714Y-142923142D01*
X82050095Y-142827904D01*
X82050095Y-142589809D01*
X82097714Y-142494571D01*
X82145333Y-142446952D01*
X82240571Y-142399333D01*
X82431047Y-142399333D01*
X82526285Y-142446952D01*
X82573904Y-142494571D01*
X82621523Y-142589809D01*
%TO.C,D25*%
X65456285Y-143018380D02*
X65456285Y-142018380D01*
X65218190Y-142018380D01*
X65075333Y-142066000D01*
X64980095Y-142161238D01*
X64932476Y-142256476D01*
X64884857Y-142446952D01*
X64884857Y-142589809D01*
X64932476Y-142780285D01*
X64980095Y-142875523D01*
X65075333Y-142970761D01*
X65218190Y-143018380D01*
X65456285Y-143018380D01*
X64503904Y-142113619D02*
X64456285Y-142066000D01*
X64361047Y-142018380D01*
X64122952Y-142018380D01*
X64027714Y-142066000D01*
X63980095Y-142113619D01*
X63932476Y-142208857D01*
X63932476Y-142304095D01*
X63980095Y-142446952D01*
X64551523Y-143018380D01*
X63932476Y-143018380D01*
X63027714Y-142018380D02*
X63503904Y-142018380D01*
X63551523Y-142494571D01*
X63503904Y-142446952D01*
X63408666Y-142399333D01*
X63170571Y-142399333D01*
X63075333Y-142446952D01*
X63027714Y-142494571D01*
X62980095Y-142589809D01*
X62980095Y-142827904D01*
X63027714Y-142923142D01*
X63075333Y-142970761D01*
X63170571Y-143018380D01*
X63408666Y-143018380D01*
X63503904Y-142970761D01*
X63551523Y-142923142D01*
%TO.C,D24*%
X46426285Y-143018380D02*
X46426285Y-142018380D01*
X46188190Y-142018380D01*
X46045333Y-142066000D01*
X45950095Y-142161238D01*
X45902476Y-142256476D01*
X45854857Y-142446952D01*
X45854857Y-142589809D01*
X45902476Y-142780285D01*
X45950095Y-142875523D01*
X46045333Y-142970761D01*
X46188190Y-143018380D01*
X46426285Y-143018380D01*
X45473904Y-142113619D02*
X45426285Y-142066000D01*
X45331047Y-142018380D01*
X45092952Y-142018380D01*
X44997714Y-142066000D01*
X44950095Y-142113619D01*
X44902476Y-142208857D01*
X44902476Y-142304095D01*
X44950095Y-142446952D01*
X45521523Y-143018380D01*
X44902476Y-143018380D01*
X44045333Y-142351714D02*
X44045333Y-143018380D01*
X44283428Y-141970761D02*
X44521523Y-142685047D01*
X43902476Y-142685047D01*
%TO.C,D23*%
X122626285Y-124222380D02*
X122626285Y-123222380D01*
X122388190Y-123222380D01*
X122245333Y-123270000D01*
X122150095Y-123365238D01*
X122102476Y-123460476D01*
X122054857Y-123650952D01*
X122054857Y-123793809D01*
X122102476Y-123984285D01*
X122150095Y-124079523D01*
X122245333Y-124174761D01*
X122388190Y-124222380D01*
X122626285Y-124222380D01*
X121673904Y-123317619D02*
X121626285Y-123270000D01*
X121531047Y-123222380D01*
X121292952Y-123222380D01*
X121197714Y-123270000D01*
X121150095Y-123317619D01*
X121102476Y-123412857D01*
X121102476Y-123508095D01*
X121150095Y-123650952D01*
X121721523Y-124222380D01*
X121102476Y-124222380D01*
X120769142Y-123222380D02*
X120150095Y-123222380D01*
X120483428Y-123603333D01*
X120340571Y-123603333D01*
X120245333Y-123650952D01*
X120197714Y-123698571D01*
X120150095Y-123793809D01*
X120150095Y-124031904D01*
X120197714Y-124127142D01*
X120245333Y-124174761D01*
X120340571Y-124222380D01*
X120626285Y-124222380D01*
X120721523Y-124174761D01*
X120769142Y-124127142D01*
%TO.C,D22*%
X103322285Y-133874380D02*
X103322285Y-132874380D01*
X103084190Y-132874380D01*
X102941333Y-132922000D01*
X102846095Y-133017238D01*
X102798476Y-133112476D01*
X102750857Y-133302952D01*
X102750857Y-133445809D01*
X102798476Y-133636285D01*
X102846095Y-133731523D01*
X102941333Y-133826761D01*
X103084190Y-133874380D01*
X103322285Y-133874380D01*
X102369904Y-132969619D02*
X102322285Y-132922000D01*
X102227047Y-132874380D01*
X101988952Y-132874380D01*
X101893714Y-132922000D01*
X101846095Y-132969619D01*
X101798476Y-133064857D01*
X101798476Y-133160095D01*
X101846095Y-133302952D01*
X102417523Y-133874380D01*
X101798476Y-133874380D01*
X101417523Y-132969619D02*
X101369904Y-132922000D01*
X101274666Y-132874380D01*
X101036571Y-132874380D01*
X100941333Y-132922000D01*
X100893714Y-132969619D01*
X100846095Y-133064857D01*
X100846095Y-133160095D01*
X100893714Y-133302952D01*
X101465142Y-133874380D01*
X100846095Y-133874380D01*
%TO.C,D21*%
X84526285Y-124222380D02*
X84526285Y-123222380D01*
X84288190Y-123222380D01*
X84145333Y-123270000D01*
X84050095Y-123365238D01*
X84002476Y-123460476D01*
X83954857Y-123650952D01*
X83954857Y-123793809D01*
X84002476Y-123984285D01*
X84050095Y-124079523D01*
X84145333Y-124174761D01*
X84288190Y-124222380D01*
X84526285Y-124222380D01*
X83573904Y-123317619D02*
X83526285Y-123270000D01*
X83431047Y-123222380D01*
X83192952Y-123222380D01*
X83097714Y-123270000D01*
X83050095Y-123317619D01*
X83002476Y-123412857D01*
X83002476Y-123508095D01*
X83050095Y-123650952D01*
X83621523Y-124222380D01*
X83002476Y-124222380D01*
X82050095Y-124222380D02*
X82621523Y-124222380D01*
X82335809Y-124222380D02*
X82335809Y-123222380D01*
X82431047Y-123365238D01*
X82526285Y-123460476D01*
X82621523Y-123508095D01*
%TO.C,D20*%
X65222285Y-124222380D02*
X65222285Y-123222380D01*
X64984190Y-123222380D01*
X64841333Y-123270000D01*
X64746095Y-123365238D01*
X64698476Y-123460476D01*
X64650857Y-123650952D01*
X64650857Y-123793809D01*
X64698476Y-123984285D01*
X64746095Y-124079523D01*
X64841333Y-124174761D01*
X64984190Y-124222380D01*
X65222285Y-124222380D01*
X64269904Y-123317619D02*
X64222285Y-123270000D01*
X64127047Y-123222380D01*
X63888952Y-123222380D01*
X63793714Y-123270000D01*
X63746095Y-123317619D01*
X63698476Y-123412857D01*
X63698476Y-123508095D01*
X63746095Y-123650952D01*
X64317523Y-124222380D01*
X63698476Y-124222380D01*
X63079428Y-123222380D02*
X62984190Y-123222380D01*
X62888952Y-123270000D01*
X62841333Y-123317619D01*
X62793714Y-123412857D01*
X62746095Y-123603333D01*
X62746095Y-123841428D01*
X62793714Y-124031904D01*
X62841333Y-124127142D01*
X62888952Y-124174761D01*
X62984190Y-124222380D01*
X63079428Y-124222380D01*
X63174666Y-124174761D01*
X63222285Y-124127142D01*
X63269904Y-124031904D01*
X63317523Y-123841428D01*
X63317523Y-123603333D01*
X63269904Y-123412857D01*
X63222285Y-123317619D01*
X63174666Y-123270000D01*
X63079428Y-123222380D01*
%TO.C,D19*%
X46426285Y-124222380D02*
X46426285Y-123222380D01*
X46188190Y-123222380D01*
X46045333Y-123270000D01*
X45950095Y-123365238D01*
X45902476Y-123460476D01*
X45854857Y-123650952D01*
X45854857Y-123793809D01*
X45902476Y-123984285D01*
X45950095Y-124079523D01*
X46045333Y-124174761D01*
X46188190Y-124222380D01*
X46426285Y-124222380D01*
X44902476Y-124222380D02*
X45473904Y-124222380D01*
X45188190Y-124222380D02*
X45188190Y-123222380D01*
X45283428Y-123365238D01*
X45378666Y-123460476D01*
X45473904Y-123508095D01*
X44426285Y-124222380D02*
X44235809Y-124222380D01*
X44140571Y-124174761D01*
X44092952Y-124127142D01*
X43997714Y-123984285D01*
X43950095Y-123793809D01*
X43950095Y-123412857D01*
X43997714Y-123317619D01*
X44045333Y-123270000D01*
X44140571Y-123222380D01*
X44331047Y-123222380D01*
X44426285Y-123270000D01*
X44473904Y-123317619D01*
X44521523Y-123412857D01*
X44521523Y-123650952D01*
X44473904Y-123746190D01*
X44426285Y-123793809D01*
X44331047Y-123841428D01*
X44140571Y-123841428D01*
X44045333Y-123793809D01*
X43997714Y-123746190D01*
X43950095Y-123650952D01*
%TO.C,D18*%
X122626285Y-104706380D02*
X122626285Y-103706380D01*
X122388190Y-103706380D01*
X122245333Y-103754000D01*
X122150095Y-103849238D01*
X122102476Y-103944476D01*
X122054857Y-104134952D01*
X122054857Y-104277809D01*
X122102476Y-104468285D01*
X122150095Y-104563523D01*
X122245333Y-104658761D01*
X122388190Y-104706380D01*
X122626285Y-104706380D01*
X121102476Y-104706380D02*
X121673904Y-104706380D01*
X121388190Y-104706380D02*
X121388190Y-103706380D01*
X121483428Y-103849238D01*
X121578666Y-103944476D01*
X121673904Y-103992095D01*
X120531047Y-104134952D02*
X120626285Y-104087333D01*
X120673904Y-104039714D01*
X120721523Y-103944476D01*
X120721523Y-103896857D01*
X120673904Y-103801619D01*
X120626285Y-103754000D01*
X120531047Y-103706380D01*
X120340571Y-103706380D01*
X120245333Y-103754000D01*
X120197714Y-103801619D01*
X120150095Y-103896857D01*
X120150095Y-103944476D01*
X120197714Y-104039714D01*
X120245333Y-104087333D01*
X120340571Y-104134952D01*
X120531047Y-104134952D01*
X120626285Y-104182571D01*
X120673904Y-104230190D01*
X120721523Y-104325428D01*
X120721523Y-104515904D01*
X120673904Y-104611142D01*
X120626285Y-104658761D01*
X120531047Y-104706380D01*
X120340571Y-104706380D01*
X120245333Y-104658761D01*
X120197714Y-104611142D01*
X120150095Y-104515904D01*
X120150095Y-104325428D01*
X120197714Y-104230190D01*
X120245333Y-104182571D01*
X120340571Y-104134952D01*
%TO.C,D16*%
X84526285Y-104918380D02*
X84526285Y-103918380D01*
X84288190Y-103918380D01*
X84145333Y-103966000D01*
X84050095Y-104061238D01*
X84002476Y-104156476D01*
X83954857Y-104346952D01*
X83954857Y-104489809D01*
X84002476Y-104680285D01*
X84050095Y-104775523D01*
X84145333Y-104870761D01*
X84288190Y-104918380D01*
X84526285Y-104918380D01*
X83002476Y-104918380D02*
X83573904Y-104918380D01*
X83288190Y-104918380D02*
X83288190Y-103918380D01*
X83383428Y-104061238D01*
X83478666Y-104156476D01*
X83573904Y-104204095D01*
X82145333Y-103918380D02*
X82335809Y-103918380D01*
X82431047Y-103966000D01*
X82478666Y-104013619D01*
X82573904Y-104156476D01*
X82621523Y-104346952D01*
X82621523Y-104727904D01*
X82573904Y-104823142D01*
X82526285Y-104870761D01*
X82431047Y-104918380D01*
X82240571Y-104918380D01*
X82145333Y-104870761D01*
X82097714Y-104823142D01*
X82050095Y-104727904D01*
X82050095Y-104489809D01*
X82097714Y-104394571D01*
X82145333Y-104346952D01*
X82240571Y-104299333D01*
X82431047Y-104299333D01*
X82526285Y-104346952D01*
X82573904Y-104394571D01*
X82621523Y-104489809D01*
%TO.C,D15*%
X65222285Y-104918380D02*
X65222285Y-103918380D01*
X64984190Y-103918380D01*
X64841333Y-103966000D01*
X64746095Y-104061238D01*
X64698476Y-104156476D01*
X64650857Y-104346952D01*
X64650857Y-104489809D01*
X64698476Y-104680285D01*
X64746095Y-104775523D01*
X64841333Y-104870761D01*
X64984190Y-104918380D01*
X65222285Y-104918380D01*
X63698476Y-104918380D02*
X64269904Y-104918380D01*
X63984190Y-104918380D02*
X63984190Y-103918380D01*
X64079428Y-104061238D01*
X64174666Y-104156476D01*
X64269904Y-104204095D01*
X62793714Y-103918380D02*
X63269904Y-103918380D01*
X63317523Y-104394571D01*
X63269904Y-104346952D01*
X63174666Y-104299333D01*
X62936571Y-104299333D01*
X62841333Y-104346952D01*
X62793714Y-104394571D01*
X62746095Y-104489809D01*
X62746095Y-104727904D01*
X62793714Y-104823142D01*
X62841333Y-104870761D01*
X62936571Y-104918380D01*
X63174666Y-104918380D01*
X63269904Y-104870761D01*
X63317523Y-104823142D01*
%TO.C,D14*%
X46426285Y-104918380D02*
X46426285Y-103918380D01*
X46188190Y-103918380D01*
X46045333Y-103966000D01*
X45950095Y-104061238D01*
X45902476Y-104156476D01*
X45854857Y-104346952D01*
X45854857Y-104489809D01*
X45902476Y-104680285D01*
X45950095Y-104775523D01*
X46045333Y-104870761D01*
X46188190Y-104918380D01*
X46426285Y-104918380D01*
X44902476Y-104918380D02*
X45473904Y-104918380D01*
X45188190Y-104918380D02*
X45188190Y-103918380D01*
X45283428Y-104061238D01*
X45378666Y-104156476D01*
X45473904Y-104204095D01*
X44045333Y-104251714D02*
X44045333Y-104918380D01*
X44283428Y-103870761D02*
X44521523Y-104585047D01*
X43902476Y-104585047D01*
%TO.C,D13*%
X122626285Y-86122380D02*
X122626285Y-85122380D01*
X122388190Y-85122380D01*
X122245333Y-85170000D01*
X122150095Y-85265238D01*
X122102476Y-85360476D01*
X122054857Y-85550952D01*
X122054857Y-85693809D01*
X122102476Y-85884285D01*
X122150095Y-85979523D01*
X122245333Y-86074761D01*
X122388190Y-86122380D01*
X122626285Y-86122380D01*
X121102476Y-86122380D02*
X121673904Y-86122380D01*
X121388190Y-86122380D02*
X121388190Y-85122380D01*
X121483428Y-85265238D01*
X121578666Y-85360476D01*
X121673904Y-85408095D01*
X120769142Y-85122380D02*
X120150095Y-85122380D01*
X120483428Y-85503333D01*
X120340571Y-85503333D01*
X120245333Y-85550952D01*
X120197714Y-85598571D01*
X120150095Y-85693809D01*
X120150095Y-85931904D01*
X120197714Y-86027142D01*
X120245333Y-86074761D01*
X120340571Y-86122380D01*
X120626285Y-86122380D01*
X120721523Y-86074761D01*
X120769142Y-86027142D01*
%TO.C,D12*%
X103322285Y-95774380D02*
X103322285Y-94774380D01*
X103084190Y-94774380D01*
X102941333Y-94822000D01*
X102846095Y-94917238D01*
X102798476Y-95012476D01*
X102750857Y-95202952D01*
X102750857Y-95345809D01*
X102798476Y-95536285D01*
X102846095Y-95631523D01*
X102941333Y-95726761D01*
X103084190Y-95774380D01*
X103322285Y-95774380D01*
X101798476Y-95774380D02*
X102369904Y-95774380D01*
X102084190Y-95774380D02*
X102084190Y-94774380D01*
X102179428Y-94917238D01*
X102274666Y-95012476D01*
X102369904Y-95060095D01*
X101417523Y-94869619D02*
X101369904Y-94822000D01*
X101274666Y-94774380D01*
X101036571Y-94774380D01*
X100941333Y-94822000D01*
X100893714Y-94869619D01*
X100846095Y-94964857D01*
X100846095Y-95060095D01*
X100893714Y-95202952D01*
X101465142Y-95774380D01*
X100846095Y-95774380D01*
%TO.C,D11*%
X84526285Y-85614380D02*
X84526285Y-84614380D01*
X84288190Y-84614380D01*
X84145333Y-84662000D01*
X84050095Y-84757238D01*
X84002476Y-84852476D01*
X83954857Y-85042952D01*
X83954857Y-85185809D01*
X84002476Y-85376285D01*
X84050095Y-85471523D01*
X84145333Y-85566761D01*
X84288190Y-85614380D01*
X84526285Y-85614380D01*
X83002476Y-85614380D02*
X83573904Y-85614380D01*
X83288190Y-85614380D02*
X83288190Y-84614380D01*
X83383428Y-84757238D01*
X83478666Y-84852476D01*
X83573904Y-84900095D01*
X82050095Y-85614380D02*
X82621523Y-85614380D01*
X82335809Y-85614380D02*
X82335809Y-84614380D01*
X82431047Y-84757238D01*
X82526285Y-84852476D01*
X82621523Y-84900095D01*
%TO.C,D10*%
X65730285Y-85614380D02*
X65730285Y-84614380D01*
X65492190Y-84614380D01*
X65349333Y-84662000D01*
X65254095Y-84757238D01*
X65206476Y-84852476D01*
X65158857Y-85042952D01*
X65158857Y-85185809D01*
X65206476Y-85376285D01*
X65254095Y-85471523D01*
X65349333Y-85566761D01*
X65492190Y-85614380D01*
X65730285Y-85614380D01*
X64206476Y-85614380D02*
X64777904Y-85614380D01*
X64492190Y-85614380D02*
X64492190Y-84614380D01*
X64587428Y-84757238D01*
X64682666Y-84852476D01*
X64777904Y-84900095D01*
X63587428Y-84614380D02*
X63492190Y-84614380D01*
X63396952Y-84662000D01*
X63349333Y-84709619D01*
X63301714Y-84804857D01*
X63254095Y-84995333D01*
X63254095Y-85233428D01*
X63301714Y-85423904D01*
X63349333Y-85519142D01*
X63396952Y-85566761D01*
X63492190Y-85614380D01*
X63587428Y-85614380D01*
X63682666Y-85566761D01*
X63730285Y-85519142D01*
X63777904Y-85423904D01*
X63825523Y-85233428D01*
X63825523Y-84995333D01*
X63777904Y-84804857D01*
X63730285Y-84709619D01*
X63682666Y-84662000D01*
X63587428Y-84614380D01*
%TO.C,D9*%
X45950095Y-85614380D02*
X45950095Y-84614380D01*
X45712000Y-84614380D01*
X45569142Y-84662000D01*
X45473904Y-84757238D01*
X45426285Y-84852476D01*
X45378666Y-85042952D01*
X45378666Y-85185809D01*
X45426285Y-85376285D01*
X45473904Y-85471523D01*
X45569142Y-85566761D01*
X45712000Y-85614380D01*
X45950095Y-85614380D01*
X44902476Y-85614380D02*
X44712000Y-85614380D01*
X44616761Y-85566761D01*
X44569142Y-85519142D01*
X44473904Y-85376285D01*
X44426285Y-85185809D01*
X44426285Y-84804857D01*
X44473904Y-84709619D01*
X44521523Y-84662000D01*
X44616761Y-84614380D01*
X44807238Y-84614380D01*
X44902476Y-84662000D01*
X44950095Y-84709619D01*
X44997714Y-84804857D01*
X44997714Y-85042952D01*
X44950095Y-85138190D01*
X44902476Y-85185809D01*
X44807238Y-85233428D01*
X44616761Y-85233428D01*
X44521523Y-85185809D01*
X44473904Y-85138190D01*
X44426285Y-85042952D01*
%TO.C,D8*%
X122658095Y-66818380D02*
X122658095Y-65818380D01*
X122420000Y-65818380D01*
X122277142Y-65866000D01*
X122181904Y-65961238D01*
X122134285Y-66056476D01*
X122086666Y-66246952D01*
X122086666Y-66389809D01*
X122134285Y-66580285D01*
X122181904Y-66675523D01*
X122277142Y-66770761D01*
X122420000Y-66818380D01*
X122658095Y-66818380D01*
X121515238Y-66246952D02*
X121610476Y-66199333D01*
X121658095Y-66151714D01*
X121705714Y-66056476D01*
X121705714Y-66008857D01*
X121658095Y-65913619D01*
X121610476Y-65866000D01*
X121515238Y-65818380D01*
X121324761Y-65818380D01*
X121229523Y-65866000D01*
X121181904Y-65913619D01*
X121134285Y-66008857D01*
X121134285Y-66056476D01*
X121181904Y-66151714D01*
X121229523Y-66199333D01*
X121324761Y-66246952D01*
X121515238Y-66246952D01*
X121610476Y-66294571D01*
X121658095Y-66342190D01*
X121705714Y-66437428D01*
X121705714Y-66627904D01*
X121658095Y-66723142D01*
X121610476Y-66770761D01*
X121515238Y-66818380D01*
X121324761Y-66818380D01*
X121229523Y-66770761D01*
X121181904Y-66723142D01*
X121134285Y-66627904D01*
X121134285Y-66437428D01*
X121181904Y-66342190D01*
X121229523Y-66294571D01*
X121324761Y-66246952D01*
%TO.C,D7*%
X103354095Y-66818380D02*
X103354095Y-65818380D01*
X103116000Y-65818380D01*
X102973142Y-65866000D01*
X102877904Y-65961238D01*
X102830285Y-66056476D01*
X102782666Y-66246952D01*
X102782666Y-66389809D01*
X102830285Y-66580285D01*
X102877904Y-66675523D01*
X102973142Y-66770761D01*
X103116000Y-66818380D01*
X103354095Y-66818380D01*
X102449333Y-65818380D02*
X101782666Y-65818380D01*
X102211238Y-66818380D01*
%TO.C,D6*%
X84050095Y-66818380D02*
X84050095Y-65818380D01*
X83812000Y-65818380D01*
X83669142Y-65866000D01*
X83573904Y-65961238D01*
X83526285Y-66056476D01*
X83478666Y-66246952D01*
X83478666Y-66389809D01*
X83526285Y-66580285D01*
X83573904Y-66675523D01*
X83669142Y-66770761D01*
X83812000Y-66818380D01*
X84050095Y-66818380D01*
X82621523Y-65818380D02*
X82812000Y-65818380D01*
X82907238Y-65866000D01*
X82954857Y-65913619D01*
X83050095Y-66056476D01*
X83097714Y-66246952D01*
X83097714Y-66627904D01*
X83050095Y-66723142D01*
X83002476Y-66770761D01*
X82907238Y-66818380D01*
X82716761Y-66818380D01*
X82621523Y-66770761D01*
X82573904Y-66723142D01*
X82526285Y-66627904D01*
X82526285Y-66389809D01*
X82573904Y-66294571D01*
X82621523Y-66246952D01*
X82716761Y-66199333D01*
X82907238Y-66199333D01*
X83002476Y-66246952D01*
X83050095Y-66294571D01*
X83097714Y-66389809D01*
%TO.C,D5*%
X64980095Y-66818380D02*
X64980095Y-65818380D01*
X64742000Y-65818380D01*
X64599142Y-65866000D01*
X64503904Y-65961238D01*
X64456285Y-66056476D01*
X64408666Y-66246952D01*
X64408666Y-66389809D01*
X64456285Y-66580285D01*
X64503904Y-66675523D01*
X64599142Y-66770761D01*
X64742000Y-66818380D01*
X64980095Y-66818380D01*
X63503904Y-65818380D02*
X63980095Y-65818380D01*
X64027714Y-66294571D01*
X63980095Y-66246952D01*
X63884857Y-66199333D01*
X63646761Y-66199333D01*
X63551523Y-66246952D01*
X63503904Y-66294571D01*
X63456285Y-66389809D01*
X63456285Y-66627904D01*
X63503904Y-66723142D01*
X63551523Y-66770761D01*
X63646761Y-66818380D01*
X63884857Y-66818380D01*
X63980095Y-66770761D01*
X64027714Y-66723142D01*
%TO.C,D4*%
X45950095Y-66818380D02*
X45950095Y-65818380D01*
X45712000Y-65818380D01*
X45569142Y-65866000D01*
X45473904Y-65961238D01*
X45426285Y-66056476D01*
X45378666Y-66246952D01*
X45378666Y-66389809D01*
X45426285Y-66580285D01*
X45473904Y-66675523D01*
X45569142Y-66770761D01*
X45712000Y-66818380D01*
X45950095Y-66818380D01*
X44521523Y-66151714D02*
X44521523Y-66818380D01*
X44759619Y-65770761D02*
X44997714Y-66485047D01*
X44378666Y-66485047D01*
%TO.C,C27*%
X132864862Y-49110662D02*
X132912481Y-49063043D01*
X132960100Y-48920186D01*
X132960100Y-48824948D01*
X132912481Y-48682091D01*
X132817243Y-48586853D01*
X132722005Y-48539234D01*
X132531529Y-48491615D01*
X132388672Y-48491615D01*
X132198196Y-48539234D01*
X132102958Y-48586853D01*
X132007720Y-48682091D01*
X131960100Y-48824948D01*
X131960100Y-48920186D01*
X132007720Y-49063043D01*
X132055339Y-49110662D01*
X132055339Y-49491615D02*
X132007720Y-49539234D01*
X131960100Y-49634472D01*
X131960100Y-49872567D01*
X132007720Y-49967805D01*
X132055339Y-50015424D01*
X132150577Y-50063043D01*
X132245815Y-50063043D01*
X132388672Y-50015424D01*
X132960100Y-49443996D01*
X132960100Y-50063043D01*
X131960100Y-50396377D02*
X131960100Y-51063043D01*
X132960100Y-50634472D01*
%TO.C,C26*%
X61526422Y-145493502D02*
X61574041Y-145445883D01*
X61621660Y-145303026D01*
X61621660Y-145207788D01*
X61574041Y-145064931D01*
X61478803Y-144969693D01*
X61383565Y-144922074D01*
X61193089Y-144874455D01*
X61050232Y-144874455D01*
X60859756Y-144922074D01*
X60764518Y-144969693D01*
X60669280Y-145064931D01*
X60621660Y-145207788D01*
X60621660Y-145303026D01*
X60669280Y-145445883D01*
X60716899Y-145493502D01*
X60716899Y-145874455D02*
X60669280Y-145922074D01*
X60621660Y-146017312D01*
X60621660Y-146255407D01*
X60669280Y-146350645D01*
X60716899Y-146398264D01*
X60812137Y-146445883D01*
X60907375Y-146445883D01*
X61050232Y-146398264D01*
X61621660Y-145826836D01*
X61621660Y-146445883D01*
X60621660Y-147303026D02*
X60621660Y-147112550D01*
X60669280Y-147017312D01*
X60716899Y-146969693D01*
X60859756Y-146874455D01*
X61050232Y-146826836D01*
X61431184Y-146826836D01*
X61526422Y-146874455D01*
X61574041Y-146922074D01*
X61621660Y-147017312D01*
X61621660Y-147207788D01*
X61574041Y-147303026D01*
X61526422Y-147350645D01*
X61431184Y-147398264D01*
X61193089Y-147398264D01*
X61097851Y-147350645D01*
X61050232Y-147303026D01*
X61002613Y-147207788D01*
X61002613Y-147017312D01*
X61050232Y-146922074D01*
X61097851Y-146874455D01*
X61193089Y-146826836D01*
%TO.C,C24*%
X132864862Y-68160662D02*
X132912481Y-68113043D01*
X132960100Y-67970186D01*
X132960100Y-67874948D01*
X132912481Y-67732091D01*
X132817243Y-67636853D01*
X132722005Y-67589234D01*
X132531529Y-67541615D01*
X132388672Y-67541615D01*
X132198196Y-67589234D01*
X132102958Y-67636853D01*
X132007720Y-67732091D01*
X131960100Y-67874948D01*
X131960100Y-67970186D01*
X132007720Y-68113043D01*
X132055339Y-68160662D01*
X132055339Y-68541615D02*
X132007720Y-68589234D01*
X131960100Y-68684472D01*
X131960100Y-68922567D01*
X132007720Y-69017805D01*
X132055339Y-69065424D01*
X132150577Y-69113043D01*
X132245815Y-69113043D01*
X132388672Y-69065424D01*
X132960100Y-68493996D01*
X132960100Y-69113043D01*
X132293434Y-69970186D02*
X132960100Y-69970186D01*
X131912481Y-69732091D02*
X132626767Y-69493996D01*
X132626767Y-70113043D01*
%TO.C,C23*%
X40698422Y-145493502D02*
X40746041Y-145445883D01*
X40793660Y-145303026D01*
X40793660Y-145207788D01*
X40746041Y-145064931D01*
X40650803Y-144969693D01*
X40555565Y-144922074D01*
X40365089Y-144874455D01*
X40222232Y-144874455D01*
X40031756Y-144922074D01*
X39936518Y-144969693D01*
X39841280Y-145064931D01*
X39793660Y-145207788D01*
X39793660Y-145303026D01*
X39841280Y-145445883D01*
X39888899Y-145493502D01*
X39888899Y-145874455D02*
X39841280Y-145922074D01*
X39793660Y-146017312D01*
X39793660Y-146255407D01*
X39841280Y-146350645D01*
X39888899Y-146398264D01*
X39984137Y-146445883D01*
X40079375Y-146445883D01*
X40222232Y-146398264D01*
X40793660Y-145826836D01*
X40793660Y-146445883D01*
X39793660Y-146779217D02*
X39793660Y-147398264D01*
X40174613Y-147064931D01*
X40174613Y-147207788D01*
X40222232Y-147303026D01*
X40269851Y-147350645D01*
X40365089Y-147398264D01*
X40603184Y-147398264D01*
X40698422Y-147350645D01*
X40746041Y-147303026D01*
X40793660Y-147207788D01*
X40793660Y-146922074D01*
X40746041Y-146826836D01*
X40698422Y-146779217D01*
%TO.C,C21*%
X132610862Y-87210662D02*
X132658481Y-87163043D01*
X132706100Y-87020186D01*
X132706100Y-86924948D01*
X132658481Y-86782091D01*
X132563243Y-86686853D01*
X132468005Y-86639234D01*
X132277529Y-86591615D01*
X132134672Y-86591615D01*
X131944196Y-86639234D01*
X131848958Y-86686853D01*
X131753720Y-86782091D01*
X131706100Y-86924948D01*
X131706100Y-87020186D01*
X131753720Y-87163043D01*
X131801339Y-87210662D01*
X131801339Y-87591615D02*
X131753720Y-87639234D01*
X131706100Y-87734472D01*
X131706100Y-87972567D01*
X131753720Y-88067805D01*
X131801339Y-88115424D01*
X131896577Y-88163043D01*
X131991815Y-88163043D01*
X132134672Y-88115424D01*
X132706100Y-87543996D01*
X132706100Y-88163043D01*
X132706100Y-89115424D02*
X132706100Y-88543996D01*
X132706100Y-88829710D02*
X131706100Y-88829710D01*
X131848958Y-88734472D01*
X131944196Y-88639234D01*
X131991815Y-88543996D01*
%TO.C,C20*%
X35415222Y-125031262D02*
X35462841Y-124983643D01*
X35510460Y-124840786D01*
X35510460Y-124745548D01*
X35462841Y-124602691D01*
X35367603Y-124507453D01*
X35272365Y-124459834D01*
X35081889Y-124412215D01*
X34939032Y-124412215D01*
X34748556Y-124459834D01*
X34653318Y-124507453D01*
X34558080Y-124602691D01*
X34510460Y-124745548D01*
X34510460Y-124840786D01*
X34558080Y-124983643D01*
X34605699Y-125031262D01*
X34605699Y-125412215D02*
X34558080Y-125459834D01*
X34510460Y-125555072D01*
X34510460Y-125793167D01*
X34558080Y-125888405D01*
X34605699Y-125936024D01*
X34700937Y-125983643D01*
X34796175Y-125983643D01*
X34939032Y-125936024D01*
X35510460Y-125364596D01*
X35510460Y-125983643D01*
X34510460Y-126602691D02*
X34510460Y-126697929D01*
X34558080Y-126793167D01*
X34605699Y-126840786D01*
X34700937Y-126888405D01*
X34891413Y-126936024D01*
X35129508Y-126936024D01*
X35319984Y-126888405D01*
X35415222Y-126840786D01*
X35462841Y-126793167D01*
X35510460Y-126697929D01*
X35510460Y-126602691D01*
X35462841Y-126507453D01*
X35415222Y-126459834D01*
X35319984Y-126412215D01*
X35129508Y-126364596D01*
X34891413Y-126364596D01*
X34700937Y-126412215D01*
X34605699Y-126459834D01*
X34558080Y-126507453D01*
X34510460Y-126602691D01*
%TO.C,C18*%
X132864862Y-106260662D02*
X132912481Y-106213043D01*
X132960100Y-106070186D01*
X132960100Y-105974948D01*
X132912481Y-105832091D01*
X132817243Y-105736853D01*
X132722005Y-105689234D01*
X132531529Y-105641615D01*
X132388672Y-105641615D01*
X132198196Y-105689234D01*
X132102958Y-105736853D01*
X132007720Y-105832091D01*
X131960100Y-105974948D01*
X131960100Y-106070186D01*
X132007720Y-106213043D01*
X132055339Y-106260662D01*
X132960100Y-107213043D02*
X132960100Y-106641615D01*
X132960100Y-106927329D02*
X131960100Y-106927329D01*
X132102958Y-106832091D01*
X132198196Y-106736853D01*
X132245815Y-106641615D01*
X132388672Y-107784472D02*
X132341053Y-107689234D01*
X132293434Y-107641615D01*
X132198196Y-107593996D01*
X132150577Y-107593996D01*
X132055339Y-107641615D01*
X132007720Y-107689234D01*
X131960100Y-107784472D01*
X131960100Y-107974948D01*
X132007720Y-108070186D01*
X132055339Y-108117805D01*
X132150577Y-108165424D01*
X132198196Y-108165424D01*
X132293434Y-108117805D01*
X132341053Y-108070186D01*
X132388672Y-107974948D01*
X132388672Y-107784472D01*
X132436291Y-107689234D01*
X132483910Y-107641615D01*
X132579148Y-107593996D01*
X132769624Y-107593996D01*
X132864862Y-107641615D01*
X132912481Y-107689234D01*
X132960100Y-107784472D01*
X132960100Y-107974948D01*
X132912481Y-108070186D01*
X132864862Y-108117805D01*
X132769624Y-108165424D01*
X132579148Y-108165424D01*
X132483910Y-108117805D01*
X132436291Y-108070186D01*
X132388672Y-107974948D01*
%TO.C,C17*%
X35415222Y-105981262D02*
X35462841Y-105933643D01*
X35510460Y-105790786D01*
X35510460Y-105695548D01*
X35462841Y-105552691D01*
X35367603Y-105457453D01*
X35272365Y-105409834D01*
X35081889Y-105362215D01*
X34939032Y-105362215D01*
X34748556Y-105409834D01*
X34653318Y-105457453D01*
X34558080Y-105552691D01*
X34510460Y-105695548D01*
X34510460Y-105790786D01*
X34558080Y-105933643D01*
X34605699Y-105981262D01*
X35510460Y-106933643D02*
X35510460Y-106362215D01*
X35510460Y-106647929D02*
X34510460Y-106647929D01*
X34653318Y-106552691D01*
X34748556Y-106457453D01*
X34796175Y-106362215D01*
X34510460Y-107266977D02*
X34510460Y-107933643D01*
X35510460Y-107505072D01*
%TO.C,C15*%
X132864862Y-125310662D02*
X132912481Y-125263043D01*
X132960100Y-125120186D01*
X132960100Y-125024948D01*
X132912481Y-124882091D01*
X132817243Y-124786853D01*
X132722005Y-124739234D01*
X132531529Y-124691615D01*
X132388672Y-124691615D01*
X132198196Y-124739234D01*
X132102958Y-124786853D01*
X132007720Y-124882091D01*
X131960100Y-125024948D01*
X131960100Y-125120186D01*
X132007720Y-125263043D01*
X132055339Y-125310662D01*
X132960100Y-126263043D02*
X132960100Y-125691615D01*
X132960100Y-125977329D02*
X131960100Y-125977329D01*
X132102958Y-125882091D01*
X132198196Y-125786853D01*
X132245815Y-125691615D01*
X131960100Y-127167805D02*
X131960100Y-126691615D01*
X132436291Y-126643996D01*
X132388672Y-126691615D01*
X132341053Y-126786853D01*
X132341053Y-127024948D01*
X132388672Y-127120186D01*
X132436291Y-127167805D01*
X132531529Y-127215424D01*
X132769624Y-127215424D01*
X132864862Y-127167805D01*
X132912481Y-127120186D01*
X132960100Y-127024948D01*
X132960100Y-126786853D01*
X132912481Y-126691615D01*
X132864862Y-126643996D01*
%TO.C,C14*%
X35415222Y-86931262D02*
X35462841Y-86883643D01*
X35510460Y-86740786D01*
X35510460Y-86645548D01*
X35462841Y-86502691D01*
X35367603Y-86407453D01*
X35272365Y-86359834D01*
X35081889Y-86312215D01*
X34939032Y-86312215D01*
X34748556Y-86359834D01*
X34653318Y-86407453D01*
X34558080Y-86502691D01*
X34510460Y-86645548D01*
X34510460Y-86740786D01*
X34558080Y-86883643D01*
X34605699Y-86931262D01*
X35510460Y-87883643D02*
X35510460Y-87312215D01*
X35510460Y-87597929D02*
X34510460Y-87597929D01*
X34653318Y-87502691D01*
X34748556Y-87407453D01*
X34796175Y-87312215D01*
X34843794Y-88740786D02*
X35510460Y-88740786D01*
X34462841Y-88502691D02*
X35177127Y-88264596D01*
X35177127Y-88883643D01*
%TO.C,C12*%
X129105662Y-145579862D02*
X129153281Y-145532243D01*
X129200900Y-145389386D01*
X129200900Y-145294148D01*
X129153281Y-145151291D01*
X129058043Y-145056053D01*
X128962805Y-145008434D01*
X128772329Y-144960815D01*
X128629472Y-144960815D01*
X128438996Y-145008434D01*
X128343758Y-145056053D01*
X128248520Y-145151291D01*
X128200900Y-145294148D01*
X128200900Y-145389386D01*
X128248520Y-145532243D01*
X128296139Y-145579862D01*
X129200900Y-146532243D02*
X129200900Y-145960815D01*
X129200900Y-146246529D02*
X128200900Y-146246529D01*
X128343758Y-146151291D01*
X128438996Y-146056053D01*
X128486615Y-145960815D01*
X128296139Y-146913196D02*
X128248520Y-146960815D01*
X128200900Y-147056053D01*
X128200900Y-147294148D01*
X128248520Y-147389386D01*
X128296139Y-147437005D01*
X128391377Y-147484624D01*
X128486615Y-147484624D01*
X128629472Y-147437005D01*
X129200900Y-146865577D01*
X129200900Y-147484624D01*
%TO.C,C11*%
X35415222Y-67627262D02*
X35462841Y-67579643D01*
X35510460Y-67436786D01*
X35510460Y-67341548D01*
X35462841Y-67198691D01*
X35367603Y-67103453D01*
X35272365Y-67055834D01*
X35081889Y-67008215D01*
X34939032Y-67008215D01*
X34748556Y-67055834D01*
X34653318Y-67103453D01*
X34558080Y-67198691D01*
X34510460Y-67341548D01*
X34510460Y-67436786D01*
X34558080Y-67579643D01*
X34605699Y-67627262D01*
X35510460Y-68579643D02*
X35510460Y-68008215D01*
X35510460Y-68293929D02*
X34510460Y-68293929D01*
X34653318Y-68198691D01*
X34748556Y-68103453D01*
X34796175Y-68008215D01*
X35510460Y-69532024D02*
X35510460Y-68960596D01*
X35510460Y-69246310D02*
X34510460Y-69246310D01*
X34653318Y-69151072D01*
X34748556Y-69055834D01*
X34796175Y-68960596D01*
%TO.C,C9*%
X105468422Y-145969693D02*
X105516041Y-145922074D01*
X105563660Y-145779217D01*
X105563660Y-145683979D01*
X105516041Y-145541121D01*
X105420803Y-145445883D01*
X105325565Y-145398264D01*
X105135089Y-145350645D01*
X104992232Y-145350645D01*
X104801756Y-145398264D01*
X104706518Y-145445883D01*
X104611280Y-145541121D01*
X104563660Y-145683979D01*
X104563660Y-145779217D01*
X104611280Y-145922074D01*
X104658899Y-145969693D01*
X105563660Y-146445883D02*
X105563660Y-146636360D01*
X105516041Y-146731598D01*
X105468422Y-146779217D01*
X105325565Y-146874455D01*
X105135089Y-146922074D01*
X104754137Y-146922074D01*
X104658899Y-146874455D01*
X104611280Y-146826836D01*
X104563660Y-146731598D01*
X104563660Y-146541121D01*
X104611280Y-146445883D01*
X104658899Y-146398264D01*
X104754137Y-146350645D01*
X104992232Y-146350645D01*
X105087470Y-146398264D01*
X105135089Y-146445883D01*
X105182708Y-146541121D01*
X105182708Y-146731598D01*
X105135089Y-146826836D01*
X105087470Y-146874455D01*
X104992232Y-146922074D01*
%TO.C,C8*%
X35420302Y-49019053D02*
X35467921Y-48971434D01*
X35515540Y-48828577D01*
X35515540Y-48733339D01*
X35467921Y-48590481D01*
X35372683Y-48495243D01*
X35277445Y-48447624D01*
X35086969Y-48400005D01*
X34944112Y-48400005D01*
X34753636Y-48447624D01*
X34658398Y-48495243D01*
X34563160Y-48590481D01*
X34515540Y-48733339D01*
X34515540Y-48828577D01*
X34563160Y-48971434D01*
X34610779Y-49019053D01*
X34944112Y-49590481D02*
X34896493Y-49495243D01*
X34848874Y-49447624D01*
X34753636Y-49400005D01*
X34706017Y-49400005D01*
X34610779Y-49447624D01*
X34563160Y-49495243D01*
X34515540Y-49590481D01*
X34515540Y-49780958D01*
X34563160Y-49876196D01*
X34610779Y-49923815D01*
X34706017Y-49971434D01*
X34753636Y-49971434D01*
X34848874Y-49923815D01*
X34896493Y-49876196D01*
X34944112Y-49780958D01*
X34944112Y-49590481D01*
X34991731Y-49495243D01*
X35039350Y-49447624D01*
X35134588Y-49400005D01*
X35325064Y-49400005D01*
X35420302Y-49447624D01*
X35467921Y-49495243D01*
X35515540Y-49590481D01*
X35515540Y-49780958D01*
X35467921Y-49876196D01*
X35420302Y-49923815D01*
X35325064Y-49971434D01*
X35134588Y-49971434D01*
X35039350Y-49923815D01*
X34991731Y-49876196D01*
X34944112Y-49780958D01*
%TO.C,C7*%
X132610862Y-34346853D02*
X132658481Y-34299234D01*
X132706100Y-34156377D01*
X132706100Y-34061139D01*
X132658481Y-33918281D01*
X132563243Y-33823043D01*
X132468005Y-33775424D01*
X132277529Y-33727805D01*
X132134672Y-33727805D01*
X131944196Y-33775424D01*
X131848958Y-33823043D01*
X131753720Y-33918281D01*
X131706100Y-34061139D01*
X131706100Y-34156377D01*
X131753720Y-34299234D01*
X131801339Y-34346853D01*
X131706100Y-34680186D02*
X131706100Y-35346853D01*
X132706100Y-34918281D01*
%TO.C,C6*%
X83878422Y-145969693D02*
X83926041Y-145922074D01*
X83973660Y-145779217D01*
X83973660Y-145683979D01*
X83926041Y-145541121D01*
X83830803Y-145445883D01*
X83735565Y-145398264D01*
X83545089Y-145350645D01*
X83402232Y-145350645D01*
X83211756Y-145398264D01*
X83116518Y-145445883D01*
X83021280Y-145541121D01*
X82973660Y-145683979D01*
X82973660Y-145779217D01*
X83021280Y-145922074D01*
X83068899Y-145969693D01*
X82973660Y-146826836D02*
X82973660Y-146636360D01*
X83021280Y-146541121D01*
X83068899Y-146493502D01*
X83211756Y-146398264D01*
X83402232Y-146350645D01*
X83783184Y-146350645D01*
X83878422Y-146398264D01*
X83926041Y-146445883D01*
X83973660Y-146541121D01*
X83973660Y-146731598D01*
X83926041Y-146826836D01*
X83878422Y-146874455D01*
X83783184Y-146922074D01*
X83545089Y-146922074D01*
X83449851Y-146874455D01*
X83402232Y-146826836D01*
X83354613Y-146731598D01*
X83354613Y-146541121D01*
X83402232Y-146445883D01*
X83449851Y-146398264D01*
X83545089Y-146350645D01*
%TO.C,C5*%
X35359342Y-33819693D02*
X35406961Y-33772074D01*
X35454580Y-33629217D01*
X35454580Y-33533979D01*
X35406961Y-33391121D01*
X35311723Y-33295883D01*
X35216485Y-33248264D01*
X35026009Y-33200645D01*
X34883152Y-33200645D01*
X34692676Y-33248264D01*
X34597438Y-33295883D01*
X34502200Y-33391121D01*
X34454580Y-33533979D01*
X34454580Y-33629217D01*
X34502200Y-33772074D01*
X34549819Y-33819693D01*
X34454580Y-34724455D02*
X34454580Y-34248264D01*
X34930771Y-34200645D01*
X34883152Y-34248264D01*
X34835533Y-34343502D01*
X34835533Y-34581598D01*
X34883152Y-34676836D01*
X34930771Y-34724455D01*
X35026009Y-34772074D01*
X35264104Y-34772074D01*
X35359342Y-34724455D01*
X35406961Y-34676836D01*
X35454580Y-34581598D01*
X35454580Y-34343502D01*
X35406961Y-34248264D01*
X35359342Y-34200645D01*
%TO.C,C2*%
X85915862Y-34123333D02*
X85963481Y-34075714D01*
X86011100Y-33932857D01*
X86011100Y-33837619D01*
X85963481Y-33694761D01*
X85868243Y-33599523D01*
X85773005Y-33551904D01*
X85582529Y-33504285D01*
X85439672Y-33504285D01*
X85249196Y-33551904D01*
X85153958Y-33599523D01*
X85058720Y-33694761D01*
X85011100Y-33837619D01*
X85011100Y-33932857D01*
X85058720Y-34075714D01*
X85106339Y-34123333D01*
X85106339Y-34504285D02*
X85058720Y-34551904D01*
X85011100Y-34647142D01*
X85011100Y-34885238D01*
X85058720Y-34980476D01*
X85106339Y-35028095D01*
X85201577Y-35075714D01*
X85296815Y-35075714D01*
X85439672Y-35028095D01*
X86011100Y-34456666D01*
X86011100Y-35075714D01*
%TO.C,C1*%
X88455862Y-34123333D02*
X88503481Y-34075714D01*
X88551100Y-33932857D01*
X88551100Y-33837619D01*
X88503481Y-33694761D01*
X88408243Y-33599523D01*
X88313005Y-33551904D01*
X88122529Y-33504285D01*
X87979672Y-33504285D01*
X87789196Y-33551904D01*
X87693958Y-33599523D01*
X87598720Y-33694761D01*
X87551100Y-33837619D01*
X87551100Y-33932857D01*
X87598720Y-34075714D01*
X87646339Y-34123333D01*
X88551100Y-35075714D02*
X88551100Y-34504285D01*
X88551100Y-34790000D02*
X87551100Y-34790000D01*
X87693958Y-34694761D01*
X87789196Y-34599523D01*
X87836815Y-34504285D01*
%TD*%
M02*
