M48
; DRILL file {KiCad 5.1.6} date Fri Oct  2 09:22:08 2020
; FORMAT={-:-/ absolute / inch / decimal}
; #@! TF.CreationDate,2020-10-02T09:22:08-04:00
; #@! TF.GenerationSoftware,Kicad,Pcbnew,5.1.6
; #@! TF.FileFunction,NonPlated,1,2,NPTH
FMAT,2
INCH
T1C0.0669
T2C0.1201
T3C0.1260
T4C0.1575
%
G90
G05
T1
X3.825Y-3.45
X4.225Y-3.45
X2.325Y-2.325
X2.725Y-2.325
X2.325Y-5.325
X2.725Y-5.325
X3.825Y-2.325
X4.225Y-2.325
X4.575Y-5.325
X4.975Y-5.325
X1.575Y-3.075
X1.975Y-3.075
X3.075Y-3.075
X3.475Y-3.075
X3.075Y-2.325
X3.475Y-2.325
X3.075Y-5.325
X3.475Y-5.325
X4.575Y-2.325
X4.975Y-2.325
X4.575Y-3.825
X4.975Y-3.825
X3.825Y-4.95
X4.225Y-4.95
X1.575Y-5.325
X1.975Y-5.325
X4.575Y-3.075
X4.975Y-3.075
X2.325Y-3.825
X2.725Y-3.825
X1.575Y-4.575
X1.975Y-4.575
X1.575Y-3.825
X1.975Y-3.825
X2.325Y-3.075
X2.725Y-3.075
X3.075Y-3.825
X3.475Y-3.825
X4.575Y-4.575
X4.975Y-4.575
X1.575Y-2.325
X1.975Y-2.325
X3.075Y-4.575
X3.475Y-4.575
X2.325Y-4.575
X2.725Y-4.575
T2
X3.7494Y-2.9815
X3.7494Y-3.9185
X3.7494Y-4.4815
X3.7494Y-5.4185
T3
X4.02Y-2.85
X5.25Y-1.58
X4.01Y-5.48
X1.2768Y-1.5688
X5.19Y-5.5
X1.33Y-5.5
T4
X3.275Y-5.325
X4.775Y-2.325
X4.775Y-3.825
X4.025Y-4.95
X4.3494Y-4.4815
X4.3494Y-5.4185
X1.775Y-5.325
X4.775Y-3.075
X2.525Y-3.825
X1.775Y-4.575
X1.775Y-3.825
X2.525Y-3.075
X3.275Y-3.825
X4.775Y-4.575
X1.775Y-2.325
X3.275Y-4.575
X2.525Y-4.575
X4.025Y-3.45
X4.3494Y-2.9815
X4.3494Y-3.9185
X2.525Y-2.325
X2.525Y-5.325
X4.025Y-2.325
X4.775Y-5.325
X1.775Y-3.075
X3.275Y-3.075
X3.275Y-2.325
T0
M30
