M48
; DRILL file {KiCad (5.1.0)-1} date 10/2/2020 12:35:24 PM
; FORMAT={-:-/ absolute / inch / decimal}
; #@! TF.CreationDate,2020-10-02T12:35:24-04:00
; #@! TF.GenerationSoftware,Kicad,Pcbnew,(5.1.0)-1
; #@! TF.FileFunction,Plated,1,2,PTH
FMAT,2
INCH
T1C0.0157
T2C0.0236
T3C0.0315
T4C0.0394
T5C0.0433
T6C0.0591
T7C0.1024
%
G90
G05
T1
X1.2734Y-1.3586
X1.4422Y-1.217
X1.445Y-1.4564
X1.452Y-1.8128
X2.3852Y-1.5956
X2.5104Y-1.4896
X2.5478Y-1.4064
X2.6534Y-1.9324
X2.6682Y-1.7846
X2.6696Y-1.8421
X2.7256Y-1.624
X2.7468Y-2.5714
X2.7554Y-1.547
X2.756Y-2.0052
X2.7861Y-5.5725
X2.8001Y-1.9967
X2.8012Y-1.3272
X2.8458Y-4.831
X2.8522Y-1.375
X2.8526Y-2.017
X2.8657Y-4.0725
X2.8776Y-1.618
X2.8844Y-2.042
X2.8932Y-1.5802
X2.8964Y-1.3854
X2.9018Y-1.9262
X2.9297Y-2.0417
X2.9297Y-3.3125
X2.9326Y-1.4102
X2.9372Y-1.8192
X2.9489Y-1.9776
X2.976Y-1.385
X2.9912Y-1.319
X3.0233Y-1.5526
X3.0324Y-1.4238
X3.107Y-1.2516
X3.196Y-1.2566
X3.2258Y-1.4406
X3.2968Y-1.2914
X3.473Y-1.359
X3.473Y-1.359
X4.9953Y-1.4218
X5.0053Y-2.0218
X5.0053Y-2.7718
X5.0053Y-4.2718
X5.0894Y-3.612
X5.0956Y-4.2708
X5.1883Y-1.4218
X5.2104Y-4.7196
X5.247Y-3.613
X5.2718Y-1.3992
X5.2718Y-3.4992
X5.2818Y-1.9992
X5.2818Y-2.7492
X5.2856Y-4.8408
X1.8511Y-1.4853
X1.8511Y-1.5384
X1.8846Y-1.4853
X1.8846Y-1.5384
X1.9181Y-1.4853
X1.9181Y-1.5384
X1.9515Y-1.4853
X1.9515Y-1.5384
X1.985Y-1.4853
X1.985Y-1.5384
X2.0185Y-1.4853
X2.0185Y-1.5384
X2.0519Y-1.4853
X2.0519Y-1.5384
X2.0854Y-1.4853
X2.0854Y-1.5384
T3
X2.3921Y-1.671
X2.3921Y-1.7497
X2.4709Y-1.671
X2.4709Y-1.7497
X2.5496Y-1.671
X2.5496Y-1.7497
X3.3372Y-1.6202
X3.3372Y-1.8123
T4
X3.7541Y-1.4531
X3.7541Y-1.65
X4.325Y-1.4531
X4.325Y-1.5516
X4.325Y-1.65
T5
X4.5767Y-1.6968
X4.5767Y-1.874
X4.8326Y-1.6968
X4.8326Y-1.874
X2.3914Y-1.2372
X2.3914Y-1.3872
X2.2414Y-1.2372
X2.2414Y-1.3872
X4.5697Y-1.2982
X4.5697Y-1.4754
X4.8256Y-1.2982
X4.8256Y-1.4754
T6
X2.375Y-2.225
X2.625Y-2.125
X4.625Y-5.225
X4.875Y-5.125
X3.875Y-2.225
X4.125Y-2.125
X3.125Y-4.475
X3.375Y-4.375
X3.125Y-5.225
X3.375Y-5.125
X3.875Y-3.35
X4.125Y-3.25
X3.875Y-4.85
X4.125Y-4.75
X2.375Y-2.975
X2.625Y-2.875
X4.625Y-2.975
X4.875Y-2.875
X3.125Y-2.975
X3.375Y-2.875
X1.625Y-2.225
X1.875Y-2.125
X3.125Y-2.225
X3.375Y-2.125
X1.625Y-4.475
X1.875Y-4.375
X4.625Y-3.725
X4.875Y-3.625
X2.375Y-3.725
X2.625Y-3.625
X1.625Y-5.225
X1.875Y-5.125
X3.125Y-3.725
X3.375Y-3.625
X1.625Y-3.725
X1.875Y-3.625
X4.625Y-2.225
X4.875Y-2.125
X4.625Y-4.475
X4.875Y-4.375
X2.375Y-4.475
X2.625Y-4.375
X2.375Y-5.225
X2.625Y-5.125
X1.625Y-2.975
X1.875Y-2.875
T7
X4.0297Y-1.3311
X4.0297Y-1.772
T2
G00X1.798Y-1.3825
M15
G01X1.798Y-1.351
M16
G05
G00X1.798Y-1.5293
M15
G01X1.798Y-1.4703
M16
G05
G00X2.1385Y-1.3825
M15
G01X2.1385Y-1.351
M16
G05
G00X2.1385Y-1.5293
M15
G01X2.1385Y-1.4703
M16
G05
T0
M30
