%TF.GenerationSoftware,KiCad,Pcbnew,(5.1.0)-1*%
%TF.CreationDate,2020-09-20T18:29:26-04:00*%
%TF.ProjectId,BadgersHollowSchematic,42616467-6572-4734-986f-6c6c6f775363,rev?*%
%TF.SameCoordinates,Original*%
%TF.FileFunction,Drawing*%
%FSLAX46Y46*%
G04 Gerber Fmt 4.6, Leading zero omitted, Abs format (unit mm)*
G04 Created by KiCad (PCBNEW (5.1.0)-1) date 2020-09-20 18:29:26*
%MOMM*%
%LPD*%
G04 APERTURE LIST*
%ADD10C,0.150000*%
%ADD11C,0.100000*%
G04 APERTURE END LIST*
D10*
%TO.C,SW5*%
X73660000Y-49530000D02*
X92710000Y-49530000D01*
X92710000Y-49530000D02*
X92710000Y-68580000D01*
X92710000Y-68580000D02*
X73660000Y-68580000D01*
X73660000Y-68580000D02*
X73660000Y-49530000D01*
%TO.C,SW23*%
X35560000Y-125730000D02*
X54610000Y-125730000D01*
X54610000Y-125730000D02*
X54610000Y-144780000D01*
X54610000Y-144780000D02*
X35560000Y-144780000D01*
X35560000Y-144780000D02*
X35560000Y-125730000D01*
%TO.C,SW26*%
X111760000Y-125730000D02*
X130810000Y-125730000D01*
X130810000Y-125730000D02*
X130810000Y-144780000D01*
X130810000Y-144780000D02*
X111760000Y-144780000D01*
X111760000Y-144780000D02*
X111760000Y-125730000D01*
%TO.C,SW25*%
X73660000Y-125730000D02*
X92710000Y-125730000D01*
X92710000Y-125730000D02*
X92710000Y-144780000D01*
X92710000Y-144780000D02*
X73660000Y-144780000D01*
X73660000Y-144780000D02*
X73660000Y-125730000D01*
%TO.C,SW24*%
X54610000Y-125730000D02*
X73660000Y-125730000D01*
X73660000Y-125730000D02*
X73660000Y-144780000D01*
X73660000Y-144780000D02*
X54610000Y-144780000D01*
X54610000Y-144780000D02*
X54610000Y-125730000D01*
%TO.C,SW22*%
X111760000Y-106680000D02*
X130810000Y-106680000D01*
X130810000Y-106680000D02*
X130810000Y-125730000D01*
X130810000Y-125730000D02*
X111760000Y-125730000D01*
X111760000Y-125730000D02*
X111760000Y-106680000D01*
%TO.C,SW21*%
X92710000Y-144780000D02*
X92710000Y-106680000D01*
X92710000Y-106680000D02*
X111760000Y-106680000D01*
X111760000Y-106680000D02*
X111760000Y-144780000D01*
X111760000Y-144780000D02*
X92710000Y-144780000D01*
%TO.C,SW20*%
X73660000Y-106680000D02*
X92710000Y-106680000D01*
X92710000Y-106680000D02*
X92710000Y-125730000D01*
X92710000Y-125730000D02*
X73660000Y-125730000D01*
X73660000Y-125730000D02*
X73660000Y-106680000D01*
%TO.C,SW19*%
X54610000Y-106680000D02*
X73660000Y-106680000D01*
X73660000Y-106680000D02*
X73660000Y-125730000D01*
X73660000Y-125730000D02*
X54610000Y-125730000D01*
X54610000Y-125730000D02*
X54610000Y-106680000D01*
%TO.C,SW18*%
X35560000Y-106680000D02*
X54610000Y-106680000D01*
X54610000Y-106680000D02*
X54610000Y-125730000D01*
X54610000Y-125730000D02*
X35560000Y-125730000D01*
X35560000Y-125730000D02*
X35560000Y-106680000D01*
%TO.C,SW17*%
X111760000Y-87630000D02*
X130810000Y-87630000D01*
X130810000Y-87630000D02*
X130810000Y-106680000D01*
X130810000Y-106680000D02*
X111760000Y-106680000D01*
X111760000Y-106680000D02*
X111760000Y-87630000D01*
%TO.C,SW15*%
X73660000Y-87630000D02*
X92710000Y-87630000D01*
X92710000Y-87630000D02*
X92710000Y-106680000D01*
X92710000Y-106680000D02*
X73660000Y-106680000D01*
X73660000Y-106680000D02*
X73660000Y-87630000D01*
%TO.C,SW14*%
X54610000Y-87630000D02*
X73660000Y-87630000D01*
X73660000Y-87630000D02*
X73660000Y-106680000D01*
X73660000Y-106680000D02*
X54610000Y-106680000D01*
X54610000Y-106680000D02*
X54610000Y-87630000D01*
%TO.C,SW13*%
X35560000Y-87630000D02*
X54610000Y-87630000D01*
X54610000Y-87630000D02*
X54610000Y-106680000D01*
X54610000Y-106680000D02*
X35560000Y-106680000D01*
X35560000Y-106680000D02*
X35560000Y-87630000D01*
%TO.C,SW12*%
X111760000Y-68580000D02*
X130810000Y-68580000D01*
X130810000Y-68580000D02*
X130810000Y-87630000D01*
X130810000Y-87630000D02*
X111760000Y-87630000D01*
X111760000Y-87630000D02*
X111760000Y-68580000D01*
%TO.C,SW11*%
X92710000Y-106680000D02*
X92710000Y-68580000D01*
X92710000Y-68580000D02*
X111760000Y-68580000D01*
X111760000Y-68580000D02*
X111760000Y-106680000D01*
X111760000Y-106680000D02*
X92710000Y-106680000D01*
%TO.C,SW10*%
X73660000Y-68580000D02*
X92710000Y-68580000D01*
X92710000Y-68580000D02*
X92710000Y-87630000D01*
X92710000Y-87630000D02*
X73660000Y-87630000D01*
X73660000Y-87630000D02*
X73660000Y-68580000D01*
%TO.C,SW9*%
X54610000Y-68580000D02*
X73660000Y-68580000D01*
X73660000Y-68580000D02*
X73660000Y-87630000D01*
X73660000Y-87630000D02*
X54610000Y-87630000D01*
X54610000Y-87630000D02*
X54610000Y-68580000D01*
%TO.C,SW8*%
X35560000Y-68580000D02*
X54610000Y-68580000D01*
X54610000Y-68580000D02*
X54610000Y-87630000D01*
X54610000Y-87630000D02*
X35560000Y-87630000D01*
X35560000Y-87630000D02*
X35560000Y-68580000D01*
%TO.C,SW7*%
X111760000Y-49530000D02*
X130810000Y-49530000D01*
X130810000Y-49530000D02*
X130810000Y-68580000D01*
X130810000Y-68580000D02*
X111760000Y-68580000D01*
X111760000Y-68580000D02*
X111760000Y-49530000D01*
%TO.C,SW6*%
X92710000Y-49530000D02*
X111760000Y-49530000D01*
X111760000Y-49530000D02*
X111760000Y-68580000D01*
X111760000Y-68580000D02*
X92710000Y-68580000D01*
X92710000Y-68580000D02*
X92710000Y-49530000D01*
%TO.C,SW4*%
X54610000Y-49530000D02*
X73660000Y-49530000D01*
X73660000Y-49530000D02*
X73660000Y-68580000D01*
X73660000Y-68580000D02*
X54610000Y-68580000D01*
X54610000Y-68580000D02*
X54610000Y-49530000D01*
%TO.C,SW3*%
X35560000Y-49530000D02*
X54610000Y-49530000D01*
X54610000Y-49530000D02*
X54610000Y-68580000D01*
X54610000Y-68580000D02*
X35560000Y-68580000D01*
X35560000Y-68580000D02*
X35560000Y-49530000D01*
%TD*%
%TO.C,J1*%
D11*
X48279874Y-33201550D02*
X48279874Y-32701550D01*
X48470350Y-32701550D01*
X48517969Y-32725360D01*
X48541779Y-32749169D01*
X48565588Y-32796788D01*
X48565588Y-32868217D01*
X48541779Y-32915836D01*
X48517969Y-32939645D01*
X48470350Y-32963455D01*
X48279874Y-32963455D01*
X49065588Y-33153931D02*
X49041779Y-33177740D01*
X48970350Y-33201550D01*
X48922731Y-33201550D01*
X48851302Y-33177740D01*
X48803683Y-33130121D01*
X48779874Y-33082502D01*
X48756064Y-32987264D01*
X48756064Y-32915836D01*
X48779874Y-32820598D01*
X48803683Y-32772979D01*
X48851302Y-32725360D01*
X48922731Y-32701550D01*
X48970350Y-32701550D01*
X49041779Y-32725360D01*
X49065588Y-32749169D01*
X49446540Y-32939645D02*
X49517969Y-32963455D01*
X49541779Y-32987264D01*
X49565588Y-33034883D01*
X49565588Y-33106312D01*
X49541779Y-33153931D01*
X49517969Y-33177740D01*
X49470350Y-33201550D01*
X49279874Y-33201550D01*
X49279874Y-32701550D01*
X49446540Y-32701550D01*
X49494160Y-32725360D01*
X49517969Y-32749169D01*
X49541779Y-32796788D01*
X49541779Y-32844407D01*
X49517969Y-32892026D01*
X49494160Y-32915836D01*
X49446540Y-32939645D01*
X49279874Y-32939645D01*
X50160826Y-32939645D02*
X50327493Y-32939645D01*
X50398921Y-33201550D02*
X50160826Y-33201550D01*
X50160826Y-32701550D01*
X50398921Y-32701550D01*
X50827493Y-33201550D02*
X50827493Y-32701550D01*
X50827493Y-33177740D02*
X50779874Y-33201550D01*
X50684636Y-33201550D01*
X50637017Y-33177740D01*
X50613207Y-33153931D01*
X50589398Y-33106312D01*
X50589398Y-32963455D01*
X50613207Y-32915836D01*
X50637017Y-32892026D01*
X50684636Y-32868217D01*
X50779874Y-32868217D01*
X50827493Y-32892026D01*
X51279874Y-32868217D02*
X51279874Y-33272979D01*
X51256064Y-33320598D01*
X51232255Y-33344407D01*
X51184636Y-33368217D01*
X51113207Y-33368217D01*
X51065588Y-33344407D01*
X51279874Y-33177740D02*
X51232255Y-33201550D01*
X51137017Y-33201550D01*
X51089398Y-33177740D01*
X51065588Y-33153931D01*
X51041779Y-33106312D01*
X51041779Y-32963455D01*
X51065588Y-32915836D01*
X51089398Y-32892026D01*
X51137017Y-32868217D01*
X51232255Y-32868217D01*
X51279874Y-32892026D01*
X51708445Y-33177740D02*
X51660826Y-33201550D01*
X51565588Y-33201550D01*
X51517969Y-33177740D01*
X51494160Y-33130121D01*
X51494160Y-32939645D01*
X51517969Y-32892026D01*
X51565588Y-32868217D01*
X51660826Y-32868217D01*
X51708445Y-32892026D01*
X51732255Y-32939645D01*
X51732255Y-32987264D01*
X51494160Y-33034883D01*
%TD*%
M02*
