%TF.GenerationSoftware,KiCad,Pcbnew,(5.1.0)-1*%
%TF.CreationDate,2020-09-20T18:29:26-04:00*%
%TF.ProjectId,BadgersHollowSchematic,42616467-6572-4734-986f-6c6c6f775363,rev?*%
%TF.SameCoordinates,Original*%
%TF.FileFunction,Paste,Top*%
%TF.FilePolarity,Positive*%
%FSLAX46Y46*%
G04 Gerber Fmt 4.6, Leading zero omitted, Abs format (unit mm)*
G04 Created by KiCad (PCBNEW (5.1.0)-1) date 2020-09-20 18:29:26*
%MOMM*%
%LPD*%
G04 APERTURE LIST*
%ADD10R,0.550000X1.500000*%
%ADD11R,1.500000X0.550000*%
%ADD12C,0.100000*%
%ADD13C,1.150000*%
%ADD14C,1.250000*%
%ADD15C,1.425000*%
%ADD16C,0.950000*%
G04 APERTURE END LIST*
D10*
%TO.C,U1*%
X69228200Y-31724360D03*
X70028200Y-31724360D03*
X70828200Y-31724360D03*
X71628200Y-31724360D03*
X72428200Y-31724360D03*
X73228200Y-31724360D03*
X74028200Y-31724360D03*
X74828200Y-31724360D03*
X75628200Y-31724360D03*
X76428200Y-31724360D03*
X77228200Y-31724360D03*
D11*
X78928200Y-33424360D03*
X78928200Y-34224360D03*
X78928200Y-35024360D03*
X78928200Y-35824360D03*
X78928200Y-36624360D03*
X78928200Y-37424360D03*
X78928200Y-38224360D03*
X78928200Y-39024360D03*
X78928200Y-39824360D03*
X78928200Y-40624360D03*
X78928200Y-41424360D03*
D10*
X77228200Y-43124360D03*
X76428200Y-43124360D03*
X75628200Y-43124360D03*
X74828200Y-43124360D03*
X74028200Y-43124360D03*
X73228200Y-43124360D03*
X72428200Y-43124360D03*
X71628200Y-43124360D03*
X70828200Y-43124360D03*
X70028200Y-43124360D03*
X69228200Y-43124360D03*
D11*
X67528200Y-41424360D03*
X67528200Y-40624360D03*
X67528200Y-39824360D03*
X67528200Y-39024360D03*
X67528200Y-38224360D03*
X67528200Y-37424360D03*
X67528200Y-36624360D03*
X67528200Y-35824360D03*
X67528200Y-35024360D03*
X67528200Y-34224360D03*
X67528200Y-33424360D03*
%TD*%
D12*
%TO.C,R7*%
G36*
X40320105Y-35425084D02*
G01*
X40344373Y-35428684D01*
X40368172Y-35434645D01*
X40391271Y-35442910D01*
X40413450Y-35453400D01*
X40434493Y-35466012D01*
X40454199Y-35480627D01*
X40472377Y-35497103D01*
X40488853Y-35515281D01*
X40503468Y-35534987D01*
X40516080Y-35556030D01*
X40526570Y-35578209D01*
X40534835Y-35601308D01*
X40540796Y-35625107D01*
X40544396Y-35649375D01*
X40545600Y-35673879D01*
X40545600Y-36573881D01*
X40544396Y-36598385D01*
X40540796Y-36622653D01*
X40534835Y-36646452D01*
X40526570Y-36669551D01*
X40516080Y-36691730D01*
X40503468Y-36712773D01*
X40488853Y-36732479D01*
X40472377Y-36750657D01*
X40454199Y-36767133D01*
X40434493Y-36781748D01*
X40413450Y-36794360D01*
X40391271Y-36804850D01*
X40368172Y-36813115D01*
X40344373Y-36819076D01*
X40320105Y-36822676D01*
X40295601Y-36823880D01*
X39645599Y-36823880D01*
X39621095Y-36822676D01*
X39596827Y-36819076D01*
X39573028Y-36813115D01*
X39549929Y-36804850D01*
X39527750Y-36794360D01*
X39506707Y-36781748D01*
X39487001Y-36767133D01*
X39468823Y-36750657D01*
X39452347Y-36732479D01*
X39437732Y-36712773D01*
X39425120Y-36691730D01*
X39414630Y-36669551D01*
X39406365Y-36646452D01*
X39400404Y-36622653D01*
X39396804Y-36598385D01*
X39395600Y-36573881D01*
X39395600Y-35673879D01*
X39396804Y-35649375D01*
X39400404Y-35625107D01*
X39406365Y-35601308D01*
X39414630Y-35578209D01*
X39425120Y-35556030D01*
X39437732Y-35534987D01*
X39452347Y-35515281D01*
X39468823Y-35497103D01*
X39487001Y-35480627D01*
X39506707Y-35466012D01*
X39527750Y-35453400D01*
X39549929Y-35442910D01*
X39573028Y-35434645D01*
X39596827Y-35428684D01*
X39621095Y-35425084D01*
X39645599Y-35423880D01*
X40295601Y-35423880D01*
X40320105Y-35425084D01*
X40320105Y-35425084D01*
G37*
D13*
X39970600Y-36123880D03*
D12*
G36*
X42370105Y-35425084D02*
G01*
X42394373Y-35428684D01*
X42418172Y-35434645D01*
X42441271Y-35442910D01*
X42463450Y-35453400D01*
X42484493Y-35466012D01*
X42504199Y-35480627D01*
X42522377Y-35497103D01*
X42538853Y-35515281D01*
X42553468Y-35534987D01*
X42566080Y-35556030D01*
X42576570Y-35578209D01*
X42584835Y-35601308D01*
X42590796Y-35625107D01*
X42594396Y-35649375D01*
X42595600Y-35673879D01*
X42595600Y-36573881D01*
X42594396Y-36598385D01*
X42590796Y-36622653D01*
X42584835Y-36646452D01*
X42576570Y-36669551D01*
X42566080Y-36691730D01*
X42553468Y-36712773D01*
X42538853Y-36732479D01*
X42522377Y-36750657D01*
X42504199Y-36767133D01*
X42484493Y-36781748D01*
X42463450Y-36794360D01*
X42441271Y-36804850D01*
X42418172Y-36813115D01*
X42394373Y-36819076D01*
X42370105Y-36822676D01*
X42345601Y-36823880D01*
X41695599Y-36823880D01*
X41671095Y-36822676D01*
X41646827Y-36819076D01*
X41623028Y-36813115D01*
X41599929Y-36804850D01*
X41577750Y-36794360D01*
X41556707Y-36781748D01*
X41537001Y-36767133D01*
X41518823Y-36750657D01*
X41502347Y-36732479D01*
X41487732Y-36712773D01*
X41475120Y-36691730D01*
X41464630Y-36669551D01*
X41456365Y-36646452D01*
X41450404Y-36622653D01*
X41446804Y-36598385D01*
X41445600Y-36573881D01*
X41445600Y-35673879D01*
X41446804Y-35649375D01*
X41450404Y-35625107D01*
X41456365Y-35601308D01*
X41464630Y-35578209D01*
X41475120Y-35556030D01*
X41487732Y-35534987D01*
X41502347Y-35515281D01*
X41518823Y-35497103D01*
X41537001Y-35480627D01*
X41556707Y-35466012D01*
X41577750Y-35453400D01*
X41599929Y-35442910D01*
X41623028Y-35434645D01*
X41646827Y-35428684D01*
X41671095Y-35425084D01*
X41695599Y-35423880D01*
X42345601Y-35423880D01*
X42370105Y-35425084D01*
X42370105Y-35425084D01*
G37*
D13*
X42020600Y-36123880D03*
%TD*%
D12*
%TO.C,R6*%
G36*
X50583625Y-40586684D02*
G01*
X50607893Y-40590284D01*
X50631692Y-40596245D01*
X50654791Y-40604510D01*
X50676970Y-40615000D01*
X50698013Y-40627612D01*
X50717719Y-40642227D01*
X50735897Y-40658703D01*
X50752373Y-40676881D01*
X50766988Y-40696587D01*
X50779600Y-40717630D01*
X50790090Y-40739809D01*
X50798355Y-40762908D01*
X50804316Y-40786707D01*
X50807916Y-40810975D01*
X50809120Y-40835479D01*
X50809120Y-41485481D01*
X50807916Y-41509985D01*
X50804316Y-41534253D01*
X50798355Y-41558052D01*
X50790090Y-41581151D01*
X50779600Y-41603330D01*
X50766988Y-41624373D01*
X50752373Y-41644079D01*
X50735897Y-41662257D01*
X50717719Y-41678733D01*
X50698013Y-41693348D01*
X50676970Y-41705960D01*
X50654791Y-41716450D01*
X50631692Y-41724715D01*
X50607893Y-41730676D01*
X50583625Y-41734276D01*
X50559121Y-41735480D01*
X49659119Y-41735480D01*
X49634615Y-41734276D01*
X49610347Y-41730676D01*
X49586548Y-41724715D01*
X49563449Y-41716450D01*
X49541270Y-41705960D01*
X49520227Y-41693348D01*
X49500521Y-41678733D01*
X49482343Y-41662257D01*
X49465867Y-41644079D01*
X49451252Y-41624373D01*
X49438640Y-41603330D01*
X49428150Y-41581151D01*
X49419885Y-41558052D01*
X49413924Y-41534253D01*
X49410324Y-41509985D01*
X49409120Y-41485481D01*
X49409120Y-40835479D01*
X49410324Y-40810975D01*
X49413924Y-40786707D01*
X49419885Y-40762908D01*
X49428150Y-40739809D01*
X49438640Y-40717630D01*
X49451252Y-40696587D01*
X49465867Y-40676881D01*
X49482343Y-40658703D01*
X49500521Y-40642227D01*
X49520227Y-40627612D01*
X49541270Y-40615000D01*
X49563449Y-40604510D01*
X49586548Y-40596245D01*
X49610347Y-40590284D01*
X49634615Y-40586684D01*
X49659119Y-40585480D01*
X50559121Y-40585480D01*
X50583625Y-40586684D01*
X50583625Y-40586684D01*
G37*
D13*
X50109120Y-41160480D03*
D12*
G36*
X50583625Y-42636684D02*
G01*
X50607893Y-42640284D01*
X50631692Y-42646245D01*
X50654791Y-42654510D01*
X50676970Y-42665000D01*
X50698013Y-42677612D01*
X50717719Y-42692227D01*
X50735897Y-42708703D01*
X50752373Y-42726881D01*
X50766988Y-42746587D01*
X50779600Y-42767630D01*
X50790090Y-42789809D01*
X50798355Y-42812908D01*
X50804316Y-42836707D01*
X50807916Y-42860975D01*
X50809120Y-42885479D01*
X50809120Y-43535481D01*
X50807916Y-43559985D01*
X50804316Y-43584253D01*
X50798355Y-43608052D01*
X50790090Y-43631151D01*
X50779600Y-43653330D01*
X50766988Y-43674373D01*
X50752373Y-43694079D01*
X50735897Y-43712257D01*
X50717719Y-43728733D01*
X50698013Y-43743348D01*
X50676970Y-43755960D01*
X50654791Y-43766450D01*
X50631692Y-43774715D01*
X50607893Y-43780676D01*
X50583625Y-43784276D01*
X50559121Y-43785480D01*
X49659119Y-43785480D01*
X49634615Y-43784276D01*
X49610347Y-43780676D01*
X49586548Y-43774715D01*
X49563449Y-43766450D01*
X49541270Y-43755960D01*
X49520227Y-43743348D01*
X49500521Y-43728733D01*
X49482343Y-43712257D01*
X49465867Y-43694079D01*
X49451252Y-43674373D01*
X49438640Y-43653330D01*
X49428150Y-43631151D01*
X49419885Y-43608052D01*
X49413924Y-43584253D01*
X49410324Y-43559985D01*
X49409120Y-43535481D01*
X49409120Y-42885479D01*
X49410324Y-42860975D01*
X49413924Y-42836707D01*
X49419885Y-42812908D01*
X49428150Y-42789809D01*
X49438640Y-42767630D01*
X49451252Y-42746587D01*
X49465867Y-42726881D01*
X49482343Y-42708703D01*
X49500521Y-42692227D01*
X49520227Y-42677612D01*
X49541270Y-42665000D01*
X49563449Y-42654510D01*
X49586548Y-42646245D01*
X49610347Y-42640284D01*
X49634615Y-42636684D01*
X49659119Y-42635480D01*
X50559121Y-42635480D01*
X50583625Y-42636684D01*
X50583625Y-42636684D01*
G37*
D13*
X50109120Y-43210480D03*
%TD*%
D12*
%TO.C,R5*%
G36*
X54821185Y-42547244D02*
G01*
X54845453Y-42550844D01*
X54869252Y-42556805D01*
X54892351Y-42565070D01*
X54914530Y-42575560D01*
X54935573Y-42588172D01*
X54955279Y-42602787D01*
X54973457Y-42619263D01*
X54989933Y-42637441D01*
X55004548Y-42657147D01*
X55017160Y-42678190D01*
X55027650Y-42700369D01*
X55035915Y-42723468D01*
X55041876Y-42747267D01*
X55045476Y-42771535D01*
X55046680Y-42796039D01*
X55046680Y-43696041D01*
X55045476Y-43720545D01*
X55041876Y-43744813D01*
X55035915Y-43768612D01*
X55027650Y-43791711D01*
X55017160Y-43813890D01*
X55004548Y-43834933D01*
X54989933Y-43854639D01*
X54973457Y-43872817D01*
X54955279Y-43889293D01*
X54935573Y-43903908D01*
X54914530Y-43916520D01*
X54892351Y-43927010D01*
X54869252Y-43935275D01*
X54845453Y-43941236D01*
X54821185Y-43944836D01*
X54796681Y-43946040D01*
X54146679Y-43946040D01*
X54122175Y-43944836D01*
X54097907Y-43941236D01*
X54074108Y-43935275D01*
X54051009Y-43927010D01*
X54028830Y-43916520D01*
X54007787Y-43903908D01*
X53988081Y-43889293D01*
X53969903Y-43872817D01*
X53953427Y-43854639D01*
X53938812Y-43834933D01*
X53926200Y-43813890D01*
X53915710Y-43791711D01*
X53907445Y-43768612D01*
X53901484Y-43744813D01*
X53897884Y-43720545D01*
X53896680Y-43696041D01*
X53896680Y-42796039D01*
X53897884Y-42771535D01*
X53901484Y-42747267D01*
X53907445Y-42723468D01*
X53915710Y-42700369D01*
X53926200Y-42678190D01*
X53938812Y-42657147D01*
X53953427Y-42637441D01*
X53969903Y-42619263D01*
X53988081Y-42602787D01*
X54007787Y-42588172D01*
X54028830Y-42575560D01*
X54051009Y-42565070D01*
X54074108Y-42556805D01*
X54097907Y-42550844D01*
X54122175Y-42547244D01*
X54146679Y-42546040D01*
X54796681Y-42546040D01*
X54821185Y-42547244D01*
X54821185Y-42547244D01*
G37*
D13*
X54471680Y-43246040D03*
D12*
G36*
X52771185Y-42547244D02*
G01*
X52795453Y-42550844D01*
X52819252Y-42556805D01*
X52842351Y-42565070D01*
X52864530Y-42575560D01*
X52885573Y-42588172D01*
X52905279Y-42602787D01*
X52923457Y-42619263D01*
X52939933Y-42637441D01*
X52954548Y-42657147D01*
X52967160Y-42678190D01*
X52977650Y-42700369D01*
X52985915Y-42723468D01*
X52991876Y-42747267D01*
X52995476Y-42771535D01*
X52996680Y-42796039D01*
X52996680Y-43696041D01*
X52995476Y-43720545D01*
X52991876Y-43744813D01*
X52985915Y-43768612D01*
X52977650Y-43791711D01*
X52967160Y-43813890D01*
X52954548Y-43834933D01*
X52939933Y-43854639D01*
X52923457Y-43872817D01*
X52905279Y-43889293D01*
X52885573Y-43903908D01*
X52864530Y-43916520D01*
X52842351Y-43927010D01*
X52819252Y-43935275D01*
X52795453Y-43941236D01*
X52771185Y-43944836D01*
X52746681Y-43946040D01*
X52096679Y-43946040D01*
X52072175Y-43944836D01*
X52047907Y-43941236D01*
X52024108Y-43935275D01*
X52001009Y-43927010D01*
X51978830Y-43916520D01*
X51957787Y-43903908D01*
X51938081Y-43889293D01*
X51919903Y-43872817D01*
X51903427Y-43854639D01*
X51888812Y-43834933D01*
X51876200Y-43813890D01*
X51865710Y-43791711D01*
X51857445Y-43768612D01*
X51851484Y-43744813D01*
X51847884Y-43720545D01*
X51846680Y-43696041D01*
X51846680Y-42796039D01*
X51847884Y-42771535D01*
X51851484Y-42747267D01*
X51857445Y-42723468D01*
X51865710Y-42700369D01*
X51876200Y-42678190D01*
X51888812Y-42657147D01*
X51903427Y-42637441D01*
X51919903Y-42619263D01*
X51938081Y-42602787D01*
X51957787Y-42588172D01*
X51978830Y-42575560D01*
X52001009Y-42565070D01*
X52024108Y-42556805D01*
X52047907Y-42550844D01*
X52072175Y-42547244D01*
X52096679Y-42546040D01*
X52746681Y-42546040D01*
X52771185Y-42547244D01*
X52771185Y-42547244D01*
G37*
D13*
X52421680Y-43246040D03*
%TD*%
D12*
%TO.C,R4*%
G36*
X52771185Y-40515244D02*
G01*
X52795453Y-40518844D01*
X52819252Y-40524805D01*
X52842351Y-40533070D01*
X52864530Y-40543560D01*
X52885573Y-40556172D01*
X52905279Y-40570787D01*
X52923457Y-40587263D01*
X52939933Y-40605441D01*
X52954548Y-40625147D01*
X52967160Y-40646190D01*
X52977650Y-40668369D01*
X52985915Y-40691468D01*
X52991876Y-40715267D01*
X52995476Y-40739535D01*
X52996680Y-40764039D01*
X52996680Y-41664041D01*
X52995476Y-41688545D01*
X52991876Y-41712813D01*
X52985915Y-41736612D01*
X52977650Y-41759711D01*
X52967160Y-41781890D01*
X52954548Y-41802933D01*
X52939933Y-41822639D01*
X52923457Y-41840817D01*
X52905279Y-41857293D01*
X52885573Y-41871908D01*
X52864530Y-41884520D01*
X52842351Y-41895010D01*
X52819252Y-41903275D01*
X52795453Y-41909236D01*
X52771185Y-41912836D01*
X52746681Y-41914040D01*
X52096679Y-41914040D01*
X52072175Y-41912836D01*
X52047907Y-41909236D01*
X52024108Y-41903275D01*
X52001009Y-41895010D01*
X51978830Y-41884520D01*
X51957787Y-41871908D01*
X51938081Y-41857293D01*
X51919903Y-41840817D01*
X51903427Y-41822639D01*
X51888812Y-41802933D01*
X51876200Y-41781890D01*
X51865710Y-41759711D01*
X51857445Y-41736612D01*
X51851484Y-41712813D01*
X51847884Y-41688545D01*
X51846680Y-41664041D01*
X51846680Y-40764039D01*
X51847884Y-40739535D01*
X51851484Y-40715267D01*
X51857445Y-40691468D01*
X51865710Y-40668369D01*
X51876200Y-40646190D01*
X51888812Y-40625147D01*
X51903427Y-40605441D01*
X51919903Y-40587263D01*
X51938081Y-40570787D01*
X51957787Y-40556172D01*
X51978830Y-40543560D01*
X52001009Y-40533070D01*
X52024108Y-40524805D01*
X52047907Y-40518844D01*
X52072175Y-40515244D01*
X52096679Y-40514040D01*
X52746681Y-40514040D01*
X52771185Y-40515244D01*
X52771185Y-40515244D01*
G37*
D13*
X52421680Y-41214040D03*
D12*
G36*
X54821185Y-40515244D02*
G01*
X54845453Y-40518844D01*
X54869252Y-40524805D01*
X54892351Y-40533070D01*
X54914530Y-40543560D01*
X54935573Y-40556172D01*
X54955279Y-40570787D01*
X54973457Y-40587263D01*
X54989933Y-40605441D01*
X55004548Y-40625147D01*
X55017160Y-40646190D01*
X55027650Y-40668369D01*
X55035915Y-40691468D01*
X55041876Y-40715267D01*
X55045476Y-40739535D01*
X55046680Y-40764039D01*
X55046680Y-41664041D01*
X55045476Y-41688545D01*
X55041876Y-41712813D01*
X55035915Y-41736612D01*
X55027650Y-41759711D01*
X55017160Y-41781890D01*
X55004548Y-41802933D01*
X54989933Y-41822639D01*
X54973457Y-41840817D01*
X54955279Y-41857293D01*
X54935573Y-41871908D01*
X54914530Y-41884520D01*
X54892351Y-41895010D01*
X54869252Y-41903275D01*
X54845453Y-41909236D01*
X54821185Y-41912836D01*
X54796681Y-41914040D01*
X54146679Y-41914040D01*
X54122175Y-41912836D01*
X54097907Y-41909236D01*
X54074108Y-41903275D01*
X54051009Y-41895010D01*
X54028830Y-41884520D01*
X54007787Y-41871908D01*
X53988081Y-41857293D01*
X53969903Y-41840817D01*
X53953427Y-41822639D01*
X53938812Y-41802933D01*
X53926200Y-41781890D01*
X53915710Y-41759711D01*
X53907445Y-41736612D01*
X53901484Y-41712813D01*
X53897884Y-41688545D01*
X53896680Y-41664041D01*
X53896680Y-40764039D01*
X53897884Y-40739535D01*
X53901484Y-40715267D01*
X53907445Y-40691468D01*
X53915710Y-40668369D01*
X53926200Y-40646190D01*
X53938812Y-40625147D01*
X53953427Y-40605441D01*
X53969903Y-40587263D01*
X53988081Y-40570787D01*
X54007787Y-40556172D01*
X54028830Y-40543560D01*
X54051009Y-40533070D01*
X54074108Y-40524805D01*
X54097907Y-40518844D01*
X54122175Y-40515244D01*
X54146679Y-40514040D01*
X54796681Y-40514040D01*
X54821185Y-40515244D01*
X54821185Y-40515244D01*
G37*
D13*
X54471680Y-41214040D03*
%TD*%
D12*
%TO.C,F1*%
G36*
X48518344Y-40686764D02*
G01*
X48542613Y-40690364D01*
X48566411Y-40696325D01*
X48589511Y-40704590D01*
X48611689Y-40715080D01*
X48632733Y-40727693D01*
X48652438Y-40742307D01*
X48670617Y-40758783D01*
X48687093Y-40776962D01*
X48701707Y-40796667D01*
X48714320Y-40817711D01*
X48724810Y-40839889D01*
X48733075Y-40862989D01*
X48739036Y-40886787D01*
X48742636Y-40911056D01*
X48743840Y-40935560D01*
X48743840Y-41685560D01*
X48742636Y-41710064D01*
X48739036Y-41734333D01*
X48733075Y-41758131D01*
X48724810Y-41781231D01*
X48714320Y-41803409D01*
X48701707Y-41824453D01*
X48687093Y-41844158D01*
X48670617Y-41862337D01*
X48652438Y-41878813D01*
X48632733Y-41893427D01*
X48611689Y-41906040D01*
X48589511Y-41916530D01*
X48566411Y-41924795D01*
X48542613Y-41930756D01*
X48518344Y-41934356D01*
X48493840Y-41935560D01*
X47243840Y-41935560D01*
X47219336Y-41934356D01*
X47195067Y-41930756D01*
X47171269Y-41924795D01*
X47148169Y-41916530D01*
X47125991Y-41906040D01*
X47104947Y-41893427D01*
X47085242Y-41878813D01*
X47067063Y-41862337D01*
X47050587Y-41844158D01*
X47035973Y-41824453D01*
X47023360Y-41803409D01*
X47012870Y-41781231D01*
X47004605Y-41758131D01*
X46998644Y-41734333D01*
X46995044Y-41710064D01*
X46993840Y-41685560D01*
X46993840Y-40935560D01*
X46995044Y-40911056D01*
X46998644Y-40886787D01*
X47004605Y-40862989D01*
X47012870Y-40839889D01*
X47023360Y-40817711D01*
X47035973Y-40796667D01*
X47050587Y-40776962D01*
X47067063Y-40758783D01*
X47085242Y-40742307D01*
X47104947Y-40727693D01*
X47125991Y-40715080D01*
X47148169Y-40704590D01*
X47171269Y-40696325D01*
X47195067Y-40690364D01*
X47219336Y-40686764D01*
X47243840Y-40685560D01*
X48493840Y-40685560D01*
X48518344Y-40686764D01*
X48518344Y-40686764D01*
G37*
D14*
X47868840Y-41310560D03*
D12*
G36*
X48518344Y-43486764D02*
G01*
X48542613Y-43490364D01*
X48566411Y-43496325D01*
X48589511Y-43504590D01*
X48611689Y-43515080D01*
X48632733Y-43527693D01*
X48652438Y-43542307D01*
X48670617Y-43558783D01*
X48687093Y-43576962D01*
X48701707Y-43596667D01*
X48714320Y-43617711D01*
X48724810Y-43639889D01*
X48733075Y-43662989D01*
X48739036Y-43686787D01*
X48742636Y-43711056D01*
X48743840Y-43735560D01*
X48743840Y-44485560D01*
X48742636Y-44510064D01*
X48739036Y-44534333D01*
X48733075Y-44558131D01*
X48724810Y-44581231D01*
X48714320Y-44603409D01*
X48701707Y-44624453D01*
X48687093Y-44644158D01*
X48670617Y-44662337D01*
X48652438Y-44678813D01*
X48632733Y-44693427D01*
X48611689Y-44706040D01*
X48589511Y-44716530D01*
X48566411Y-44724795D01*
X48542613Y-44730756D01*
X48518344Y-44734356D01*
X48493840Y-44735560D01*
X47243840Y-44735560D01*
X47219336Y-44734356D01*
X47195067Y-44730756D01*
X47171269Y-44724795D01*
X47148169Y-44716530D01*
X47125991Y-44706040D01*
X47104947Y-44693427D01*
X47085242Y-44678813D01*
X47067063Y-44662337D01*
X47050587Y-44644158D01*
X47035973Y-44624453D01*
X47023360Y-44603409D01*
X47012870Y-44581231D01*
X47004605Y-44558131D01*
X46998644Y-44534333D01*
X46995044Y-44510064D01*
X46993840Y-44485560D01*
X46993840Y-43735560D01*
X46995044Y-43711056D01*
X46998644Y-43686787D01*
X47004605Y-43662989D01*
X47012870Y-43639889D01*
X47023360Y-43617711D01*
X47035973Y-43596667D01*
X47050587Y-43576962D01*
X47067063Y-43558783D01*
X47085242Y-43542307D01*
X47104947Y-43527693D01*
X47125991Y-43515080D01*
X47148169Y-43504590D01*
X47171269Y-43496325D01*
X47195067Y-43490364D01*
X47219336Y-43486764D01*
X47243840Y-43485560D01*
X48493840Y-43485560D01*
X48518344Y-43486764D01*
X48518344Y-43486764D01*
G37*
D14*
X47868840Y-44110560D03*
%TD*%
D12*
%TO.C,D3*%
G36*
X39929064Y-30860964D02*
G01*
X39953333Y-30864564D01*
X39977131Y-30870525D01*
X40000231Y-30878790D01*
X40022409Y-30889280D01*
X40043453Y-30901893D01*
X40063158Y-30916507D01*
X40081337Y-30932983D01*
X40097813Y-30951162D01*
X40112427Y-30970867D01*
X40125040Y-30991911D01*
X40135530Y-31014089D01*
X40143795Y-31037189D01*
X40149756Y-31060987D01*
X40153356Y-31085256D01*
X40154560Y-31109760D01*
X40154560Y-32359760D01*
X40153356Y-32384264D01*
X40149756Y-32408533D01*
X40143795Y-32432331D01*
X40135530Y-32455431D01*
X40125040Y-32477609D01*
X40112427Y-32498653D01*
X40097813Y-32518358D01*
X40081337Y-32536537D01*
X40063158Y-32553013D01*
X40043453Y-32567627D01*
X40022409Y-32580240D01*
X40000231Y-32590730D01*
X39977131Y-32598995D01*
X39953333Y-32604956D01*
X39929064Y-32608556D01*
X39904560Y-32609760D01*
X38979560Y-32609760D01*
X38955056Y-32608556D01*
X38930787Y-32604956D01*
X38906989Y-32598995D01*
X38883889Y-32590730D01*
X38861711Y-32580240D01*
X38840667Y-32567627D01*
X38820962Y-32553013D01*
X38802783Y-32536537D01*
X38786307Y-32518358D01*
X38771693Y-32498653D01*
X38759080Y-32477609D01*
X38748590Y-32455431D01*
X38740325Y-32432331D01*
X38734364Y-32408533D01*
X38730764Y-32384264D01*
X38729560Y-32359760D01*
X38729560Y-31109760D01*
X38730764Y-31085256D01*
X38734364Y-31060987D01*
X38740325Y-31037189D01*
X38748590Y-31014089D01*
X38759080Y-30991911D01*
X38771693Y-30970867D01*
X38786307Y-30951162D01*
X38802783Y-30932983D01*
X38820962Y-30916507D01*
X38840667Y-30901893D01*
X38861711Y-30889280D01*
X38883889Y-30878790D01*
X38906989Y-30870525D01*
X38930787Y-30864564D01*
X38955056Y-30860964D01*
X38979560Y-30859760D01*
X39904560Y-30859760D01*
X39929064Y-30860964D01*
X39929064Y-30860964D01*
G37*
D15*
X39442060Y-31734760D03*
D12*
G36*
X42904064Y-30860964D02*
G01*
X42928333Y-30864564D01*
X42952131Y-30870525D01*
X42975231Y-30878790D01*
X42997409Y-30889280D01*
X43018453Y-30901893D01*
X43038158Y-30916507D01*
X43056337Y-30932983D01*
X43072813Y-30951162D01*
X43087427Y-30970867D01*
X43100040Y-30991911D01*
X43110530Y-31014089D01*
X43118795Y-31037189D01*
X43124756Y-31060987D01*
X43128356Y-31085256D01*
X43129560Y-31109760D01*
X43129560Y-32359760D01*
X43128356Y-32384264D01*
X43124756Y-32408533D01*
X43118795Y-32432331D01*
X43110530Y-32455431D01*
X43100040Y-32477609D01*
X43087427Y-32498653D01*
X43072813Y-32518358D01*
X43056337Y-32536537D01*
X43038158Y-32553013D01*
X43018453Y-32567627D01*
X42997409Y-32580240D01*
X42975231Y-32590730D01*
X42952131Y-32598995D01*
X42928333Y-32604956D01*
X42904064Y-32608556D01*
X42879560Y-32609760D01*
X41954560Y-32609760D01*
X41930056Y-32608556D01*
X41905787Y-32604956D01*
X41881989Y-32598995D01*
X41858889Y-32590730D01*
X41836711Y-32580240D01*
X41815667Y-32567627D01*
X41795962Y-32553013D01*
X41777783Y-32536537D01*
X41761307Y-32518358D01*
X41746693Y-32498653D01*
X41734080Y-32477609D01*
X41723590Y-32455431D01*
X41715325Y-32432331D01*
X41709364Y-32408533D01*
X41705764Y-32384264D01*
X41704560Y-32359760D01*
X41704560Y-31109760D01*
X41705764Y-31085256D01*
X41709364Y-31060987D01*
X41715325Y-31037189D01*
X41723590Y-31014089D01*
X41734080Y-30991911D01*
X41746693Y-30970867D01*
X41761307Y-30951162D01*
X41777783Y-30932983D01*
X41795962Y-30916507D01*
X41815667Y-30901893D01*
X41836711Y-30889280D01*
X41858889Y-30878790D01*
X41881989Y-30870525D01*
X41905787Y-30864564D01*
X41930056Y-30860964D01*
X41954560Y-30859760D01*
X42879560Y-30859760D01*
X42904064Y-30860964D01*
X42904064Y-30860964D01*
G37*
D15*
X42417060Y-31734760D03*
%TD*%
D12*
%TO.C,C4*%
G36*
X45838539Y-41861184D02*
G01*
X45861594Y-41864603D01*
X45884203Y-41870267D01*
X45906147Y-41878119D01*
X45927217Y-41888084D01*
X45947208Y-41900066D01*
X45965928Y-41913950D01*
X45983198Y-41929602D01*
X45998850Y-41946872D01*
X46012734Y-41965592D01*
X46024716Y-41985583D01*
X46034681Y-42006653D01*
X46042533Y-42028597D01*
X46048197Y-42051206D01*
X46051616Y-42074261D01*
X46052760Y-42097540D01*
X46052760Y-42672540D01*
X46051616Y-42695819D01*
X46048197Y-42718874D01*
X46042533Y-42741483D01*
X46034681Y-42763427D01*
X46024716Y-42784497D01*
X46012734Y-42804488D01*
X45998850Y-42823208D01*
X45983198Y-42840478D01*
X45965928Y-42856130D01*
X45947208Y-42870014D01*
X45927217Y-42881996D01*
X45906147Y-42891961D01*
X45884203Y-42899813D01*
X45861594Y-42905477D01*
X45838539Y-42908896D01*
X45815260Y-42910040D01*
X45340260Y-42910040D01*
X45316981Y-42908896D01*
X45293926Y-42905477D01*
X45271317Y-42899813D01*
X45249373Y-42891961D01*
X45228303Y-42881996D01*
X45208312Y-42870014D01*
X45189592Y-42856130D01*
X45172322Y-42840478D01*
X45156670Y-42823208D01*
X45142786Y-42804488D01*
X45130804Y-42784497D01*
X45120839Y-42763427D01*
X45112987Y-42741483D01*
X45107323Y-42718874D01*
X45103904Y-42695819D01*
X45102760Y-42672540D01*
X45102760Y-42097540D01*
X45103904Y-42074261D01*
X45107323Y-42051206D01*
X45112987Y-42028597D01*
X45120839Y-42006653D01*
X45130804Y-41985583D01*
X45142786Y-41965592D01*
X45156670Y-41946872D01*
X45172322Y-41929602D01*
X45189592Y-41913950D01*
X45208312Y-41900066D01*
X45228303Y-41888084D01*
X45249373Y-41878119D01*
X45271317Y-41870267D01*
X45293926Y-41864603D01*
X45316981Y-41861184D01*
X45340260Y-41860040D01*
X45815260Y-41860040D01*
X45838539Y-41861184D01*
X45838539Y-41861184D01*
G37*
D16*
X45577760Y-42385040D03*
D12*
G36*
X45838539Y-43611184D02*
G01*
X45861594Y-43614603D01*
X45884203Y-43620267D01*
X45906147Y-43628119D01*
X45927217Y-43638084D01*
X45947208Y-43650066D01*
X45965928Y-43663950D01*
X45983198Y-43679602D01*
X45998850Y-43696872D01*
X46012734Y-43715592D01*
X46024716Y-43735583D01*
X46034681Y-43756653D01*
X46042533Y-43778597D01*
X46048197Y-43801206D01*
X46051616Y-43824261D01*
X46052760Y-43847540D01*
X46052760Y-44422540D01*
X46051616Y-44445819D01*
X46048197Y-44468874D01*
X46042533Y-44491483D01*
X46034681Y-44513427D01*
X46024716Y-44534497D01*
X46012734Y-44554488D01*
X45998850Y-44573208D01*
X45983198Y-44590478D01*
X45965928Y-44606130D01*
X45947208Y-44620014D01*
X45927217Y-44631996D01*
X45906147Y-44641961D01*
X45884203Y-44649813D01*
X45861594Y-44655477D01*
X45838539Y-44658896D01*
X45815260Y-44660040D01*
X45340260Y-44660040D01*
X45316981Y-44658896D01*
X45293926Y-44655477D01*
X45271317Y-44649813D01*
X45249373Y-44641961D01*
X45228303Y-44631996D01*
X45208312Y-44620014D01*
X45189592Y-44606130D01*
X45172322Y-44590478D01*
X45156670Y-44573208D01*
X45142786Y-44554488D01*
X45130804Y-44534497D01*
X45120839Y-44513427D01*
X45112987Y-44491483D01*
X45107323Y-44468874D01*
X45103904Y-44445819D01*
X45102760Y-44422540D01*
X45102760Y-43847540D01*
X45103904Y-43824261D01*
X45107323Y-43801206D01*
X45112987Y-43778597D01*
X45120839Y-43756653D01*
X45130804Y-43735583D01*
X45142786Y-43715592D01*
X45156670Y-43696872D01*
X45172322Y-43679602D01*
X45189592Y-43663950D01*
X45208312Y-43650066D01*
X45228303Y-43638084D01*
X45249373Y-43628119D01*
X45271317Y-43620267D01*
X45293926Y-43614603D01*
X45316981Y-43611184D01*
X45340260Y-43610040D01*
X45815260Y-43610040D01*
X45838539Y-43611184D01*
X45838539Y-43611184D01*
G37*
D16*
X45577760Y-44135040D03*
%TD*%
D12*
%TO.C,C3*%
G36*
X62646824Y-38374284D02*
G01*
X62671093Y-38377884D01*
X62694891Y-38383845D01*
X62717991Y-38392110D01*
X62740169Y-38402600D01*
X62761213Y-38415213D01*
X62780918Y-38429827D01*
X62799097Y-38446303D01*
X62815573Y-38464482D01*
X62830187Y-38484187D01*
X62842800Y-38505231D01*
X62853290Y-38527409D01*
X62861555Y-38550509D01*
X62867516Y-38574307D01*
X62871116Y-38598576D01*
X62872320Y-38623080D01*
X62872320Y-39873080D01*
X62871116Y-39897584D01*
X62867516Y-39921853D01*
X62861555Y-39945651D01*
X62853290Y-39968751D01*
X62842800Y-39990929D01*
X62830187Y-40011973D01*
X62815573Y-40031678D01*
X62799097Y-40049857D01*
X62780918Y-40066333D01*
X62761213Y-40080947D01*
X62740169Y-40093560D01*
X62717991Y-40104050D01*
X62694891Y-40112315D01*
X62671093Y-40118276D01*
X62646824Y-40121876D01*
X62622320Y-40123080D01*
X61697320Y-40123080D01*
X61672816Y-40121876D01*
X61648547Y-40118276D01*
X61624749Y-40112315D01*
X61601649Y-40104050D01*
X61579471Y-40093560D01*
X61558427Y-40080947D01*
X61538722Y-40066333D01*
X61520543Y-40049857D01*
X61504067Y-40031678D01*
X61489453Y-40011973D01*
X61476840Y-39990929D01*
X61466350Y-39968751D01*
X61458085Y-39945651D01*
X61452124Y-39921853D01*
X61448524Y-39897584D01*
X61447320Y-39873080D01*
X61447320Y-38623080D01*
X61448524Y-38598576D01*
X61452124Y-38574307D01*
X61458085Y-38550509D01*
X61466350Y-38527409D01*
X61476840Y-38505231D01*
X61489453Y-38484187D01*
X61504067Y-38464482D01*
X61520543Y-38446303D01*
X61538722Y-38429827D01*
X61558427Y-38415213D01*
X61579471Y-38402600D01*
X61601649Y-38392110D01*
X61624749Y-38383845D01*
X61648547Y-38377884D01*
X61672816Y-38374284D01*
X61697320Y-38373080D01*
X62622320Y-38373080D01*
X62646824Y-38374284D01*
X62646824Y-38374284D01*
G37*
D15*
X62159820Y-39248080D03*
D12*
G36*
X65621824Y-38374284D02*
G01*
X65646093Y-38377884D01*
X65669891Y-38383845D01*
X65692991Y-38392110D01*
X65715169Y-38402600D01*
X65736213Y-38415213D01*
X65755918Y-38429827D01*
X65774097Y-38446303D01*
X65790573Y-38464482D01*
X65805187Y-38484187D01*
X65817800Y-38505231D01*
X65828290Y-38527409D01*
X65836555Y-38550509D01*
X65842516Y-38574307D01*
X65846116Y-38598576D01*
X65847320Y-38623080D01*
X65847320Y-39873080D01*
X65846116Y-39897584D01*
X65842516Y-39921853D01*
X65836555Y-39945651D01*
X65828290Y-39968751D01*
X65817800Y-39990929D01*
X65805187Y-40011973D01*
X65790573Y-40031678D01*
X65774097Y-40049857D01*
X65755918Y-40066333D01*
X65736213Y-40080947D01*
X65715169Y-40093560D01*
X65692991Y-40104050D01*
X65669891Y-40112315D01*
X65646093Y-40118276D01*
X65621824Y-40121876D01*
X65597320Y-40123080D01*
X64672320Y-40123080D01*
X64647816Y-40121876D01*
X64623547Y-40118276D01*
X64599749Y-40112315D01*
X64576649Y-40104050D01*
X64554471Y-40093560D01*
X64533427Y-40080947D01*
X64513722Y-40066333D01*
X64495543Y-40049857D01*
X64479067Y-40031678D01*
X64464453Y-40011973D01*
X64451840Y-39990929D01*
X64441350Y-39968751D01*
X64433085Y-39945651D01*
X64427124Y-39921853D01*
X64423524Y-39897584D01*
X64422320Y-39873080D01*
X64422320Y-38623080D01*
X64423524Y-38598576D01*
X64427124Y-38574307D01*
X64433085Y-38550509D01*
X64441350Y-38527409D01*
X64451840Y-38505231D01*
X64464453Y-38484187D01*
X64479067Y-38464482D01*
X64495543Y-38446303D01*
X64513722Y-38429827D01*
X64533427Y-38415213D01*
X64554471Y-38402600D01*
X64576649Y-38392110D01*
X64599749Y-38383845D01*
X64623547Y-38377884D01*
X64647816Y-38374284D01*
X64672320Y-38373080D01*
X65597320Y-38373080D01*
X65621824Y-38374284D01*
X65621824Y-38374284D01*
G37*
D15*
X65134820Y-39248080D03*
%TD*%
M02*
