%TF.GenerationSoftware,KiCad,Pcbnew,5.1.6*%
%TF.CreationDate,2020-10-02T09:22:04-04:00*%
%TF.ProjectId,BadgersHollowSchematic,42616467-6572-4734-986f-6c6c6f775363,rev?*%
%TF.SameCoordinates,Original*%
%TF.FileFunction,Soldermask,Top*%
%TF.FilePolarity,Negative*%
%FSLAX46Y46*%
G04 Gerber Fmt 4.6, Leading zero omitted, Abs format (unit mm)*
G04 Created by KiCad (PCBNEW 5.1.6) date 2020-10-02 09:22:04*
%MOMM*%
%LPD*%
G01*
G04 APERTURE LIST*
%ADD10C,1.800000*%
%ADD11C,4.100000*%
%ADD12C,2.300000*%
%ADD13C,3.300000*%
%ADD14C,1.600000*%
%ADD15R,0.650000X1.600000*%
%ADD16R,1.600000X0.650000*%
%ADD17R,2.100000X2.100000*%
%ADD18C,2.100000*%
%ADD19C,3.150000*%
%ADD20O,1.450000X1.450000*%
%ADD21R,1.450000X1.450000*%
%ADD22O,1.000000X1.800000*%
%ADD23O,1.000000X2.500000*%
%ADD24C,0.800000*%
%ADD25O,2.300000X2.300000*%
%ADD26R,2.300000X2.300000*%
G04 APERTURE END LIST*
D10*
%TO.C,SW5*%
X88265000Y-59055000D03*
X78105000Y-59055000D03*
D11*
X83185000Y-59055000D03*
D12*
X79375000Y-56515000D03*
X85725000Y-53975000D03*
%TD*%
D10*
%TO.C,SW23*%
X50165000Y-135255000D03*
X40005000Y-135255000D03*
D11*
X45085000Y-135255000D03*
D12*
X41275000Y-132715000D03*
X47625000Y-130175000D03*
%TD*%
D13*
%TO.C,REF\u002A\u002A*%
X32430720Y-39847520D03*
%TD*%
%TO.C,REF\u002A\u002A*%
X102108000Y-72390000D03*
%TD*%
%TO.C,REF\u002A\u002A*%
X33782000Y-139700000D03*
%TD*%
%TO.C,REF\u002A\u002A*%
X101854000Y-139192000D03*
%TD*%
%TO.C,REF\u002A\u002A*%
X131826000Y-139700000D03*
%TD*%
%TO.C,REF\u002A\u002A*%
X133350000Y-40132000D03*
%TD*%
D14*
%TO.C,Y1*%
X84764880Y-46033080D03*
X84764880Y-41153080D03*
%TD*%
D15*
%TO.C,U1*%
X69228200Y-31724360D03*
X70028200Y-31724360D03*
X70828200Y-31724360D03*
X71628200Y-31724360D03*
X72428200Y-31724360D03*
X73228200Y-31724360D03*
X74028200Y-31724360D03*
X74828200Y-31724360D03*
X75628200Y-31724360D03*
X76428200Y-31724360D03*
X77228200Y-31724360D03*
D16*
X78928200Y-33424360D03*
X78928200Y-34224360D03*
X78928200Y-35024360D03*
X78928200Y-35824360D03*
X78928200Y-36624360D03*
X78928200Y-37424360D03*
X78928200Y-38224360D03*
X78928200Y-39024360D03*
X78928200Y-39824360D03*
X78928200Y-40624360D03*
X78928200Y-41424360D03*
D15*
X77228200Y-43124360D03*
X76428200Y-43124360D03*
X75628200Y-43124360D03*
X74828200Y-43124360D03*
X74028200Y-43124360D03*
X73228200Y-43124360D03*
X72428200Y-43124360D03*
X71628200Y-43124360D03*
X70828200Y-43124360D03*
X70028200Y-43124360D03*
X69228200Y-43124360D03*
D16*
X67528200Y-41424360D03*
X67528200Y-40624360D03*
X67528200Y-39824360D03*
X67528200Y-39024360D03*
X67528200Y-38224360D03*
X67528200Y-37424360D03*
X67528200Y-36624360D03*
X67528200Y-35824360D03*
X67528200Y-35024360D03*
X67528200Y-34224360D03*
X67528200Y-33424360D03*
%TD*%
D17*
%TO.C,SW27*%
X109855000Y-41910000D03*
D18*
X109855000Y-39410000D03*
X109855000Y-36910000D03*
D13*
X102355000Y-45010000D03*
X102355000Y-33810000D03*
D18*
X95355000Y-41910000D03*
X95355000Y-36910000D03*
%TD*%
D10*
%TO.C,SW26*%
X126365000Y-135255000D03*
X116205000Y-135255000D03*
D11*
X121285000Y-135255000D03*
D12*
X117475000Y-132715000D03*
X123825000Y-130175000D03*
%TD*%
D10*
%TO.C,SW25*%
X88265000Y-135255000D03*
X78105000Y-135255000D03*
D11*
X83185000Y-135255000D03*
D12*
X79375000Y-132715000D03*
X85725000Y-130175000D03*
%TD*%
D10*
%TO.C,SW24*%
X69215000Y-135255000D03*
X59055000Y-135255000D03*
D11*
X64135000Y-135255000D03*
D12*
X60325000Y-132715000D03*
X66675000Y-130175000D03*
%TD*%
D10*
%TO.C,SW22*%
X126365000Y-116205000D03*
X116205000Y-116205000D03*
D11*
X121285000Y-116205000D03*
D12*
X117475000Y-113665000D03*
X123825000Y-111125000D03*
%TD*%
D19*
%TO.C,SW21*%
X95235000Y-113830000D03*
X95235000Y-137630000D03*
D11*
X110475000Y-137630000D03*
X110475000Y-113830000D03*
D10*
X107315000Y-125730000D03*
X97155000Y-125730000D03*
D11*
X102235000Y-125730000D03*
D12*
X98425000Y-123190000D03*
X104775000Y-120650000D03*
%TD*%
D10*
%TO.C,SW20*%
X88265000Y-116205000D03*
X78105000Y-116205000D03*
D11*
X83185000Y-116205000D03*
D12*
X79375000Y-113665000D03*
X85725000Y-111125000D03*
%TD*%
D10*
%TO.C,SW19*%
X69215000Y-116205000D03*
X59055000Y-116205000D03*
D11*
X64135000Y-116205000D03*
D12*
X60325000Y-113665000D03*
X66675000Y-111125000D03*
%TD*%
D10*
%TO.C,SW18*%
X50165000Y-116205000D03*
X40005000Y-116205000D03*
D11*
X45085000Y-116205000D03*
D12*
X41275000Y-113665000D03*
X47625000Y-111125000D03*
%TD*%
D10*
%TO.C,SW17*%
X126365000Y-97155000D03*
X116205000Y-97155000D03*
D11*
X121285000Y-97155000D03*
D12*
X117475000Y-94615000D03*
X123825000Y-92075000D03*
%TD*%
D10*
%TO.C,SW15*%
X88265000Y-97155000D03*
X78105000Y-97155000D03*
D11*
X83185000Y-97155000D03*
D12*
X79375000Y-94615000D03*
X85725000Y-92075000D03*
%TD*%
D10*
%TO.C,SW14*%
X69215000Y-97155000D03*
X59055000Y-97155000D03*
D11*
X64135000Y-97155000D03*
D12*
X60325000Y-94615000D03*
X66675000Y-92075000D03*
%TD*%
D10*
%TO.C,SW13*%
X50165000Y-97155000D03*
X40005000Y-97155000D03*
D11*
X45085000Y-97155000D03*
D12*
X41275000Y-94615000D03*
X47625000Y-92075000D03*
%TD*%
D10*
%TO.C,SW12*%
X126365000Y-78105000D03*
X116205000Y-78105000D03*
D11*
X121285000Y-78105000D03*
D12*
X117475000Y-75565000D03*
X123825000Y-73025000D03*
%TD*%
D19*
%TO.C,SW11*%
X95235000Y-75730000D03*
X95235000Y-99530000D03*
D11*
X110475000Y-99530000D03*
X110475000Y-75730000D03*
D10*
X107315000Y-87630000D03*
X97155000Y-87630000D03*
D11*
X102235000Y-87630000D03*
D12*
X98425000Y-85090000D03*
X104775000Y-82550000D03*
%TD*%
D10*
%TO.C,SW10*%
X88265000Y-78105000D03*
X78105000Y-78105000D03*
D11*
X83185000Y-78105000D03*
D12*
X79375000Y-75565000D03*
X85725000Y-73025000D03*
%TD*%
D10*
%TO.C,SW9*%
X69215000Y-78105000D03*
X59055000Y-78105000D03*
D11*
X64135000Y-78105000D03*
D12*
X60325000Y-75565000D03*
X66675000Y-73025000D03*
%TD*%
D10*
%TO.C,SW8*%
X50165000Y-78105000D03*
X40005000Y-78105000D03*
D11*
X45085000Y-78105000D03*
D12*
X41275000Y-75565000D03*
X47625000Y-73025000D03*
%TD*%
D10*
%TO.C,SW7*%
X126365000Y-59055000D03*
X116205000Y-59055000D03*
D11*
X121285000Y-59055000D03*
D12*
X117475000Y-56515000D03*
X123825000Y-53975000D03*
%TD*%
D10*
%TO.C,SW6*%
X107315000Y-59055000D03*
X97155000Y-59055000D03*
D11*
X102235000Y-59055000D03*
D12*
X98425000Y-56515000D03*
X104775000Y-53975000D03*
%TD*%
D10*
%TO.C,SW4*%
X69215000Y-59055000D03*
X59055000Y-59055000D03*
D11*
X64135000Y-59055000D03*
D12*
X60325000Y-56515000D03*
X66675000Y-53975000D03*
%TD*%
D10*
%TO.C,SW3*%
X50165000Y-59055000D03*
X40005000Y-59055000D03*
D11*
X45085000Y-59055000D03*
D12*
X41275000Y-56515000D03*
X47625000Y-53975000D03*
%TD*%
D18*
%TO.C,SW2*%
X116248040Y-47599600D03*
X116248040Y-43099600D03*
X122748040Y-47599600D03*
X122748040Y-43099600D03*
%TD*%
%TO.C,SW1*%
X116070240Y-37475160D03*
X116070240Y-32975160D03*
X122570240Y-37475160D03*
X122570240Y-32975160D03*
%TD*%
%TO.C,R7*%
G36*
G01*
X40595600Y-35645618D02*
X40595600Y-36602142D01*
G75*
G02*
X40323862Y-36873880I-271738J0D01*
G01*
X39617338Y-36873880D01*
G75*
G02*
X39345600Y-36602142I0J271738D01*
G01*
X39345600Y-35645618D01*
G75*
G02*
X39617338Y-35373880I271738J0D01*
G01*
X40323862Y-35373880D01*
G75*
G02*
X40595600Y-35645618I0J-271738D01*
G01*
G37*
G36*
G01*
X42645600Y-35645618D02*
X42645600Y-36602142D01*
G75*
G02*
X42373862Y-36873880I-271738J0D01*
G01*
X41667338Y-36873880D01*
G75*
G02*
X41395600Y-36602142I0J271738D01*
G01*
X41395600Y-35645618D01*
G75*
G02*
X41667338Y-35373880I271738J0D01*
G01*
X42373862Y-35373880D01*
G75*
G02*
X42645600Y-35645618I0J-271738D01*
G01*
G37*
%TD*%
%TO.C,R6*%
G36*
G01*
X50587382Y-41785480D02*
X49630858Y-41785480D01*
G75*
G02*
X49359120Y-41513742I0J271738D01*
G01*
X49359120Y-40807218D01*
G75*
G02*
X49630858Y-40535480I271738J0D01*
G01*
X50587382Y-40535480D01*
G75*
G02*
X50859120Y-40807218I0J-271738D01*
G01*
X50859120Y-41513742D01*
G75*
G02*
X50587382Y-41785480I-271738J0D01*
G01*
G37*
G36*
G01*
X50587382Y-43835480D02*
X49630858Y-43835480D01*
G75*
G02*
X49359120Y-43563742I0J271738D01*
G01*
X49359120Y-42857218D01*
G75*
G02*
X49630858Y-42585480I271738J0D01*
G01*
X50587382Y-42585480D01*
G75*
G02*
X50859120Y-42857218I0J-271738D01*
G01*
X50859120Y-43563742D01*
G75*
G02*
X50587382Y-43835480I-271738J0D01*
G01*
G37*
%TD*%
%TO.C,R5*%
G36*
G01*
X53846680Y-43724302D02*
X53846680Y-42767778D01*
G75*
G02*
X54118418Y-42496040I271738J0D01*
G01*
X54824942Y-42496040D01*
G75*
G02*
X55096680Y-42767778I0J-271738D01*
G01*
X55096680Y-43724302D01*
G75*
G02*
X54824942Y-43996040I-271738J0D01*
G01*
X54118418Y-43996040D01*
G75*
G02*
X53846680Y-43724302I0J271738D01*
G01*
G37*
G36*
G01*
X51796680Y-43724302D02*
X51796680Y-42767778D01*
G75*
G02*
X52068418Y-42496040I271738J0D01*
G01*
X52774942Y-42496040D01*
G75*
G02*
X53046680Y-42767778I0J-271738D01*
G01*
X53046680Y-43724302D01*
G75*
G02*
X52774942Y-43996040I-271738J0D01*
G01*
X52068418Y-43996040D01*
G75*
G02*
X51796680Y-43724302I0J271738D01*
G01*
G37*
%TD*%
%TO.C,R4*%
G36*
G01*
X53046680Y-40735778D02*
X53046680Y-41692302D01*
G75*
G02*
X52774942Y-41964040I-271738J0D01*
G01*
X52068418Y-41964040D01*
G75*
G02*
X51796680Y-41692302I0J271738D01*
G01*
X51796680Y-40735778D01*
G75*
G02*
X52068418Y-40464040I271738J0D01*
G01*
X52774942Y-40464040D01*
G75*
G02*
X53046680Y-40735778I0J-271738D01*
G01*
G37*
G36*
G01*
X55096680Y-40735778D02*
X55096680Y-41692302D01*
G75*
G02*
X54824942Y-41964040I-271738J0D01*
G01*
X54118418Y-41964040D01*
G75*
G02*
X53846680Y-41692302I0J271738D01*
G01*
X53846680Y-40735778D01*
G75*
G02*
X54118418Y-40464040I271738J0D01*
G01*
X54824942Y-40464040D01*
G75*
G02*
X55096680Y-40735778I0J-271738D01*
G01*
G37*
%TD*%
D20*
%TO.C,J2*%
X60759840Y-44443400D03*
X60759840Y-42443400D03*
X62759840Y-44443400D03*
X62759840Y-42443400D03*
X64759840Y-44443400D03*
D21*
X64759840Y-42443400D03*
%TD*%
D22*
%TO.C,J1*%
X45669160Y-34715360D03*
X54319160Y-34715360D03*
D23*
X45669160Y-38095360D03*
X54319160Y-38095360D03*
D24*
X49569160Y-37725360D03*
X47019160Y-37725360D03*
X47869160Y-37725360D03*
X48719160Y-37725360D03*
X52969160Y-37725360D03*
X51269160Y-37725360D03*
X50419160Y-37725360D03*
X52119160Y-37725360D03*
X47019160Y-39075360D03*
X47869160Y-39075360D03*
X48719160Y-39075360D03*
X49569160Y-39075360D03*
X50419160Y-39075360D03*
X51269160Y-39075360D03*
X52119160Y-39075360D03*
X52969160Y-39075360D03*
%TD*%
%TO.C,F1*%
G36*
G01*
X48523840Y-41985560D02*
X47213840Y-41985560D01*
G75*
G02*
X46943840Y-41715560I0J270000D01*
G01*
X46943840Y-40905560D01*
G75*
G02*
X47213840Y-40635560I270000J0D01*
G01*
X48523840Y-40635560D01*
G75*
G02*
X48793840Y-40905560I0J-270000D01*
G01*
X48793840Y-41715560D01*
G75*
G02*
X48523840Y-41985560I-270000J0D01*
G01*
G37*
G36*
G01*
X48523840Y-44785560D02*
X47213840Y-44785560D01*
G75*
G02*
X46943840Y-44515560I0J270000D01*
G01*
X46943840Y-43705560D01*
G75*
G02*
X47213840Y-43435560I270000J0D01*
G01*
X48523840Y-43435560D01*
G75*
G02*
X48793840Y-43705560I0J-270000D01*
G01*
X48793840Y-44515560D01*
G75*
G02*
X48523840Y-44785560I-270000J0D01*
G01*
G37*
%TD*%
%TO.C,D3*%
G36*
G01*
X40204560Y-31077304D02*
X40204560Y-32392216D01*
G75*
G02*
X39937016Y-32659760I-267544J0D01*
G01*
X38947104Y-32659760D01*
G75*
G02*
X38679560Y-32392216I0J267544D01*
G01*
X38679560Y-31077304D01*
G75*
G02*
X38947104Y-30809760I267544J0D01*
G01*
X39937016Y-30809760D01*
G75*
G02*
X40204560Y-31077304I0J-267544D01*
G01*
G37*
G36*
G01*
X43179560Y-31077304D02*
X43179560Y-32392216D01*
G75*
G02*
X42912016Y-32659760I-267544J0D01*
G01*
X41922104Y-32659760D01*
G75*
G02*
X41654560Y-32392216I0J267544D01*
G01*
X41654560Y-31077304D01*
G75*
G02*
X41922104Y-30809760I267544J0D01*
G01*
X42912016Y-30809760D01*
G75*
G02*
X43179560Y-31077304I0J-267544D01*
G01*
G37*
%TD*%
D25*
%TO.C,D2*%
X60741560Y-31424880D03*
D26*
X60741560Y-35234880D03*
%TD*%
D25*
%TO.C,D1*%
X56931560Y-31424880D03*
D26*
X56931560Y-35234880D03*
%TD*%
%TO.C,C4*%
G36*
G01*
X45840260Y-42960040D02*
X45315260Y-42960040D01*
G75*
G02*
X45052760Y-42697540I0J262500D01*
G01*
X45052760Y-42072540D01*
G75*
G02*
X45315260Y-41810040I262500J0D01*
G01*
X45840260Y-41810040D01*
G75*
G02*
X46102760Y-42072540I0J-262500D01*
G01*
X46102760Y-42697540D01*
G75*
G02*
X45840260Y-42960040I-262500J0D01*
G01*
G37*
G36*
G01*
X45840260Y-44710040D02*
X45315260Y-44710040D01*
G75*
G02*
X45052760Y-44447540I0J262500D01*
G01*
X45052760Y-43822540D01*
G75*
G02*
X45315260Y-43560040I262500J0D01*
G01*
X45840260Y-43560040D01*
G75*
G02*
X46102760Y-43822540I0J-262500D01*
G01*
X46102760Y-44447540D01*
G75*
G02*
X45840260Y-44710040I-262500J0D01*
G01*
G37*
%TD*%
%TO.C,C3*%
G36*
G01*
X62922320Y-38590624D02*
X62922320Y-39905536D01*
G75*
G02*
X62654776Y-40173080I-267544J0D01*
G01*
X61664864Y-40173080D01*
G75*
G02*
X61397320Y-39905536I0J267544D01*
G01*
X61397320Y-38590624D01*
G75*
G02*
X61664864Y-38323080I267544J0D01*
G01*
X62654776Y-38323080D01*
G75*
G02*
X62922320Y-38590624I0J-267544D01*
G01*
G37*
G36*
G01*
X65897320Y-38590624D02*
X65897320Y-39905536D01*
G75*
G02*
X65629776Y-40173080I-267544J0D01*
G01*
X64639864Y-40173080D01*
G75*
G02*
X64372320Y-39905536I0J267544D01*
G01*
X64372320Y-38590624D01*
G75*
G02*
X64639864Y-38323080I267544J0D01*
G01*
X65629776Y-38323080D01*
G75*
G02*
X65897320Y-38590624I0J-267544D01*
G01*
G37*
%TD*%
M02*
