%TF.GenerationSoftware,KiCad,Pcbnew,(5.1.0)-1*%
%TF.CreationDate,2020-09-26T21:32:43-04:00*%
%TF.ProjectId,BadgersHollowSchematic,42616467-6572-4734-986f-6c6c6f775363,rev?*%
%TF.SameCoordinates,Original*%
%TF.FileFunction,Soldermask,Top*%
%TF.FilePolarity,Negative*%
%FSLAX46Y46*%
G04 Gerber Fmt 4.6, Leading zero omitted, Abs format (unit mm)*
G04 Created by KiCad (PCBNEW (5.1.0)-1) date 2020-09-26 21:32:43*
%MOMM*%
%LPD*%
G04 APERTURE LIST*
%ADD10C,1.800000*%
%ADD11C,4.100000*%
%ADD12C,2.300000*%
%ADD13C,3.300000*%
%ADD14C,1.600000*%
%ADD15R,0.650000X1.600000*%
%ADD16R,1.600000X0.650000*%
%ADD17R,2.100000X2.100000*%
%ADD18C,2.100000*%
%ADD19C,3.150000*%
%ADD20C,0.100000*%
%ADD21C,1.250000*%
%ADD22O,1.450000X1.450000*%
%ADD23R,1.450000X1.450000*%
%ADD24O,1.000000X1.800000*%
%ADD25O,1.000000X2.500000*%
%ADD26C,0.800000*%
%ADD27C,1.350000*%
%ADD28C,1.525000*%
%ADD29O,2.300000X2.300000*%
%ADD30R,2.300000X2.300000*%
%ADD31C,1.050000*%
G04 APERTURE END LIST*
D10*
%TO.C,SW5*%
X88265000Y-59055000D03*
X78105000Y-59055000D03*
D11*
X83185000Y-59055000D03*
D12*
X79375000Y-56515000D03*
X85725000Y-53975000D03*
%TD*%
D10*
%TO.C,SW23*%
X50165000Y-135255000D03*
X40005000Y-135255000D03*
D11*
X45085000Y-135255000D03*
D12*
X41275000Y-132715000D03*
X47625000Y-130175000D03*
%TD*%
D13*
%TO.C,REF\002A\002A*%
X32430720Y-39847520D03*
%TD*%
%TO.C,REF\002A\002A*%
X102108000Y-72390000D03*
%TD*%
%TO.C,REF\002A\002A*%
X33782000Y-139700000D03*
%TD*%
%TO.C,REF\002A\002A*%
X101854000Y-139192000D03*
%TD*%
%TO.C,REF\002A\002A*%
X131826000Y-139700000D03*
%TD*%
%TO.C,REF\002A\002A*%
X133350000Y-40132000D03*
%TD*%
D14*
%TO.C,Y1*%
X84764880Y-46033080D03*
X84764880Y-41153080D03*
%TD*%
D15*
%TO.C,U1*%
X69228200Y-31724360D03*
X70028200Y-31724360D03*
X70828200Y-31724360D03*
X71628200Y-31724360D03*
X72428200Y-31724360D03*
X73228200Y-31724360D03*
X74028200Y-31724360D03*
X74828200Y-31724360D03*
X75628200Y-31724360D03*
X76428200Y-31724360D03*
X77228200Y-31724360D03*
D16*
X78928200Y-33424360D03*
X78928200Y-34224360D03*
X78928200Y-35024360D03*
X78928200Y-35824360D03*
X78928200Y-36624360D03*
X78928200Y-37424360D03*
X78928200Y-38224360D03*
X78928200Y-39024360D03*
X78928200Y-39824360D03*
X78928200Y-40624360D03*
X78928200Y-41424360D03*
D15*
X77228200Y-43124360D03*
X76428200Y-43124360D03*
X75628200Y-43124360D03*
X74828200Y-43124360D03*
X74028200Y-43124360D03*
X73228200Y-43124360D03*
X72428200Y-43124360D03*
X71628200Y-43124360D03*
X70828200Y-43124360D03*
X70028200Y-43124360D03*
X69228200Y-43124360D03*
D16*
X67528200Y-41424360D03*
X67528200Y-40624360D03*
X67528200Y-39824360D03*
X67528200Y-39024360D03*
X67528200Y-38224360D03*
X67528200Y-37424360D03*
X67528200Y-36624360D03*
X67528200Y-35824360D03*
X67528200Y-35024360D03*
X67528200Y-34224360D03*
X67528200Y-33424360D03*
%TD*%
D17*
%TO.C,SW27*%
X109855000Y-41910000D03*
D18*
X109855000Y-39410000D03*
X109855000Y-36910000D03*
D13*
X102355000Y-45010000D03*
X102355000Y-33810000D03*
D18*
X95355000Y-41910000D03*
X95355000Y-36910000D03*
%TD*%
D10*
%TO.C,SW26*%
X126365000Y-135255000D03*
X116205000Y-135255000D03*
D11*
X121285000Y-135255000D03*
D12*
X117475000Y-132715000D03*
X123825000Y-130175000D03*
%TD*%
D10*
%TO.C,SW25*%
X88265000Y-135255000D03*
X78105000Y-135255000D03*
D11*
X83185000Y-135255000D03*
D12*
X79375000Y-132715000D03*
X85725000Y-130175000D03*
%TD*%
D10*
%TO.C,SW24*%
X69215000Y-135255000D03*
X59055000Y-135255000D03*
D11*
X64135000Y-135255000D03*
D12*
X60325000Y-132715000D03*
X66675000Y-130175000D03*
%TD*%
D10*
%TO.C,SW22*%
X126365000Y-116205000D03*
X116205000Y-116205000D03*
D11*
X121285000Y-116205000D03*
D12*
X117475000Y-113665000D03*
X123825000Y-111125000D03*
%TD*%
D19*
%TO.C,SW21*%
X95235000Y-113830000D03*
X95235000Y-137630000D03*
D11*
X110475000Y-137630000D03*
X110475000Y-113830000D03*
D10*
X107315000Y-125730000D03*
X97155000Y-125730000D03*
D11*
X102235000Y-125730000D03*
D12*
X98425000Y-123190000D03*
X104775000Y-120650000D03*
%TD*%
D10*
%TO.C,SW20*%
X88265000Y-116205000D03*
X78105000Y-116205000D03*
D11*
X83185000Y-116205000D03*
D12*
X79375000Y-113665000D03*
X85725000Y-111125000D03*
%TD*%
D10*
%TO.C,SW19*%
X69215000Y-116205000D03*
X59055000Y-116205000D03*
D11*
X64135000Y-116205000D03*
D12*
X60325000Y-113665000D03*
X66675000Y-111125000D03*
%TD*%
D10*
%TO.C,SW18*%
X50165000Y-116205000D03*
X40005000Y-116205000D03*
D11*
X45085000Y-116205000D03*
D12*
X41275000Y-113665000D03*
X47625000Y-111125000D03*
%TD*%
D10*
%TO.C,SW17*%
X126365000Y-97155000D03*
X116205000Y-97155000D03*
D11*
X121285000Y-97155000D03*
D12*
X117475000Y-94615000D03*
X123825000Y-92075000D03*
%TD*%
D10*
%TO.C,SW15*%
X88265000Y-97155000D03*
X78105000Y-97155000D03*
D11*
X83185000Y-97155000D03*
D12*
X79375000Y-94615000D03*
X85725000Y-92075000D03*
%TD*%
D10*
%TO.C,SW14*%
X69215000Y-97155000D03*
X59055000Y-97155000D03*
D11*
X64135000Y-97155000D03*
D12*
X60325000Y-94615000D03*
X66675000Y-92075000D03*
%TD*%
D10*
%TO.C,SW13*%
X50165000Y-97155000D03*
X40005000Y-97155000D03*
D11*
X45085000Y-97155000D03*
D12*
X41275000Y-94615000D03*
X47625000Y-92075000D03*
%TD*%
D10*
%TO.C,SW12*%
X126365000Y-78105000D03*
X116205000Y-78105000D03*
D11*
X121285000Y-78105000D03*
D12*
X117475000Y-75565000D03*
X123825000Y-73025000D03*
%TD*%
D19*
%TO.C,SW11*%
X95235000Y-75730000D03*
X95235000Y-99530000D03*
D11*
X110475000Y-99530000D03*
X110475000Y-75730000D03*
D10*
X107315000Y-87630000D03*
X97155000Y-87630000D03*
D11*
X102235000Y-87630000D03*
D12*
X98425000Y-85090000D03*
X104775000Y-82550000D03*
%TD*%
D10*
%TO.C,SW10*%
X88265000Y-78105000D03*
X78105000Y-78105000D03*
D11*
X83185000Y-78105000D03*
D12*
X79375000Y-75565000D03*
X85725000Y-73025000D03*
%TD*%
D10*
%TO.C,SW9*%
X69215000Y-78105000D03*
X59055000Y-78105000D03*
D11*
X64135000Y-78105000D03*
D12*
X60325000Y-75565000D03*
X66675000Y-73025000D03*
%TD*%
D10*
%TO.C,SW8*%
X50165000Y-78105000D03*
X40005000Y-78105000D03*
D11*
X45085000Y-78105000D03*
D12*
X41275000Y-75565000D03*
X47625000Y-73025000D03*
%TD*%
D10*
%TO.C,SW7*%
X126365000Y-59055000D03*
X116205000Y-59055000D03*
D11*
X121285000Y-59055000D03*
D12*
X117475000Y-56515000D03*
X123825000Y-53975000D03*
%TD*%
D10*
%TO.C,SW6*%
X107315000Y-59055000D03*
X97155000Y-59055000D03*
D11*
X102235000Y-59055000D03*
D12*
X98425000Y-56515000D03*
X104775000Y-53975000D03*
%TD*%
D10*
%TO.C,SW4*%
X69215000Y-59055000D03*
X59055000Y-59055000D03*
D11*
X64135000Y-59055000D03*
D12*
X60325000Y-56515000D03*
X66675000Y-53975000D03*
%TD*%
D10*
%TO.C,SW3*%
X50165000Y-59055000D03*
X40005000Y-59055000D03*
D11*
X45085000Y-59055000D03*
D12*
X41275000Y-56515000D03*
X47625000Y-53975000D03*
%TD*%
D18*
%TO.C,SW2*%
X116248040Y-47599600D03*
X116248040Y-43099600D03*
X122748040Y-47599600D03*
X122748040Y-43099600D03*
%TD*%
%TO.C,SW1*%
X116070240Y-37475160D03*
X116070240Y-32975160D03*
X122570240Y-37475160D03*
X122570240Y-32975160D03*
%TD*%
D20*
%TO.C,R7*%
G36*
X40350497Y-35375188D02*
G01*
X40376875Y-35379101D01*
X40402743Y-35385581D01*
X40427852Y-35394565D01*
X40451958Y-35405966D01*
X40474832Y-35419676D01*
X40496251Y-35435562D01*
X40516010Y-35453470D01*
X40533918Y-35473229D01*
X40549804Y-35494648D01*
X40563514Y-35517522D01*
X40574915Y-35541628D01*
X40583899Y-35566737D01*
X40590379Y-35592605D01*
X40594292Y-35618983D01*
X40595600Y-35645618D01*
X40595600Y-36602142D01*
X40594292Y-36628777D01*
X40590379Y-36655155D01*
X40583899Y-36681023D01*
X40574915Y-36706132D01*
X40563514Y-36730238D01*
X40549804Y-36753112D01*
X40533918Y-36774531D01*
X40516010Y-36794290D01*
X40496251Y-36812198D01*
X40474832Y-36828084D01*
X40451958Y-36841794D01*
X40427852Y-36853195D01*
X40402743Y-36862179D01*
X40376875Y-36868659D01*
X40350497Y-36872572D01*
X40323862Y-36873880D01*
X39617338Y-36873880D01*
X39590703Y-36872572D01*
X39564325Y-36868659D01*
X39538457Y-36862179D01*
X39513348Y-36853195D01*
X39489242Y-36841794D01*
X39466368Y-36828084D01*
X39444949Y-36812198D01*
X39425190Y-36794290D01*
X39407282Y-36774531D01*
X39391396Y-36753112D01*
X39377686Y-36730238D01*
X39366285Y-36706132D01*
X39357301Y-36681023D01*
X39350821Y-36655155D01*
X39346908Y-36628777D01*
X39345600Y-36602142D01*
X39345600Y-35645618D01*
X39346908Y-35618983D01*
X39350821Y-35592605D01*
X39357301Y-35566737D01*
X39366285Y-35541628D01*
X39377686Y-35517522D01*
X39391396Y-35494648D01*
X39407282Y-35473229D01*
X39425190Y-35453470D01*
X39444949Y-35435562D01*
X39466368Y-35419676D01*
X39489242Y-35405966D01*
X39513348Y-35394565D01*
X39538457Y-35385581D01*
X39564325Y-35379101D01*
X39590703Y-35375188D01*
X39617338Y-35373880D01*
X40323862Y-35373880D01*
X40350497Y-35375188D01*
X40350497Y-35375188D01*
G37*
D21*
X39970600Y-36123880D03*
D20*
G36*
X42400497Y-35375188D02*
G01*
X42426875Y-35379101D01*
X42452743Y-35385581D01*
X42477852Y-35394565D01*
X42501958Y-35405966D01*
X42524832Y-35419676D01*
X42546251Y-35435562D01*
X42566010Y-35453470D01*
X42583918Y-35473229D01*
X42599804Y-35494648D01*
X42613514Y-35517522D01*
X42624915Y-35541628D01*
X42633899Y-35566737D01*
X42640379Y-35592605D01*
X42644292Y-35618983D01*
X42645600Y-35645618D01*
X42645600Y-36602142D01*
X42644292Y-36628777D01*
X42640379Y-36655155D01*
X42633899Y-36681023D01*
X42624915Y-36706132D01*
X42613514Y-36730238D01*
X42599804Y-36753112D01*
X42583918Y-36774531D01*
X42566010Y-36794290D01*
X42546251Y-36812198D01*
X42524832Y-36828084D01*
X42501958Y-36841794D01*
X42477852Y-36853195D01*
X42452743Y-36862179D01*
X42426875Y-36868659D01*
X42400497Y-36872572D01*
X42373862Y-36873880D01*
X41667338Y-36873880D01*
X41640703Y-36872572D01*
X41614325Y-36868659D01*
X41588457Y-36862179D01*
X41563348Y-36853195D01*
X41539242Y-36841794D01*
X41516368Y-36828084D01*
X41494949Y-36812198D01*
X41475190Y-36794290D01*
X41457282Y-36774531D01*
X41441396Y-36753112D01*
X41427686Y-36730238D01*
X41416285Y-36706132D01*
X41407301Y-36681023D01*
X41400821Y-36655155D01*
X41396908Y-36628777D01*
X41395600Y-36602142D01*
X41395600Y-35645618D01*
X41396908Y-35618983D01*
X41400821Y-35592605D01*
X41407301Y-35566737D01*
X41416285Y-35541628D01*
X41427686Y-35517522D01*
X41441396Y-35494648D01*
X41457282Y-35473229D01*
X41475190Y-35453470D01*
X41494949Y-35435562D01*
X41516368Y-35419676D01*
X41539242Y-35405966D01*
X41563348Y-35394565D01*
X41588457Y-35385581D01*
X41614325Y-35379101D01*
X41640703Y-35375188D01*
X41667338Y-35373880D01*
X42373862Y-35373880D01*
X42400497Y-35375188D01*
X42400497Y-35375188D01*
G37*
D21*
X42020600Y-36123880D03*
%TD*%
D20*
%TO.C,R6*%
G36*
X50614017Y-40536788D02*
G01*
X50640395Y-40540701D01*
X50666263Y-40547181D01*
X50691372Y-40556165D01*
X50715478Y-40567566D01*
X50738352Y-40581276D01*
X50759771Y-40597162D01*
X50779530Y-40615070D01*
X50797438Y-40634829D01*
X50813324Y-40656248D01*
X50827034Y-40679122D01*
X50838435Y-40703228D01*
X50847419Y-40728337D01*
X50853899Y-40754205D01*
X50857812Y-40780583D01*
X50859120Y-40807218D01*
X50859120Y-41513742D01*
X50857812Y-41540377D01*
X50853899Y-41566755D01*
X50847419Y-41592623D01*
X50838435Y-41617732D01*
X50827034Y-41641838D01*
X50813324Y-41664712D01*
X50797438Y-41686131D01*
X50779530Y-41705890D01*
X50759771Y-41723798D01*
X50738352Y-41739684D01*
X50715478Y-41753394D01*
X50691372Y-41764795D01*
X50666263Y-41773779D01*
X50640395Y-41780259D01*
X50614017Y-41784172D01*
X50587382Y-41785480D01*
X49630858Y-41785480D01*
X49604223Y-41784172D01*
X49577845Y-41780259D01*
X49551977Y-41773779D01*
X49526868Y-41764795D01*
X49502762Y-41753394D01*
X49479888Y-41739684D01*
X49458469Y-41723798D01*
X49438710Y-41705890D01*
X49420802Y-41686131D01*
X49404916Y-41664712D01*
X49391206Y-41641838D01*
X49379805Y-41617732D01*
X49370821Y-41592623D01*
X49364341Y-41566755D01*
X49360428Y-41540377D01*
X49359120Y-41513742D01*
X49359120Y-40807218D01*
X49360428Y-40780583D01*
X49364341Y-40754205D01*
X49370821Y-40728337D01*
X49379805Y-40703228D01*
X49391206Y-40679122D01*
X49404916Y-40656248D01*
X49420802Y-40634829D01*
X49438710Y-40615070D01*
X49458469Y-40597162D01*
X49479888Y-40581276D01*
X49502762Y-40567566D01*
X49526868Y-40556165D01*
X49551977Y-40547181D01*
X49577845Y-40540701D01*
X49604223Y-40536788D01*
X49630858Y-40535480D01*
X50587382Y-40535480D01*
X50614017Y-40536788D01*
X50614017Y-40536788D01*
G37*
D21*
X50109120Y-41160480D03*
D20*
G36*
X50614017Y-42586788D02*
G01*
X50640395Y-42590701D01*
X50666263Y-42597181D01*
X50691372Y-42606165D01*
X50715478Y-42617566D01*
X50738352Y-42631276D01*
X50759771Y-42647162D01*
X50779530Y-42665070D01*
X50797438Y-42684829D01*
X50813324Y-42706248D01*
X50827034Y-42729122D01*
X50838435Y-42753228D01*
X50847419Y-42778337D01*
X50853899Y-42804205D01*
X50857812Y-42830583D01*
X50859120Y-42857218D01*
X50859120Y-43563742D01*
X50857812Y-43590377D01*
X50853899Y-43616755D01*
X50847419Y-43642623D01*
X50838435Y-43667732D01*
X50827034Y-43691838D01*
X50813324Y-43714712D01*
X50797438Y-43736131D01*
X50779530Y-43755890D01*
X50759771Y-43773798D01*
X50738352Y-43789684D01*
X50715478Y-43803394D01*
X50691372Y-43814795D01*
X50666263Y-43823779D01*
X50640395Y-43830259D01*
X50614017Y-43834172D01*
X50587382Y-43835480D01*
X49630858Y-43835480D01*
X49604223Y-43834172D01*
X49577845Y-43830259D01*
X49551977Y-43823779D01*
X49526868Y-43814795D01*
X49502762Y-43803394D01*
X49479888Y-43789684D01*
X49458469Y-43773798D01*
X49438710Y-43755890D01*
X49420802Y-43736131D01*
X49404916Y-43714712D01*
X49391206Y-43691838D01*
X49379805Y-43667732D01*
X49370821Y-43642623D01*
X49364341Y-43616755D01*
X49360428Y-43590377D01*
X49359120Y-43563742D01*
X49359120Y-42857218D01*
X49360428Y-42830583D01*
X49364341Y-42804205D01*
X49370821Y-42778337D01*
X49379805Y-42753228D01*
X49391206Y-42729122D01*
X49404916Y-42706248D01*
X49420802Y-42684829D01*
X49438710Y-42665070D01*
X49458469Y-42647162D01*
X49479888Y-42631276D01*
X49502762Y-42617566D01*
X49526868Y-42606165D01*
X49551977Y-42597181D01*
X49577845Y-42590701D01*
X49604223Y-42586788D01*
X49630858Y-42585480D01*
X50587382Y-42585480D01*
X50614017Y-42586788D01*
X50614017Y-42586788D01*
G37*
D21*
X50109120Y-43210480D03*
%TD*%
D20*
%TO.C,R5*%
G36*
X54851577Y-42497348D02*
G01*
X54877955Y-42501261D01*
X54903823Y-42507741D01*
X54928932Y-42516725D01*
X54953038Y-42528126D01*
X54975912Y-42541836D01*
X54997331Y-42557722D01*
X55017090Y-42575630D01*
X55034998Y-42595389D01*
X55050884Y-42616808D01*
X55064594Y-42639682D01*
X55075995Y-42663788D01*
X55084979Y-42688897D01*
X55091459Y-42714765D01*
X55095372Y-42741143D01*
X55096680Y-42767778D01*
X55096680Y-43724302D01*
X55095372Y-43750937D01*
X55091459Y-43777315D01*
X55084979Y-43803183D01*
X55075995Y-43828292D01*
X55064594Y-43852398D01*
X55050884Y-43875272D01*
X55034998Y-43896691D01*
X55017090Y-43916450D01*
X54997331Y-43934358D01*
X54975912Y-43950244D01*
X54953038Y-43963954D01*
X54928932Y-43975355D01*
X54903823Y-43984339D01*
X54877955Y-43990819D01*
X54851577Y-43994732D01*
X54824942Y-43996040D01*
X54118418Y-43996040D01*
X54091783Y-43994732D01*
X54065405Y-43990819D01*
X54039537Y-43984339D01*
X54014428Y-43975355D01*
X53990322Y-43963954D01*
X53967448Y-43950244D01*
X53946029Y-43934358D01*
X53926270Y-43916450D01*
X53908362Y-43896691D01*
X53892476Y-43875272D01*
X53878766Y-43852398D01*
X53867365Y-43828292D01*
X53858381Y-43803183D01*
X53851901Y-43777315D01*
X53847988Y-43750937D01*
X53846680Y-43724302D01*
X53846680Y-42767778D01*
X53847988Y-42741143D01*
X53851901Y-42714765D01*
X53858381Y-42688897D01*
X53867365Y-42663788D01*
X53878766Y-42639682D01*
X53892476Y-42616808D01*
X53908362Y-42595389D01*
X53926270Y-42575630D01*
X53946029Y-42557722D01*
X53967448Y-42541836D01*
X53990322Y-42528126D01*
X54014428Y-42516725D01*
X54039537Y-42507741D01*
X54065405Y-42501261D01*
X54091783Y-42497348D01*
X54118418Y-42496040D01*
X54824942Y-42496040D01*
X54851577Y-42497348D01*
X54851577Y-42497348D01*
G37*
D21*
X54471680Y-43246040D03*
D20*
G36*
X52801577Y-42497348D02*
G01*
X52827955Y-42501261D01*
X52853823Y-42507741D01*
X52878932Y-42516725D01*
X52903038Y-42528126D01*
X52925912Y-42541836D01*
X52947331Y-42557722D01*
X52967090Y-42575630D01*
X52984998Y-42595389D01*
X53000884Y-42616808D01*
X53014594Y-42639682D01*
X53025995Y-42663788D01*
X53034979Y-42688897D01*
X53041459Y-42714765D01*
X53045372Y-42741143D01*
X53046680Y-42767778D01*
X53046680Y-43724302D01*
X53045372Y-43750937D01*
X53041459Y-43777315D01*
X53034979Y-43803183D01*
X53025995Y-43828292D01*
X53014594Y-43852398D01*
X53000884Y-43875272D01*
X52984998Y-43896691D01*
X52967090Y-43916450D01*
X52947331Y-43934358D01*
X52925912Y-43950244D01*
X52903038Y-43963954D01*
X52878932Y-43975355D01*
X52853823Y-43984339D01*
X52827955Y-43990819D01*
X52801577Y-43994732D01*
X52774942Y-43996040D01*
X52068418Y-43996040D01*
X52041783Y-43994732D01*
X52015405Y-43990819D01*
X51989537Y-43984339D01*
X51964428Y-43975355D01*
X51940322Y-43963954D01*
X51917448Y-43950244D01*
X51896029Y-43934358D01*
X51876270Y-43916450D01*
X51858362Y-43896691D01*
X51842476Y-43875272D01*
X51828766Y-43852398D01*
X51817365Y-43828292D01*
X51808381Y-43803183D01*
X51801901Y-43777315D01*
X51797988Y-43750937D01*
X51796680Y-43724302D01*
X51796680Y-42767778D01*
X51797988Y-42741143D01*
X51801901Y-42714765D01*
X51808381Y-42688897D01*
X51817365Y-42663788D01*
X51828766Y-42639682D01*
X51842476Y-42616808D01*
X51858362Y-42595389D01*
X51876270Y-42575630D01*
X51896029Y-42557722D01*
X51917448Y-42541836D01*
X51940322Y-42528126D01*
X51964428Y-42516725D01*
X51989537Y-42507741D01*
X52015405Y-42501261D01*
X52041783Y-42497348D01*
X52068418Y-42496040D01*
X52774942Y-42496040D01*
X52801577Y-42497348D01*
X52801577Y-42497348D01*
G37*
D21*
X52421680Y-43246040D03*
%TD*%
D20*
%TO.C,R4*%
G36*
X52801577Y-40465348D02*
G01*
X52827955Y-40469261D01*
X52853823Y-40475741D01*
X52878932Y-40484725D01*
X52903038Y-40496126D01*
X52925912Y-40509836D01*
X52947331Y-40525722D01*
X52967090Y-40543630D01*
X52984998Y-40563389D01*
X53000884Y-40584808D01*
X53014594Y-40607682D01*
X53025995Y-40631788D01*
X53034979Y-40656897D01*
X53041459Y-40682765D01*
X53045372Y-40709143D01*
X53046680Y-40735778D01*
X53046680Y-41692302D01*
X53045372Y-41718937D01*
X53041459Y-41745315D01*
X53034979Y-41771183D01*
X53025995Y-41796292D01*
X53014594Y-41820398D01*
X53000884Y-41843272D01*
X52984998Y-41864691D01*
X52967090Y-41884450D01*
X52947331Y-41902358D01*
X52925912Y-41918244D01*
X52903038Y-41931954D01*
X52878932Y-41943355D01*
X52853823Y-41952339D01*
X52827955Y-41958819D01*
X52801577Y-41962732D01*
X52774942Y-41964040D01*
X52068418Y-41964040D01*
X52041783Y-41962732D01*
X52015405Y-41958819D01*
X51989537Y-41952339D01*
X51964428Y-41943355D01*
X51940322Y-41931954D01*
X51917448Y-41918244D01*
X51896029Y-41902358D01*
X51876270Y-41884450D01*
X51858362Y-41864691D01*
X51842476Y-41843272D01*
X51828766Y-41820398D01*
X51817365Y-41796292D01*
X51808381Y-41771183D01*
X51801901Y-41745315D01*
X51797988Y-41718937D01*
X51796680Y-41692302D01*
X51796680Y-40735778D01*
X51797988Y-40709143D01*
X51801901Y-40682765D01*
X51808381Y-40656897D01*
X51817365Y-40631788D01*
X51828766Y-40607682D01*
X51842476Y-40584808D01*
X51858362Y-40563389D01*
X51876270Y-40543630D01*
X51896029Y-40525722D01*
X51917448Y-40509836D01*
X51940322Y-40496126D01*
X51964428Y-40484725D01*
X51989537Y-40475741D01*
X52015405Y-40469261D01*
X52041783Y-40465348D01*
X52068418Y-40464040D01*
X52774942Y-40464040D01*
X52801577Y-40465348D01*
X52801577Y-40465348D01*
G37*
D21*
X52421680Y-41214040D03*
D20*
G36*
X54851577Y-40465348D02*
G01*
X54877955Y-40469261D01*
X54903823Y-40475741D01*
X54928932Y-40484725D01*
X54953038Y-40496126D01*
X54975912Y-40509836D01*
X54997331Y-40525722D01*
X55017090Y-40543630D01*
X55034998Y-40563389D01*
X55050884Y-40584808D01*
X55064594Y-40607682D01*
X55075995Y-40631788D01*
X55084979Y-40656897D01*
X55091459Y-40682765D01*
X55095372Y-40709143D01*
X55096680Y-40735778D01*
X55096680Y-41692302D01*
X55095372Y-41718937D01*
X55091459Y-41745315D01*
X55084979Y-41771183D01*
X55075995Y-41796292D01*
X55064594Y-41820398D01*
X55050884Y-41843272D01*
X55034998Y-41864691D01*
X55017090Y-41884450D01*
X54997331Y-41902358D01*
X54975912Y-41918244D01*
X54953038Y-41931954D01*
X54928932Y-41943355D01*
X54903823Y-41952339D01*
X54877955Y-41958819D01*
X54851577Y-41962732D01*
X54824942Y-41964040D01*
X54118418Y-41964040D01*
X54091783Y-41962732D01*
X54065405Y-41958819D01*
X54039537Y-41952339D01*
X54014428Y-41943355D01*
X53990322Y-41931954D01*
X53967448Y-41918244D01*
X53946029Y-41902358D01*
X53926270Y-41884450D01*
X53908362Y-41864691D01*
X53892476Y-41843272D01*
X53878766Y-41820398D01*
X53867365Y-41796292D01*
X53858381Y-41771183D01*
X53851901Y-41745315D01*
X53847988Y-41718937D01*
X53846680Y-41692302D01*
X53846680Y-40735778D01*
X53847988Y-40709143D01*
X53851901Y-40682765D01*
X53858381Y-40656897D01*
X53867365Y-40631788D01*
X53878766Y-40607682D01*
X53892476Y-40584808D01*
X53908362Y-40563389D01*
X53926270Y-40543630D01*
X53946029Y-40525722D01*
X53967448Y-40509836D01*
X53990322Y-40496126D01*
X54014428Y-40484725D01*
X54039537Y-40475741D01*
X54065405Y-40469261D01*
X54091783Y-40465348D01*
X54118418Y-40464040D01*
X54824942Y-40464040D01*
X54851577Y-40465348D01*
X54851577Y-40465348D01*
G37*
D21*
X54471680Y-41214040D03*
%TD*%
D22*
%TO.C,J2*%
X60759840Y-44443400D03*
X60759840Y-42443400D03*
X62759840Y-44443400D03*
X62759840Y-42443400D03*
X64759840Y-44443400D03*
D23*
X64759840Y-42443400D03*
%TD*%
D24*
%TO.C,J1*%
X45669160Y-34715360D03*
X54319160Y-34715360D03*
D25*
X45669160Y-38095360D03*
X54319160Y-38095360D03*
D26*
X49569160Y-37725360D03*
X47019160Y-37725360D03*
X47869160Y-37725360D03*
X48719160Y-37725360D03*
X52969160Y-37725360D03*
X51269160Y-37725360D03*
X50419160Y-37725360D03*
X52119160Y-37725360D03*
X47019160Y-39075360D03*
X47869160Y-39075360D03*
X48719160Y-39075360D03*
X49569160Y-39075360D03*
X50419160Y-39075360D03*
X51269160Y-39075360D03*
X52119160Y-39075360D03*
X52969160Y-39075360D03*
%TD*%
D20*
%TO.C,F1*%
G36*
X48550305Y-40636860D02*
G01*
X48576514Y-40640748D01*
X48602217Y-40647186D01*
X48627165Y-40656113D01*
X48651117Y-40667441D01*
X48673844Y-40681063D01*
X48695126Y-40696847D01*
X48714759Y-40714641D01*
X48732553Y-40734274D01*
X48748337Y-40755556D01*
X48761959Y-40778283D01*
X48773287Y-40802235D01*
X48782214Y-40827183D01*
X48788652Y-40852886D01*
X48792540Y-40879095D01*
X48793840Y-40905560D01*
X48793840Y-41715560D01*
X48792540Y-41742025D01*
X48788652Y-41768234D01*
X48782214Y-41793937D01*
X48773287Y-41818885D01*
X48761959Y-41842837D01*
X48748337Y-41865564D01*
X48732553Y-41886846D01*
X48714759Y-41906479D01*
X48695126Y-41924273D01*
X48673844Y-41940057D01*
X48651117Y-41953679D01*
X48627165Y-41965007D01*
X48602217Y-41973934D01*
X48576514Y-41980372D01*
X48550305Y-41984260D01*
X48523840Y-41985560D01*
X47213840Y-41985560D01*
X47187375Y-41984260D01*
X47161166Y-41980372D01*
X47135463Y-41973934D01*
X47110515Y-41965007D01*
X47086563Y-41953679D01*
X47063836Y-41940057D01*
X47042554Y-41924273D01*
X47022921Y-41906479D01*
X47005127Y-41886846D01*
X46989343Y-41865564D01*
X46975721Y-41842837D01*
X46964393Y-41818885D01*
X46955466Y-41793937D01*
X46949028Y-41768234D01*
X46945140Y-41742025D01*
X46943840Y-41715560D01*
X46943840Y-40905560D01*
X46945140Y-40879095D01*
X46949028Y-40852886D01*
X46955466Y-40827183D01*
X46964393Y-40802235D01*
X46975721Y-40778283D01*
X46989343Y-40755556D01*
X47005127Y-40734274D01*
X47022921Y-40714641D01*
X47042554Y-40696847D01*
X47063836Y-40681063D01*
X47086563Y-40667441D01*
X47110515Y-40656113D01*
X47135463Y-40647186D01*
X47161166Y-40640748D01*
X47187375Y-40636860D01*
X47213840Y-40635560D01*
X48523840Y-40635560D01*
X48550305Y-40636860D01*
X48550305Y-40636860D01*
G37*
D27*
X47868840Y-41310560D03*
D20*
G36*
X48550305Y-43436860D02*
G01*
X48576514Y-43440748D01*
X48602217Y-43447186D01*
X48627165Y-43456113D01*
X48651117Y-43467441D01*
X48673844Y-43481063D01*
X48695126Y-43496847D01*
X48714759Y-43514641D01*
X48732553Y-43534274D01*
X48748337Y-43555556D01*
X48761959Y-43578283D01*
X48773287Y-43602235D01*
X48782214Y-43627183D01*
X48788652Y-43652886D01*
X48792540Y-43679095D01*
X48793840Y-43705560D01*
X48793840Y-44515560D01*
X48792540Y-44542025D01*
X48788652Y-44568234D01*
X48782214Y-44593937D01*
X48773287Y-44618885D01*
X48761959Y-44642837D01*
X48748337Y-44665564D01*
X48732553Y-44686846D01*
X48714759Y-44706479D01*
X48695126Y-44724273D01*
X48673844Y-44740057D01*
X48651117Y-44753679D01*
X48627165Y-44765007D01*
X48602217Y-44773934D01*
X48576514Y-44780372D01*
X48550305Y-44784260D01*
X48523840Y-44785560D01*
X47213840Y-44785560D01*
X47187375Y-44784260D01*
X47161166Y-44780372D01*
X47135463Y-44773934D01*
X47110515Y-44765007D01*
X47086563Y-44753679D01*
X47063836Y-44740057D01*
X47042554Y-44724273D01*
X47022921Y-44706479D01*
X47005127Y-44686846D01*
X46989343Y-44665564D01*
X46975721Y-44642837D01*
X46964393Y-44618885D01*
X46955466Y-44593937D01*
X46949028Y-44568234D01*
X46945140Y-44542025D01*
X46943840Y-44515560D01*
X46943840Y-43705560D01*
X46945140Y-43679095D01*
X46949028Y-43652886D01*
X46955466Y-43627183D01*
X46964393Y-43602235D01*
X46975721Y-43578283D01*
X46989343Y-43555556D01*
X47005127Y-43534274D01*
X47022921Y-43514641D01*
X47042554Y-43496847D01*
X47063836Y-43481063D01*
X47086563Y-43467441D01*
X47110515Y-43456113D01*
X47135463Y-43447186D01*
X47161166Y-43440748D01*
X47187375Y-43436860D01*
X47213840Y-43435560D01*
X48523840Y-43435560D01*
X48550305Y-43436860D01*
X48550305Y-43436860D01*
G37*
D27*
X47868840Y-44110560D03*
%TD*%
D20*
%TO.C,D3*%
G36*
X39963240Y-30811048D02*
G01*
X39989211Y-30814901D01*
X40014680Y-30821280D01*
X40039401Y-30830126D01*
X40063135Y-30841351D01*
X40085655Y-30854849D01*
X40106744Y-30870490D01*
X40126198Y-30888122D01*
X40143830Y-30907576D01*
X40159471Y-30928665D01*
X40172969Y-30951185D01*
X40184194Y-30974919D01*
X40193040Y-30999640D01*
X40199419Y-31025109D01*
X40203272Y-31051080D01*
X40204560Y-31077304D01*
X40204560Y-32392216D01*
X40203272Y-32418440D01*
X40199419Y-32444411D01*
X40193040Y-32469880D01*
X40184194Y-32494601D01*
X40172969Y-32518335D01*
X40159471Y-32540855D01*
X40143830Y-32561944D01*
X40126198Y-32581398D01*
X40106744Y-32599030D01*
X40085655Y-32614671D01*
X40063135Y-32628169D01*
X40039401Y-32639394D01*
X40014680Y-32648240D01*
X39989211Y-32654619D01*
X39963240Y-32658472D01*
X39937016Y-32659760D01*
X38947104Y-32659760D01*
X38920880Y-32658472D01*
X38894909Y-32654619D01*
X38869440Y-32648240D01*
X38844719Y-32639394D01*
X38820985Y-32628169D01*
X38798465Y-32614671D01*
X38777376Y-32599030D01*
X38757922Y-32581398D01*
X38740290Y-32561944D01*
X38724649Y-32540855D01*
X38711151Y-32518335D01*
X38699926Y-32494601D01*
X38691080Y-32469880D01*
X38684701Y-32444411D01*
X38680848Y-32418440D01*
X38679560Y-32392216D01*
X38679560Y-31077304D01*
X38680848Y-31051080D01*
X38684701Y-31025109D01*
X38691080Y-30999640D01*
X38699926Y-30974919D01*
X38711151Y-30951185D01*
X38724649Y-30928665D01*
X38740290Y-30907576D01*
X38757922Y-30888122D01*
X38777376Y-30870490D01*
X38798465Y-30854849D01*
X38820985Y-30841351D01*
X38844719Y-30830126D01*
X38869440Y-30821280D01*
X38894909Y-30814901D01*
X38920880Y-30811048D01*
X38947104Y-30809760D01*
X39937016Y-30809760D01*
X39963240Y-30811048D01*
X39963240Y-30811048D01*
G37*
D28*
X39442060Y-31734760D03*
D20*
G36*
X42938240Y-30811048D02*
G01*
X42964211Y-30814901D01*
X42989680Y-30821280D01*
X43014401Y-30830126D01*
X43038135Y-30841351D01*
X43060655Y-30854849D01*
X43081744Y-30870490D01*
X43101198Y-30888122D01*
X43118830Y-30907576D01*
X43134471Y-30928665D01*
X43147969Y-30951185D01*
X43159194Y-30974919D01*
X43168040Y-30999640D01*
X43174419Y-31025109D01*
X43178272Y-31051080D01*
X43179560Y-31077304D01*
X43179560Y-32392216D01*
X43178272Y-32418440D01*
X43174419Y-32444411D01*
X43168040Y-32469880D01*
X43159194Y-32494601D01*
X43147969Y-32518335D01*
X43134471Y-32540855D01*
X43118830Y-32561944D01*
X43101198Y-32581398D01*
X43081744Y-32599030D01*
X43060655Y-32614671D01*
X43038135Y-32628169D01*
X43014401Y-32639394D01*
X42989680Y-32648240D01*
X42964211Y-32654619D01*
X42938240Y-32658472D01*
X42912016Y-32659760D01*
X41922104Y-32659760D01*
X41895880Y-32658472D01*
X41869909Y-32654619D01*
X41844440Y-32648240D01*
X41819719Y-32639394D01*
X41795985Y-32628169D01*
X41773465Y-32614671D01*
X41752376Y-32599030D01*
X41732922Y-32581398D01*
X41715290Y-32561944D01*
X41699649Y-32540855D01*
X41686151Y-32518335D01*
X41674926Y-32494601D01*
X41666080Y-32469880D01*
X41659701Y-32444411D01*
X41655848Y-32418440D01*
X41654560Y-32392216D01*
X41654560Y-31077304D01*
X41655848Y-31051080D01*
X41659701Y-31025109D01*
X41666080Y-30999640D01*
X41674926Y-30974919D01*
X41686151Y-30951185D01*
X41699649Y-30928665D01*
X41715290Y-30907576D01*
X41732922Y-30888122D01*
X41752376Y-30870490D01*
X41773465Y-30854849D01*
X41795985Y-30841351D01*
X41819719Y-30830126D01*
X41844440Y-30821280D01*
X41869909Y-30814901D01*
X41895880Y-30811048D01*
X41922104Y-30809760D01*
X42912016Y-30809760D01*
X42938240Y-30811048D01*
X42938240Y-30811048D01*
G37*
D28*
X42417060Y-31734760D03*
%TD*%
D29*
%TO.C,D2*%
X60741560Y-31424880D03*
D30*
X60741560Y-35234880D03*
%TD*%
D29*
%TO.C,D1*%
X56931560Y-31424880D03*
D30*
X56931560Y-35234880D03*
%TD*%
D20*
%TO.C,C4*%
G36*
X45865989Y-41811304D02*
G01*
X45891471Y-41815084D01*
X45916460Y-41821343D01*
X45940714Y-41830022D01*
X45964002Y-41841036D01*
X45986097Y-41854279D01*
X46006788Y-41869625D01*
X46025876Y-41886924D01*
X46043175Y-41906012D01*
X46058521Y-41926703D01*
X46071764Y-41948798D01*
X46082778Y-41972086D01*
X46091457Y-41996340D01*
X46097716Y-42021329D01*
X46101496Y-42046811D01*
X46102760Y-42072540D01*
X46102760Y-42697540D01*
X46101496Y-42723269D01*
X46097716Y-42748751D01*
X46091457Y-42773740D01*
X46082778Y-42797994D01*
X46071764Y-42821282D01*
X46058521Y-42843377D01*
X46043175Y-42864068D01*
X46025876Y-42883156D01*
X46006788Y-42900455D01*
X45986097Y-42915801D01*
X45964002Y-42929044D01*
X45940714Y-42940058D01*
X45916460Y-42948737D01*
X45891471Y-42954996D01*
X45865989Y-42958776D01*
X45840260Y-42960040D01*
X45315260Y-42960040D01*
X45289531Y-42958776D01*
X45264049Y-42954996D01*
X45239060Y-42948737D01*
X45214806Y-42940058D01*
X45191518Y-42929044D01*
X45169423Y-42915801D01*
X45148732Y-42900455D01*
X45129644Y-42883156D01*
X45112345Y-42864068D01*
X45096999Y-42843377D01*
X45083756Y-42821282D01*
X45072742Y-42797994D01*
X45064063Y-42773740D01*
X45057804Y-42748751D01*
X45054024Y-42723269D01*
X45052760Y-42697540D01*
X45052760Y-42072540D01*
X45054024Y-42046811D01*
X45057804Y-42021329D01*
X45064063Y-41996340D01*
X45072742Y-41972086D01*
X45083756Y-41948798D01*
X45096999Y-41926703D01*
X45112345Y-41906012D01*
X45129644Y-41886924D01*
X45148732Y-41869625D01*
X45169423Y-41854279D01*
X45191518Y-41841036D01*
X45214806Y-41830022D01*
X45239060Y-41821343D01*
X45264049Y-41815084D01*
X45289531Y-41811304D01*
X45315260Y-41810040D01*
X45840260Y-41810040D01*
X45865989Y-41811304D01*
X45865989Y-41811304D01*
G37*
D31*
X45577760Y-42385040D03*
D20*
G36*
X45865989Y-43561304D02*
G01*
X45891471Y-43565084D01*
X45916460Y-43571343D01*
X45940714Y-43580022D01*
X45964002Y-43591036D01*
X45986097Y-43604279D01*
X46006788Y-43619625D01*
X46025876Y-43636924D01*
X46043175Y-43656012D01*
X46058521Y-43676703D01*
X46071764Y-43698798D01*
X46082778Y-43722086D01*
X46091457Y-43746340D01*
X46097716Y-43771329D01*
X46101496Y-43796811D01*
X46102760Y-43822540D01*
X46102760Y-44447540D01*
X46101496Y-44473269D01*
X46097716Y-44498751D01*
X46091457Y-44523740D01*
X46082778Y-44547994D01*
X46071764Y-44571282D01*
X46058521Y-44593377D01*
X46043175Y-44614068D01*
X46025876Y-44633156D01*
X46006788Y-44650455D01*
X45986097Y-44665801D01*
X45964002Y-44679044D01*
X45940714Y-44690058D01*
X45916460Y-44698737D01*
X45891471Y-44704996D01*
X45865989Y-44708776D01*
X45840260Y-44710040D01*
X45315260Y-44710040D01*
X45289531Y-44708776D01*
X45264049Y-44704996D01*
X45239060Y-44698737D01*
X45214806Y-44690058D01*
X45191518Y-44679044D01*
X45169423Y-44665801D01*
X45148732Y-44650455D01*
X45129644Y-44633156D01*
X45112345Y-44614068D01*
X45096999Y-44593377D01*
X45083756Y-44571282D01*
X45072742Y-44547994D01*
X45064063Y-44523740D01*
X45057804Y-44498751D01*
X45054024Y-44473269D01*
X45052760Y-44447540D01*
X45052760Y-43822540D01*
X45054024Y-43796811D01*
X45057804Y-43771329D01*
X45064063Y-43746340D01*
X45072742Y-43722086D01*
X45083756Y-43698798D01*
X45096999Y-43676703D01*
X45112345Y-43656012D01*
X45129644Y-43636924D01*
X45148732Y-43619625D01*
X45169423Y-43604279D01*
X45191518Y-43591036D01*
X45214806Y-43580022D01*
X45239060Y-43571343D01*
X45264049Y-43565084D01*
X45289531Y-43561304D01*
X45315260Y-43560040D01*
X45840260Y-43560040D01*
X45865989Y-43561304D01*
X45865989Y-43561304D01*
G37*
D31*
X45577760Y-44135040D03*
%TD*%
D20*
%TO.C,C3*%
G36*
X62681000Y-38324368D02*
G01*
X62706971Y-38328221D01*
X62732440Y-38334600D01*
X62757161Y-38343446D01*
X62780895Y-38354671D01*
X62803415Y-38368169D01*
X62824504Y-38383810D01*
X62843958Y-38401442D01*
X62861590Y-38420896D01*
X62877231Y-38441985D01*
X62890729Y-38464505D01*
X62901954Y-38488239D01*
X62910800Y-38512960D01*
X62917179Y-38538429D01*
X62921032Y-38564400D01*
X62922320Y-38590624D01*
X62922320Y-39905536D01*
X62921032Y-39931760D01*
X62917179Y-39957731D01*
X62910800Y-39983200D01*
X62901954Y-40007921D01*
X62890729Y-40031655D01*
X62877231Y-40054175D01*
X62861590Y-40075264D01*
X62843958Y-40094718D01*
X62824504Y-40112350D01*
X62803415Y-40127991D01*
X62780895Y-40141489D01*
X62757161Y-40152714D01*
X62732440Y-40161560D01*
X62706971Y-40167939D01*
X62681000Y-40171792D01*
X62654776Y-40173080D01*
X61664864Y-40173080D01*
X61638640Y-40171792D01*
X61612669Y-40167939D01*
X61587200Y-40161560D01*
X61562479Y-40152714D01*
X61538745Y-40141489D01*
X61516225Y-40127991D01*
X61495136Y-40112350D01*
X61475682Y-40094718D01*
X61458050Y-40075264D01*
X61442409Y-40054175D01*
X61428911Y-40031655D01*
X61417686Y-40007921D01*
X61408840Y-39983200D01*
X61402461Y-39957731D01*
X61398608Y-39931760D01*
X61397320Y-39905536D01*
X61397320Y-38590624D01*
X61398608Y-38564400D01*
X61402461Y-38538429D01*
X61408840Y-38512960D01*
X61417686Y-38488239D01*
X61428911Y-38464505D01*
X61442409Y-38441985D01*
X61458050Y-38420896D01*
X61475682Y-38401442D01*
X61495136Y-38383810D01*
X61516225Y-38368169D01*
X61538745Y-38354671D01*
X61562479Y-38343446D01*
X61587200Y-38334600D01*
X61612669Y-38328221D01*
X61638640Y-38324368D01*
X61664864Y-38323080D01*
X62654776Y-38323080D01*
X62681000Y-38324368D01*
X62681000Y-38324368D01*
G37*
D28*
X62159820Y-39248080D03*
D20*
G36*
X65656000Y-38324368D02*
G01*
X65681971Y-38328221D01*
X65707440Y-38334600D01*
X65732161Y-38343446D01*
X65755895Y-38354671D01*
X65778415Y-38368169D01*
X65799504Y-38383810D01*
X65818958Y-38401442D01*
X65836590Y-38420896D01*
X65852231Y-38441985D01*
X65865729Y-38464505D01*
X65876954Y-38488239D01*
X65885800Y-38512960D01*
X65892179Y-38538429D01*
X65896032Y-38564400D01*
X65897320Y-38590624D01*
X65897320Y-39905536D01*
X65896032Y-39931760D01*
X65892179Y-39957731D01*
X65885800Y-39983200D01*
X65876954Y-40007921D01*
X65865729Y-40031655D01*
X65852231Y-40054175D01*
X65836590Y-40075264D01*
X65818958Y-40094718D01*
X65799504Y-40112350D01*
X65778415Y-40127991D01*
X65755895Y-40141489D01*
X65732161Y-40152714D01*
X65707440Y-40161560D01*
X65681971Y-40167939D01*
X65656000Y-40171792D01*
X65629776Y-40173080D01*
X64639864Y-40173080D01*
X64613640Y-40171792D01*
X64587669Y-40167939D01*
X64562200Y-40161560D01*
X64537479Y-40152714D01*
X64513745Y-40141489D01*
X64491225Y-40127991D01*
X64470136Y-40112350D01*
X64450682Y-40094718D01*
X64433050Y-40075264D01*
X64417409Y-40054175D01*
X64403911Y-40031655D01*
X64392686Y-40007921D01*
X64383840Y-39983200D01*
X64377461Y-39957731D01*
X64373608Y-39931760D01*
X64372320Y-39905536D01*
X64372320Y-38590624D01*
X64373608Y-38564400D01*
X64377461Y-38538429D01*
X64383840Y-38512960D01*
X64392686Y-38488239D01*
X64403911Y-38464505D01*
X64417409Y-38441985D01*
X64433050Y-38420896D01*
X64450682Y-38401442D01*
X64470136Y-38383810D01*
X64491225Y-38368169D01*
X64513745Y-38354671D01*
X64537479Y-38343446D01*
X64562200Y-38334600D01*
X64587669Y-38328221D01*
X64613640Y-38324368D01*
X64639864Y-38323080D01*
X65629776Y-38323080D01*
X65656000Y-38324368D01*
X65656000Y-38324368D01*
G37*
D28*
X65134820Y-39248080D03*
%TD*%
M02*
